<?xml version="1.0" encoding="utf-8"?>
<!-- Generator: Adobe Illustrator 25.3.0, SVG Export Plug-In . SVG Version: 6.00 Build 0)  -->
<svg version="1.1" id="Calque_1" xmlns="http://www.w3.org/2000/svg" xmlns:xlink="http://www.w3.org/1999/xlink" x="0px" y="0px"
	 viewBox="0 0 595.3 841.9" style="enable-background:new 0 0 595.3 841.9;" xml:space="preserve">
<style type="text/css">
	.st0{fill:#C03458;}
	.st1{fill:#E15351;}
	.st2{fill:#C0F8FC;}
	.st3{fill:#644889;}
	.st4{fill:#3F72AE;}
	.st5{fill:#3A87C4;}
	.st6{fill:#7D3E72;}
	.st7{fill:#1DEDFB;}
	.st8{fill:#4478B7;}
	.st9{fill:#6F4380;}
	.st10{fill:#873C6D;}
	.st11{fill:#ED7059;}
	.st12{fill:#FDF2B5;}
	.st13{fill:#1F9ED9;}
	.st14{fill:#3A7CBC;}
	.st15{fill:#F9C08C;}
	.st16{fill:#B73653;}
	.st17{fill:#28DBF6;}
	.st18{fill:#8E3562;}
	.st19{fill:#96345A;}
	.st20{fill:#2F8DC6;}
	.st21{fill:#5AF5F7;}
	.st22{fill:#5A6EAD;}
	.st23{fill:#E83F5E;}
	.st24{fill:#28D9F5;}
	.st25{fill:#5FF6FA;}
	.st26{fill:#46D5E5;}
	.st27{fill:#19CEF3;}
	.st28{fill:#B65567;}
	.st29{fill:#238AC8;}
	.st30{fill:#FAB886;}
	.st31{fill:#5BF0F2;}
	.st32{fill:#26E0F8;}
	.st33{fill:#FBC689;}
	.st34{fill:#238FCD;}
	.st35{fill:#39B3D6;}
	.st36{fill:#65569C;}
	.st37{fill:#33A5CD;}
	.st38{fill:#946A95;}
	.st39{fill:#5F5DA5;}
	.st40{fill:#A5577C;}
	.st41{fill:#876CA0;}
	.st42{fill:#FBD598;}
	.st43{fill:#565FA3;}
	.st44{fill:#A03B5C;}
	.st45{fill:#3DCCE8;}
	.st46{fill:#56EBF1;}
	.st47{fill:#DB585F;}
	.st48{fill:#6EF5F9;}
	.st49{fill:#F9B884;}
	.st50{fill:#38ADD3;}
	.st51{fill:#BDF9FD;}
	.st52{fill:#E57C6E;}
	.st53{fill:#1FA8E0;}
	.st54{fill:#71D3E1;}
	.st55{fill:#A84966;}
	.st56{fill:#FAA680;}
	.st57{fill:#EFB2A6;}
	.st58{fill:#ED727D;}
	.st59{fill:#EF3552;}
	.st60{fill:#D23667;}
	.st61{fill:#A93360;}
	.st62{fill:#B43465;}
	.st63{fill:#C13667;}
	.st64{fill:#E5535C;}
	.st65{fill:#DA4B73;}
	.st66{fill:#CCFCFE;}
	.st67{fill:#43F4FB;}
	.st68{fill:#E0F6FD;}
	.st69{fill:#70E1FA;}
	.st70{fill:#60F1F6;}
	.st71{fill:#38DFF5;}
	.st72{fill:#5FF4FA;}
	.st73{fill:#DBF7FE;}
	.st74{fill:#5D4D8D;}
	.st75{fill:#6E4988;}
	.st76{fill:#3779B3;}
	.st77{fill:#4168AC;}
	.st78{fill:#486BA7;}
	.st79{fill:#D3F3FA;}
	.st80{fill:#3684B9;}
	.st81{fill:#378ACC;}
	.st82{fill:#467BBF;}
	.st83{fill:#4983C8;}
	.st84{fill:#713F77;}
	.st85{fill:#7A407A;}
	.st86{fill:#843E79;}
	.st87{fill:#8F3C74;}
	.st88{fill:#16E8F4;}
	.st89{fill:#11DEFD;}
	.st90{fill:#11E6FD;}
	.st91{fill:#77FCFD;}
	.st92{fill:#4B6DB0;}
	.st93{fill:#5171B8;}
	.st94{fill:#784A86;}
	.st95{fill:#91396C;}
	.st96{fill:#F58C69;}
	.st97{fill:#EF726F;}
	.st98{fill:#C94647;}
	.st99{fill:#F4FABD;}
	.st100{fill:#FDF490;}
	.st101{fill:#FDEBB2;}
	.st102{fill:#FDD896;}
	.st103{fill:#FEF7D1;}
	.st104{fill:#3897D8;}
	.st105{fill:#1BA9E9;}
	.st106{fill:#1A94CD;}
	.st107{fill:#3BADEC;}
	.st108{fill:#2690D0;}
	.st109{fill:#FA794D;}
	.st110{fill:#EA6C48;}
	.st111{fill:#DF5E47;}
	.st112{fill:#A2354E;}
	.st113{fill:#1DD6F4;}
	.st114{fill:#37F0FA;}
	.st115{fill:#10D9FB;}
	.st116{fill:#12D4F5;}
	.st117{fill:#983664;}
	.st118{fill:#B5FAFD;}
	.st119{fill:#8CFDFC;}
	.st120{fill:#665F9B;}
	.st121{fill:#5C63A2;}
	.st122{fill:#6F5E99;}
	.st123{fill:#CE4D4B;}
	.st124{fill:#0ED2F2;}
	.st125{fill:#0CD6FA;}
	.st126{fill:#1CDAF8;}
	.st127{fill:#13C1F3;}
	.st128{fill:#20BAEA;}
	.st129{fill:#4EDFFA;}
	.st130{fill:#B14E70;}
	.st131{fill:#E55A49;}
	.st132{fill:#FCE076;}
	.st133{fill:#FCCB64;}
	.st134{fill:#F8B358;}
	.st135{fill:#EC8C4D;}
	.st136{fill:#2C94C3;}
	.st137{fill:#555597;}
	.st138{fill:#2D89BB;}
	.st139{fill:#7F548A;}
	.st140{fill:#905280;}
	.st141{fill:#9D537E;}
	.st142{fill:#765990;}
	.st143{fill:#FAED79;}
	.st144{fill:#FCEE81;}
	.st145{fill:#495EA2;}
	.st146{fill:#4663A6;}
	.st147{fill:#0AB3E9;}
	.st148{fill:#FEA58F;}
	.st149{fill:#EB5062;}
	.st150{fill:#DE3E70;}
	.st151{fill:#FDC7C4;}
	.st152{fill:#EE4C7B;}
	.st153{fill:#A33767;}
	.st154{fill:#B23B71;}
	.st155{fill:#C23D76;}
	.st156{fill:#E75672;}
	.st157{fill:#F7757E;}
	.st158{fill:#CA4C7B;}
	.st159{fill:#36B3DB;}
	.st160{fill:#48B8D7;}
	.st161{fill:#33C3E2;}
	.st162{fill:#4CE0ED;}
	.st163{fill:#5BE7F7;}
	.st164{fill:#D6FDFD;}
	.st165{fill:#52EAF7;}
	.st166{fill:#C4FBFC;}
	.st167{fill:#2ADDF8;}
	.st168{fill:#25A0CC;}
	.st169{fill:#2390C1;}
	.st170{fill:#EAF6FD;}
	.st171{fill:#85C9F8;}
	.st172{fill:#ADABF4;}
	.st173{fill:#69D5ED;}
	.st174{fill:#1F81B5;}
	.st175{fill:#238CBC;}
	.st176{fill:#5F5798;}
	.st177{fill:#63558E;}
	.st178{fill:#6D5894;}
	.st179{fill:#F4F1F8;}
	.st180{fill:#6B609D;}
	.st181{fill:#F0DFE5;}
	.st182{fill:#4D63A3;}
	.st183{fill:#57609E;}
	.st184{fill:#D2FAFC;}
	.st185{fill:#4C8BD1;}
	.st186{fill:#6186CE;}
	.st187{fill:#884882;}
	.st188{fill:#8F437C;}
	.st189{fill:#A13E71;}
	.st190{fill:#17DFEC;}
	.st191{fill:#43FAFC;}
	.st192{fill:#2DF4F7;}
	.st193{fill:#16EFFA;}
	.st194{fill:#15D6FC;}
	.st195{fill:#5E6EB6;}
	.st196{fill:#AD5D91;}
	.st197{fill:#F7917E;}
	.st198{fill:#FED6BB;}
	.st199{fill:#FD9799;}
	.st200{fill:#F1927C;}
	.st201{fill:#FE858F;}
	.st202{fill:#D14641;}
	.st203{fill:#F4764B;}
	.st204{fill:#CD4D53;}
	.st205{fill:#D6494E;}
	.st206{fill:#E26970;}
	.st207{fill:#D45E66;}
	.st208{fill:#FDE8B5;}
	.st209{fill:#D26D67;}
	.st210{fill:#F39A50;}
	.st211{fill:#54AAE5;}
	.st212{fill:#19B1EA;}
	.st213{fill:#38C9F6;}
	.st214{fill:#45B9F3;}
	.st215{fill:#F66A53;}
	.st216{fill:#FC8463;}
	.st217{fill:#FC8E63;}
	.st218{fill:#FB9A62;}
	.st219{fill:#2DD9EF;}
	.st220{fill:#31DDF6;}
	.st221{fill:#24DAE7;}
	.st222{fill:#22E0F1;}
	.st223{fill:#30E6F7;}
	.st224{fill:#815E9F;}
	.st225{fill:#6A65A9;}
	.st226{fill:#B5497A;}
	.st227{fill:#ED5855;}
	.st228{fill:#FC5D5F;}
	.st229{fill:#FCEF8B;}
	.st230{fill:#FDC786;}
	.st231{fill:#FAD672;}
	.st232{fill:#FEB465;}
	.st233{fill:#FDC66D;}
	.st234{fill:#FCA55E;}
	.st235{fill:#515C9A;}
	.st236{fill:#92508B;}
	.st237{fill:#FDA79F;}
	.st238{fill:#FDBCBB;}
	.st239{fill:#D6427D;}
	.st240{fill:#F79AAB;}
	.st241{fill:#FCC2CC;}
	.st242{fill:#FA8E95;}
	.st243{fill:#EC5E89;}
	.st244{fill:#B34C85;}
	.st245{fill:#D34884;}
	.st246{fill:#F15D82;}
	.st247{fill:#D16AA7;}
	.st248{fill:#EB639F;}
	.st249{fill:#37A9D1;}
	.st250{fill:#5EC5E0;}
	.st251{fill:#30D7DB;}
	.st252{fill:#A8F5F6;}
	.st253{fill:#ABDEE4;}
	.st254{fill:#319DC7;}
	.st255{fill:#3492BE;}
	.st256{fill:#E976BC;}
	.st257{fill:#C596E3;}
	.st258{fill:#FCDFF0;}
	.st259{fill:#C281C1;}
	.st260{fill:#7CA1DF;}
	.st261{fill:#D67EC6;}
	.st262{fill:#8F9FEE;}
	.st263{fill:#2A79B9;}
	.st264{fill:#3274A7;}
	.st265{fill:#45609B;}
	.st266{fill:#277CAE;}
	.st267{fill:#2B84B4;}
	.st268{fill:#2775AC;}
	.st269{fill:#399DC2;}
	.st270{fill:#F7D9E0;}
	.st271{fill:#F8E5ED;}
	.st272{fill:#9679AD;}
	.st273{fill:#7977AD;}
	.st274{fill:#6086B4;}
	.st275{fill:#3CD1E2;}
	.st276{fill:#797FCD;}
	.st277{fill:#1BDADE;}
	.st278{fill:#15E5EA;}
	.st279{fill:#16D6E2;}
	.st280{fill:#29CED3;}
	.st281{fill:#41F7FC;}
	.st282{fill:#4BF9FA;}
	.st283{fill:#F9C9C3;}
	.st284{fill:#F2738B;}
	.st285{fill:#F8C5A0;}
	.st286{fill:#DA4F43;}
	.st287{fill:#E44F44;}
	.st288{fill:#DA4E4F;}
	.st289{fill:#FEFEFE;}
	.st290{fill:#D46770;}
	.st291{fill:#FEF2DF;}
	.st292{fill:#FC7260;}
	.st293{fill:#FA6D68;}
	.st294{fill:#FA7E67;}
	.st295{fill:#FD9D8A;}
	.st296{fill:#FDA871;}
	.st297{fill:#23DBDB;}
	.st298{fill:#FA6968;}
	.st299{fill:#FCEA9F;}
	.st300{fill:#D2443A;}
	.st301{fill:#BE3E3E;}
	.st302{fill:#B34042;}
	.st303{fill:#FEBC70;}
	.st304{fill:#A13C2F;}
	.st305{fill:#F97278;}
	.st306{fill:#F87F83;}
	.st307{fill:#FC899A;}
	.st308{fill:#B64D73;}
	.st309{fill:#EC788A;}
	.st310{fill:#F88398;}
	.st311{fill:#FBBEC5;}
	.st312{fill:#FC91A0;}
	.st313{fill:#FBDDD7;}
	.st314{fill:#FCE5E4;}
	.st315{fill:#70F6F4;}
	.st316{fill:#F383B6;}
	.st317{fill:#C64E7D;}
	.st318{fill:#974B80;}
	.st319{fill:#8C5488;}
	.st320{fill:#5B5A90;}
	.st321{fill:#695F8E;}
	.st322{fill:#7E568B;}
	.st323{fill:#F0AABC;}
	.st324{fill:#3966A1;}
	.st325{fill:#316BA3;}
	.st326{fill:#446F9F;}
	.st327{fill:#5E729A;}
	.st328{fill:#2A97B8;}
	.st329{fill:#25749B;}
	.st330{fill:#2CA7C3;}
	.st331{fill:#3679A9;}
	.st332{fill:#4175A9;}
	.st333{fill:#A9699C;}
	.st334{fill:#7D65A1;}
	.st335{fill:#885D9B;}
	.st336{fill:#5F73AA;}
	.st337{fill:#646897;}
	.st338{fill:#5D6BA1;}
	.st339{fill:#4E71A7;}
	.st340{fill:#21B9D3;}
	.st341{fill:#0CCDDB;}
	.st342{fill:#15C9CE;}
	.st343{fill:#61C8D0;}
	.st344{fill:#C2443E;}
	.st345{fill:#D3483B;}
	.st346{fill:#E86B8D;}
	.st347{fill:#296998;}
	.st348{fill:#904F85;}
	.st349{fill:#815D8C;}
	.st350{fill:#346E9E;}
	.st351{fill:#A53A3E;}
	.st352{fill:#745B8D;}
	.st353{fill:#AA4E79;}
	.st354{fill:#9A567E;}
	.st355{fill:#7D6997;}
	.st356{fill:#AE5083;}
	.st357{fill:#F48D8F;}
	.st358{fill:#536E9A;}
	.st359{fill:#4C6484;}
	.st360{fill:#CE848F;}
	.st361{fill:#756EA0;}
	.st362{fill:#E4655D;}
	.st363{fill:#CE6D83;}
	.st364{fill:#94568D;}
	.st365{fill:#FD766A;}
	.st366{fill:#F0565A;}
	.st367{fill:#FB5F54;}
	.st368{fill:#EC5F6F;}
	.st369{fill:#FE8776;}
	.st370{fill:#ED6350;}
	.st371{fill:#F06B7D;}
	.st372{fill:#914775;}
	.st373{fill:#BD5788;}
	.st374{fill:#C06896;}
	.st375{fill:#1EAFC3;}
	.st376{fill:#386FA3;}
	.st377{fill:#905995;}
	.st378{fill:#436D9F;}
	.st379{fill:#9A4A80;}
	.st380{fill:#E3503D;}
</style>
<g>
	<path class="st0" d="M331.1,327.9c0.6,3.1,1.3,6.3,1.9,9.4c0.6,2.6,0.8,5.2-0.1,7.7c-1.4,0.5-2.2-0.6-2.7-1.5
		c-2.4-4.1-6.1-7.2-8.9-11c-0.2-0.4-0.3-0.9-0.5-1.4c-0.2-3-2.1-5.1-4.1-7.2c-2.7-2.9-5.8-5.5-6.6-9.7c0.1-0.5,0.3-0.9,0.6-1.3
		c1-0.5,1.9-0.2,2.8,0.2c2.1,1.6,4.8,2.3,6.2,4.8c0.2,4.4,4.1,6.6,6.2,9.8c1.4,2.1,2.7,4.3,3.9,6.5
		C330.1,332.1,329.1,329.7,331.1,327.9z"/>
	<path class="st1" d="M267,442.8c-1,0.4-1.9,0.8-2.9,1.2c-1.7,0-3.1-0.8-4.4-1.9c-0.2-0.4-0.4-0.8-0.5-1.3c-0.2-4,1.6-5.8,5.6-6.3
		c2.1-0.3,4.9,0.3,6.4-2.2c2.5-2.3,5.9-1.7,8.8-2.9c0.8-0.3,2.5-0.2,2,1.8c-0.6,0.6-1.3,1.3-1.9,1.9c-1,1-2,2-3,3l-0.1-0.1
		C273.6,438,270.7,441,267,442.8z"/>
	<path class="st2" d="M159.1,386.9c-1.1-2.2-2.3-4.3-2.1-6.9c2,2.1,1.6-0.5,2-1.1c0.6-1,0.9-2.1,1.4-3.2c0.6-1,1.1-2.1,2.6-2
		c1.1,1.1,1.2,3,2.8,3.8c0.9,3.5-1.3,7,0,10.5c0.7,2.9,2.6,5.1,4.7,7.1c0.8,0.8,1.6,1.6,2.2,2.6c0.9,1.4,1.9,2.7,2.2,4.3
		c0.1,1,0,1.9-0.6,2.7c-3.7,0.8-4.6-2.7-6.8-4.2c-1.4-1.8-2.7-3.7-4.1-5.4c-0.6-1-1-2-1.4-3.1C161.6,390.1,160,388.7,159.1,386.9z"
		/>
	<path class="st3" d="M300,279.9c1.9,1.1,3.8,2.1,4.9,4c-3.7,4.7-9.2,3.5-14,4.4c-2.8-0.1-5.6,0.4-8.3-0.7c-2-2.9,0.7-3.3,2.3-3.9
		c3.6-1.3,6.9-3,10-5.2C296.9,278,298.3,279.6,300,279.9z"/>
	<path class="st4" d="M254.8,269.3c4.1-0.7,8.1-0.6,12.2-0.2c0.3,0.5,0.2,0.9-0.2,1.3c-1,0.7-2.1,0.9-3.2,1
		c-4.7,0.2-7.9,2.3-9.2,6.9c-1.7,5.8-5.8,8.6-11.6,9.3c-1.1,0-1.9-0.3-2.2-1.5c0-0.8,0.4-1.4,1.1-1.8c3.1-1.3,5.7-2.6,5.4-7.1
		c-0.2-2.7,3-4.6,3.7-7.4C252.1,269.1,253.5,269.8,254.8,269.3z"/>
	<path class="st5" d="M202.1,450.7c-4.4-2.6-9.6-3.7-13.3-7.6c2.4-3.3,0.7-6.4-0.4-9.5c-0.1-2.2,0.7-4,2.7-5.1
		c1.2-0.3,2.1,0.1,2.6,1.2c0.4,1,0.5,2,0.6,3c-0.6,5.8,3.1,9.6,7,12.8C203.6,447.4,203.9,448.6,202.1,450.7z"/>
	<path class="st6" d="M311.1,289.9c2.5,1.9,4.3,4.4,5.9,7c-1.7,3.4-4.8,4.4-9.1,2.3c-2.3-1.1-4.2-1.4-6.5-0.5
		c-1.1,0.1-2-0.1-2.7-1.1c-0.2-0.5-0.2-1-0.1-1.5c0.7-1.4,1.8-2.3,3.2-2.9c3-0.4,5.6-1.9,8-3.6C310.3,289.5,310.7,289.6,311.1,289.9
		z"/>
	<path class="st7" d="M172,309.8c1.6-1.7,3.3-3.3,4.9-5c1.8-0.8,3.7-1.5,5.7-2c2.1-0.3,4-2.1,6.3-1.3c0.3,0.2,0.5,0.5,0.5,0.8
		c1.1,4.1-5.5,2.1-4.6,5.7c0.8,3.8-1.7,4.8-4.3,6c-3.2,1.6-4.5-1.8-6.8-2.5c-0.6-0.2-1.2-0.6-1.6-1.2C172.1,310.2,172,310,172,309.8
		z"/>
	<path class="st8" d="M211.4,452.8c-2.5-0.2-5.3,0.5-7.2-2c1.5-1.8-0.7-3.2-1.2-3.8c-3.2-3.6-5.7-7.8-6.6-12.1
		c0.2-0.8,0.7-1.3,1.4-1.5c2.3-0.1,3.5,1.6,4.8,3.1c2.7,5.5,5.8,10.7,11.3,13.8c0.9,0.6,2.7,1.2,1.9,2.3
		C214.8,454.1,212.9,453.7,211.4,452.8z"/>
	<path class="st9" d="M311.1,289.9c-0.4,0-0.7,0-1.1,0.1c-3,1.1-5.7,2.7-9-0.4c-2.1-2-4.5,1.8-7,2.4c-1.9,0.7-3.8,1.3-5.8,0.5
		c-0.9-0.5-1.5-1.3-1.5-2.3c0.9-1.7,2.9-2.1,4.3-3.3c4.9,0,9.5-1.1,13.9-3C307.3,285.6,309.5,287.5,311.1,289.9z"/>
	<path class="st10" d="M301,298c2.4-1.9,4.2-2.5,7.2,0.1c2.2,1.9,6.2,2.2,8.8-1c2.5,2.5,4.3,5.4,5.3,8.9c-0.8,0.9-1.8,0.7-2.6,0.2
		c-3.7-2.3-7.8-2.9-12-3.7c-2-0.2-4-0.5-5.7-1.7C301.2,299.9,300.5,299.1,301,298z"/>
	<path class="st11" d="M282.2,431.1c-3.8-1.9-6.8,1-10.1,1.8c-4.3,1.4-8.7,2.2-13.2,2.4c-2.1,0.1-4.3,0.3-5.8-1.7
		c0.3-2.4,2.5-2.1,3.9-2.8c7.3,0,14.4-1,21.3-3.8c2.9-1.2,5.6-3,9-2.3c0.6,0.7,0.5,1.4-0.1,2.1C285.5,428.4,284.8,430.8,282.2,431.1
		z"/>
	<path class="st12" d="M287,425c-2.6,1-5.3,1.9-7.9,2.9c-0.9,0.8-1.9,0.5-2.9,0.4c-0.7-1.2-0.1-1.6,0.1-1.6
		c-1.1,0.5-3.1,0.7-5.2,0.1c-1.2-0.4-2.5-0.8-3.3-1.9c0.4-2.2,2.1-1.8,3.6-1.9c4.3,1.2,8.5,0.1,12.7-0.8c1.5-1.5,3.5-2,5.4-2.7
		c2.7,0.1,4.7-3,7.6-1.6c0.7,0.6,1.3,1.2,1.6,2.1c-3,1.3-5.9,2.7-8.9,4C289.1,424.7,288.1,424.9,287,425z"/>
	<path class="st13" d="M173.8,429.1c-2.3-1.5-3.5-3.8-4.8-6.2c-1-1.8,0.1-2.2,1.6-2.4c1.1,0,1.8-0.8,2.7-1.2
		c0.6-0.3,1.2-0.4,1.8-0.5c2.3-0.3,4.2,0.9,6.1,1.8c1,0.9,1.7,2,2.3,3.2c0.2,0.7,0.1,1.3-0.2,2c-1.4,0.7-3,1-4.5,1.5
		c-1.4,0.6-3.3-1.9-4.3,0.8C174.5,428.6,174.2,428.9,173.8,429.1z"/>
	<path class="st14" d="M197.1,434.9c0.2,3.8,5.1,5.9,3.5,10.3c2.9,0.7,4.1,3.8,6.9,4.7c-1,1.6-2.3,0.8-3.3,1
		c-0.7-0.1-1.4-0.1-2.1-0.2c-0.1-1.7-0.1-2.7-2-4.4c-3.6-3.3-8.3-7.1-7-13.3C195.1,432.2,196.2,433.3,197.1,434.9z"/>
	<path class="st15" d="M330,377.9c-1.2,8.6-4.3,16.4-9.9,23.1c-0.9-0.2-2,0.7-2.6-0.6c-0.2-0.6-0.2-1.3,0-1.9
		c1.3-2.9,2.9-5.6,3.8-8.7c0.5-1.1,1.1-2,2-2.9c1.9-1.7,2.7-4.1,3.9-6.2C327.9,379.6,327.9,377.7,330,377.9z"/>
	<path class="st16" d="M331.1,327.9c0,2.6,0,5.3,0,8.7c-4.4-3.8-5.5-9.2-9.4-12.2c-2.3-1.8-2.9-3.7-2.7-6.3c0.4-0.3,0.8-0.4,1.3-0.3
		c2.4,1.3,3.8,3.4,5.3,5.5c0.8,1.1,1.5,2.8,3.4,1.4c0.5-0.2,0.8,0,1.2,0.3C330.9,325.8,331.2,326.8,331.1,327.9z"/>
	<path class="st17" d="M156,340.6c0.3-4.3,1.6-8.2,3.8-11.9c0.5,0.2,0.8,0.5,1,0.9c0.8,3.6-2.5,7.1,0,10.7c-0.2,2.5-0.4,5-0.5,7.4
		c-0.2,1.3-0.6,2.4-1.7,3.2c-1.4-0.7-2.3,1.1-3.7,0.8C153.8,347.9,155.5,344.3,156,340.6z"/>
	<path class="st18" d="M308,301c5.1,0.8,9.8,2.5,14.3,4.9c1.4,1,1.8,2.5,2,4c-2.6,0.3-5.2-0.2-7.7-0.6c-3.5-2.1-6.9-4.3-10.7-6.1
		C305.3,301.2,307.4,301.8,308,301z"/>
	<path class="st19" d="M317,308.9c2.6-0.9,5-0.4,7.3,0.9c0.2,0.4,0.4,0.8,0.7,1.1c-0.5,2.2,1.7,4.5-0.4,6.6
		c-2.6,1.7-3.9-0.4-5.3-1.9c-1.6-1.8-4.9-2.3-4.6-5.7C315.2,309.1,315.9,308.5,317,308.9z"/>
	<path class="st20" d="M189.1,433.9c1.4,3.1,5.6,6.3-0.3,9.2c-2.9-0.9-4.8-3.1-6.8-5.1c0.8-1.7,4.3-0.9,3.8-3.9
		C186.8,433,187.9,433,189.1,433.9z"/>
	<path class="st21" d="M191.1,294.2c4.5-3.1,9.5-5.1,14.7-6.4c2.3-0.1,1.2,1.2,0.9,2.1c-0.3,0.4-0.6,0.7-1,0.9
		c-1.7,1-3.6,1.7-5.3,2.9c-1.3,0.9-2.7,1.6-4.2,2.2c-2.6,0.9-4.6,3-7.4,3.4c-0.5-0.1-0.9-0.3-1.2-0.7c-0.5-1-0.2-1.9,0.4-2.7l0,0
		C189,295.2,190.6,295.6,191.1,294.2z"/>
	<path class="st22" d="M211.4,452.8c1.2,0,2.5,0,4.1,0c-1.1-0.8-1.8-1.4-2.5-1.9c-1.5-2.2-5.1-4.1-1.2-7.3c2.7,3.1,5.5,6.1,9.7,7.1
		c1.6,0.4,3.2,0.8,4.7,1.4c0.7,0.4,1.1,0.9,1.1,1.7c-1.2,1.1-2.7,0.2-4,0.7C219.1,455,215.2,454.5,211.4,452.8z"/>
	<path class="st23" d="M332,345c2-2.4,0.5-5.2,1-7.7c1.5,10.3,1.8,20.6-1,30.7c-0.5,0.3-1,0.3-1.5-0.2c-1.2-1.9-0.4-3.8-0.1-5.7
		c0-4.4,0.8-8.7,0.2-13.1C330.6,347.5,330.8,346.1,332,345z"/>
	<path class="st24" d="M159.8,328.7c2.6-7.2,6.4-13.8,12.2-18.9c0,0,0.3,0.3,0.3,0.3c0.7,1.2,0.2,2.2-0.5,3.2
		c-1.2,1.7-1.7,3.7-2.9,5.4c-2.7,2.1-2.7,5.7-4.5,8.2c-2.1-0.7-2.1,2.8-4.2,2.1C160.1,328.9,159.9,328.8,159.8,328.7z"/>
	<path class="st25" d="M161.2,376.1c0.2,1.6-1.1,2.7-1.5,4.1c-1.2,4-1.8-0.4-2.6-0.1c-1.5-4.9-3.3-9.7-2.7-15
		c2.9,0.8,1.7,3.5,2.3,5.3c1.7,1.4,3.7,2.4,4.7,4.5C161.5,375.3,161.4,375.7,161.2,376.1z"/>
	<path class="st26" d="M156.1,370.9c-2.1-1.5,0.1-4.3-1.8-5.9c-0.1-8.2-1.5-16.5,1.7-24.5c1.2,3.8-2.6,7.6,0.1,11.3
		C157.7,355.6,157.7,367.3,156.1,370.9z"/>
	<path class="st27" d="M162.1,406.9c-0.2-0.3-0.2-0.6-0.2-0.9c0.1-0.2,0.2-0.4,0.3-0.6c1.9-2,3.9-2.2,6.1-0.4c2.3,1.9,5.1,2.9,8,3.8
		c0.7,0.2,1.4,0.4,2,0.8c0.8,0.7,1.3,1.5,0.8,2.6c-1.2,1-2.5,1.4-4.1,1.2c-3.7-1.3-6.6-5.3-11.3-2.9
		C161.9,409.9,163.2,407.8,162.1,406.9z"/>
	<path class="st28" d="M260,441.9c1.6,0.2,3.1,0.7,4.1,2.1c-1.9,3.2-5.2,3.8-8.3,4.8c-0.4,0.4-0.8,0.4-1.1,0c-0.6-3,1.4-5.1,2.7-7.4
		C258.4,441,259.3,441.1,260,441.9z"/>
	<path class="st29" d="M186.1,434.9c0.5,3.5-2.6,2.3-4.2,3.1c-1.7-0.9-3-2.2-3.9-3.9c0-3.2,3.8-2.8,4.7-5.1c0.4-0.3,0.8-0.3,1.3-0.3
		c0.8,0.5,1.3,1.2,1.6,2.1C186.4,432,185.2,433.6,186.1,434.9z"/>
	<path class="st30" d="M330,377.9c-2.5,3.1-2.4,7.7-6.1,9.9c-1.4-1.7-0.4-3.4,0-5c0.8-2,1-4.2,2.2-6.1c2.1-1.9,0.1-5.6,3.2-7.1
		c1.5,0.3,1.6,1.5,1.7,2.7c0.2,1.2-0.4,2.3-0.1,3.4C330.9,376.7,330.8,377.4,330,377.9z"/>
	<path class="st31" d="M188,296c0,1,0,2,0,3c-1,2.3-3.3,3.3-5,5c-1.9,1.3-4.1,1.1-6.2,0.9C179.9,300.9,183.9,298.3,188,296z"/>
	<path class="st32" d="M164.1,394.9c2.1,1.1,2.9,3.2,3.9,5.1c0.3,0.3,0.4,0.5,0.3,0.8c-0.1,0.2-0.2,0.4-0.3,0.4
		c-6.1-3.5-4.2,2.8-5.8,4.7c0,0-0.3,0.1-0.3,0.1c-0.3-0.7-0.6-1.4-0.8-2.1c-1.3-2.2,0.4-4.8-1-6.9c0-0.6-0.1-1.2-0.1-1.9
		C161.1,392.6,161.7,392.6,164.1,394.9z"/>
	<path class="st33" d="M317,404.9c-2.8,3.6-5.5,7.3-9.9,9.1c-0.6,0.4-1.2,0.6-1.9,0.3c-1-1.3,0.2-2,0.7-2.9c0.3-0.4,0.5-0.7,0.8-1
		c1.5-1.2,3-2.5,4.2-4c2-1,2.8-3.8,5.5-3.8C317.5,403.1,317.8,403.8,317,404.9z"/>
	<path class="st34" d="M183.1,428.9c0.6,4-4,2.8-5.1,5.1c-1.7-1.3-3.3-2.8-4.2-4.9c0,0,0.3-0.3,0.3-0.3c1.6-0.8,3.5,0,5-1.2
		C180.4,428.2,181.7,428.7,183.1,428.9z"/>
	<path class="st35" d="M215,282.9c4.1-2.8,8.3-5.5,13.1-6.9c0.4-0.4,0.8-0.4,1.2,0c0.1,1.5-1,2-2,2.6c-2.8,1.3-5.5,2.7-7.8,4.9
		c-0.9,0.7-1.7,1.5-2.7,2.1c-0.9,0.3-1.9,0.3-2.7-0.3C213.3,284.1,214.4,283.6,215,282.9z"/>
	<path class="st36" d="M300,279.9c-1.7-0.3-3.3-0.7-5-1c-2.2-0.2-4.5,0.3-6.5-1.2c-0.3-0.7-0.3-1.4-0.1-2.2c0.7-1,1.5-1.4,2.6-0.6
		C294.4,276,297.4,277.6,300,279.9z"/>
	<path class="st37" d="M254.8,269.3c-1.1,1.1-2.5,0.5-3.8,0.9c-1.5,1.8-3.7,2.1-5.8,2.8c-2.4,0.3-4.6,1-7,1.5c-0.5,0-1-0.1-1.4-0.3
		c-0.3-0.5-0.3-0.9,0.1-1.3C242.7,270.4,248.6,269,254.8,269.3z"/>
	<path class="st38" d="M250,450.9c-4.3,2.3-9.1,2.8-13.9,3c-1,0.4-1.3-0.2-1.5-1.1c0.2-1.3,1.1-1.6,2.2-1.7c3,0.3,5.9-0.6,8.8-1.2
		C247.2,449.7,248.8,449.5,250,450.9z"/>
	<path class="st39" d="M291.1,274.9c-0.8,0.1-1.6,0.2-2.1,1c-2.8,2-4.1-1.2-6.2-1.7c-1.1-1-2.7-1.2-3.8-2.2c-0.2-0.4-0.2-0.8,0-1.2
		C283.6,270.8,287.3,272.8,291.1,274.9z"/>
	<path class="st40" d="M250,450.9c-1.7,0-3.3,0-5,0c-0.1-0.2-0.1-0.4-0.2-0.6c1.3-2.1,3.8-2.8,5.4-4.6c1.9,0.6,3.1,2.2,4.8,3.1
		c0.3,0,0.5,0,0.8,0.1C254.3,450.6,252.1,450.7,250,450.9z"/>
	<path class="st41" d="M235,452.8c0.4,0.4,0.7,0.7,1.1,1.1c-4.2,1.7-8.6,0.5-12.9,0.6c1.1-1,2.6-0.5,3.8-0.8c0.8-1.6,2.2-1.8,3.7-2
		c0.5,0,1,0,1.5,0C233.3,451.8,234.3,452,235,452.8z"/>
	<path class="st42" d="M305,413.9c0.7,0,1.4,0.1,2.1,0.1c-2.2,2.7-5.5,3.9-8.2,5.9c-0.8,0-1.5-0.2-1.8-1c0.5-1.6,1.8-2.5,3.1-3.3
		c0.5-0.4,1.1-0.7,1.6-1c0.7-0.4,1.4-0.8,2.2-1C304.4,413.4,304.7,413.6,305,413.9z"/>
	<path class="st43" d="M279.1,270.9c0,0.4,0,0.7,0,1.1c-0.2,0.2-0.3,0.3-0.5,0.5c-2.2,1-4.2-0.1-6.3-0.6c-1.3-0.5-2.7-0.6-4.1-1
		c-0.4-0.2-0.8-0.5-1.1-0.9c0-0.3,0-0.6,0-0.9C271.1,269.2,275.3,268.5,279.1,270.9z"/>
	<path class="st44" d="M324,316.9c1.6-1.8-1-4.2,1-5.9c1.1,0.6,1,1.7,1.1,2.7c0.6,1.8,0.9,3.7,2,5.2l0-0.1c0.5,1,0.6,2,0.1,3.1
		C325.1,321.7,323.3,320.4,324,316.9z"/>
	<path class="st45" d="M162.1,406.9c0.7,1,1.3,2,2,3.1c2.2,1.6,2.3,4.4,3.6,6.5c0.5,1.1,1,2.1,1,3.3c-0.1,0.5-0.3,0.9-0.7,1.2
		C164.6,416.9,162.7,412.2,162.1,406.9z"/>
	<path class="st46" d="M164.1,394.9c-1.4-0.5-2.9-1.7-4.2,0.2c-1.3-1.9-0.7-4-0.7-6c3.2-1.5,2.3,2.2,3.8,2.9
		C163.4,393,163.8,393.9,164.1,394.9z"/>
	<path class="st47" d="M267,442.8c3.1-2.7,5.9-5.8,10.1-6.9C274.2,438.9,271.3,441.9,267,442.8z"/>
	<path class="st48" d="M206.1,290c0.2-0.8,0.9-1.6-0.3-2.2c1.3-0.6,2.7-1.2,4-1.8c1-0.6,2-0.7,3.1-0.2
		C212.4,289.9,209.8,290.8,206.1,290z"/>
	<path class="st49" d="M317,404.9c0-0.8-0.2-1.5-1-2c-0.3-0.4-0.5-0.8-0.4-1.3c0.5-1,1.2-1.5,2.3-0.8c0.8-0.1,1.6-0.9,2.3,0.2
		C319,402.3,318.9,404.3,317,404.9z"/>
	<path class="st50" d="M237,272.8c0,0.4,0,0.8,0.1,1.1c-2.3,1.8-4.7,3.7-7.9,2.1c-0.3,0-0.7-0.1-1-0.1
		C230.9,274.4,233.7,272.9,237,272.8z"/>
	<path class="st51" d="M163,392c-1.6-0.5-1.7-3-3.8-2.9c-0.2-0.7-1.3-1.3-0.2-2.2C161.4,387.8,163,389.3,163,392z"/>
	<path class="st52" d="M330,372.9c0-1.1,0.2-2.3-1-3c-0.3-0.3-0.4-0.7-0.3-1.1c0.3-0.6,0.7-1,1.2-1.3c0.4-0.1,0.8,0,1.1,0.3
		c0.4,0,0.7,0.1,1.1,0.1c-0.1,1-0.2,2.1-0.3,3.1C331.2,371.7,331.9,373.5,330,372.9z"/>
	<path class="st53" d="M168,421c0.1-0.4,0.1-0.8,0.2-1.1c0.5-1.1,1.3-1.5,2.5-1.3c1.3,1,1.4,2.1,0.4,3.3c-1.1-0.5-2-0.7-2,1
		C168.7,422.3,168.3,421.6,168,421z"/>
	<path class="st54" d="M213.2,286c-1.1,0-2.2,0-3.3-0.1c1.7-1.1,3-2.8,5.1-3.1c-0.3,0.7-0.6,1.4-1,2.2c0.3,0.2,0.4,0.4,0.4,0.6
		c0,0.2-0.1,0.4-0.1,0.4C213.9,286.3,213.5,286.3,213.2,286z"/>
	<path class="st55" d="M328,321.9c0-1,0.1-2.1,0.1-3.1c1.5,1.7,2.1,3.8,2,6.1c-0.4,0-0.7,0-1.1,0C328,324.2,327.4,323.3,328,321.9z"
		/>
	<path class="st56" d="M330,372.9c0.6-0.6,1.2-1.3,1.7-1.9c0.5,1.8,0.1,3.4-0.9,4.8C329.8,375.1,330,374,330,372.9z"/>
	<path class="st46" d="M160.1,396.9c1.9,2.1,0.8,4.6,1,6.9C159.7,401.7,160.1,399.3,160.1,396.9z"/>
	<path class="st55" d="M328.2,318.9c-1.9-1.3-2.2-3.1-2-5.2C327.4,315.2,328.1,316.9,328.2,318.9z"/>
	<path class="st57" d="M287,425c0.7-1.2,1.8-1.1,3-1.1c-0.5,1.5-1.6,2.4-3,3C287,426.2,287,425.6,287,425z"/>
	<path class="st31" d="M191.1,294.2c0.6,3.3-2.1,1.1-3,1.8C188.8,294.9,189.9,294.4,191.1,294.2z"/>
	<path class="st58" d="M277.2,436.1c0.4-1.6,1.5-2.6,3-3C280,434.8,279,435.8,277.2,436.1z"/>
	<path class="st59" d="M332,345c0,6,0,11.9,0,17.9c-0.4,0.4-0.9,0.5-1.3,0.1c-3-6.8-4.3-14.2-7.3-20.9c-0.2-1.2,0-2.6-1.3-3.5
		c-0.3-0.3-0.6-0.6-0.9-1c-0.5-2-3.7-4.4,0.8-5.6C326.1,335.7,330.1,339.6,332,345z"/>
	<path class="st60" d="M311,314c1.5,3.9,4.3,6.9,7.3,9.7c2.1,2,3.9,4.1,3.7,7.2c-5-2.4-7.6-7.3-11.6-10.7c-1.1-1.8-2.7-3.2-4.3-4.6
		c-1.5-1.2-3-2.6-2-4.9C307.3,309.9,309,312.2,311,314z"/>
	<path class="st23" d="M311,319.9c4.3,3,7.6,7,11,11c0,0.3,0,0.7,0,1c-3.5,2,0.7,4,0,6c-1,0.5-1.8,0.1-2.6-0.4c-0.6-0.4-1-1-1.2-1.7
		c-1.2-4.1-3-7.9-6.2-10.9c-1.1-1-2.1-2-2.3-3.6C309.8,320.6,310.3,320.1,311,319.9z"/>
	<path class="st61" d="M315,309.9c0.3,3,4,2.6,5,5c0.6,1,0.8,2,0,3c-0.3,0-0.7,0-1,0c-2-1.3-4-2.7-6-4c-1-2.6-5.8-2.1-5.1-6.2
		c1.4-0.9,2.8-0.2,4.3,0C313.5,308.1,314.6,308.6,315,309.9z"/>
	<path class="st62" d="M308,308c0.7,2.8,4.9,2.7,5,6c-0.7-0.3-1.3-0.7-2-1c-3.1-0.7-5.5-2.4-7.3-5c0-0.9,0.5-1.3,1.3-1.6
		C306.4,306.1,307.5,306.5,308,308z"/>
	<path class="st63" d="M304,308c2.3,1.7,4.7,3.3,7,5c0,0.3,0,0.7,0,1c-2.8,0-4.3-2.8-7-3c-0.9,0.3-1.3-0.2-1.6-0.9
		c-0.2-0.7-0.1-1.4,0.3-2.1C303.2,307.6,303.6,307.7,304,308z"/>
	<path class="st64" d="M253,432.9c3.9,2,8.1,1.1,12.1,0.6c2.3-0.3,4.6-0.6,6.9-0.6c-1,3.5-4.6,2.8-6.5,2.7c-4.2-0.1-5,2.1-5.5,5.3
		c-3.1,0.7-5.7-0.5-8.3-2c-1-1.9-2.6-3.3-4.5-4.2c-0.8-0.7-1.6-1.3-1.3-2.5C248.6,429.9,250.9,430.5,253,432.9z"/>
	<path class="st65" d="M252,437.9c2.7,1,5.3,2,8,3c0,0.3,0,0.7,0,1c-1,0-2,0-3,0c-1.3,0.7-2.4,0-3.6-0.3c-2.9-1.1-6-1.8-8.7-3.1
		c-2-1-4.8-1.6-4.6-4.8C244.9,432.8,248.5,435.3,252,437.9z"/>
	<path class="st66" d="M165.1,376.9c-3.8,1-1.2-2.2-2-3.1c-1.2-1.4-1-2.7,0-4c2.6-1,1.5-3.3,1.9-5.1c0-0.9,0.2-1.9,0.5-2.7
		c1.4-2.9,2.5-6,4.7-8.5c1.3-1,1.9-2.3,2.2-3.9c0.7-1.7,1.2-3.6,3.5-3.8c1.1,0.4,2,1.2,2.6,2.2c0,2.5-2.4,4.2-2.5,6.7
		c-0.2,0.6-0.5,1.2-0.8,1.8c-0.5,1-0.9,2-1.3,3c-1.5,5.5-6.2,9.6-6.7,15.5c-0.1,0.5-0.4,0.9-0.7,1.3
		C166,376.6,165.5,376.8,165.1,376.9z"/>
	<path class="st67" d="M172.1,397.8c-0.7-0.6-1.3-1.3-2-1.9c-1.4-2.2-3.9-3.8-4.1-6.7c-1.9-4.4-0.5-8.9,0.1-13.3l0,0
		c0.6-0.6,1.3-0.6,2.1-0.3c2.7,5.1,3.6,10.9,6.5,15.9c0.3,0.3,0.6,0.7,0.8,1.1c0.3,0.7,0.4,1.4,0.2,2.1
		C174.9,396.3,173.9,397.5,172.1,397.8z"/>
	<path class="st68" d="M173.9,405.2c0.1-1.1,0.1-2.3,0.2-3.4c0.4-0.2,0.9-0.3,1.3-0.1c3.2,1.5,5.4,4.1,8,6.2c0.5,0.5,0.9,1,1.2,1.6
		c0.2,1.7,2.5,2.7,1.4,4.7c-1.2,0.6-2.2,0.2-3.3-0.3c-2.2-0.9-3-3.3-4.8-4.6C176.4,408.1,174.4,407.4,173.9,405.2z"/>
	<path class="st69" d="M175.1,401.8c-0.3,0-0.7,0-1-0.1c-0.6-1.3-2.2-2.2-2-3.9c0.7-1.3,1.7-2.3,3.1-2.9c0.4-0.3,0.8-0.3,1.2-0.1
		c0.7,0.6,1.1,1.3,1.6,2.1c0.5,0.8,0.9,1.6,0.9,2.6C178.5,401.6,177,402,175.1,401.8z"/>
	<path class="st70" d="M166.1,375.9c0.2,4.7-0.5,9.5,0.9,14.1c-1.1,0.4-1.4-0.5-1.9-1.1c-2.6-4,0.2-8,0-12
		C165.4,376.6,165.7,376.3,166.1,375.9z"/>
	<path class="st71" d="M173.9,405.2c1.4,1.2,3.4,1.8,4.2,3.7c0.3,0.3,0.4,0.5,0.3,0.7c-0.1,0.2-0.2,0.3-0.4,0.3
		c-0.6,0-1.3,0-1.9-0.1c-2.8-2.9-7.6-4-8-9c0-0.3,0-0.6,0-0.9C170,401.7,172,403.4,173.9,405.2z"/>
	<path class="st72" d="M163.9,369.8c-1.2,1.1-0.8,2.6-0.9,4c-0.6,0.8-1.2,1.5-1.9,2.3c0-0.4-0.1-0.8-0.1-1.2c-1.7-2.1-0.7-4,0.2-6
		c0.8-1,1.3-2.5,3.1-1.9C164.7,368,165,369,163.9,369.8z"/>
	<path class="st51" d="M165.1,389c0.6,0.4,1.3,0.7,1.9,1.1c0.1,2.4,3.1,3.4,3.1,5.9C167.4,394.3,165.6,392.1,165.1,389z"/>
	<path class="st73" d="M162.1,383.6c-0.1,0.7,0.2,1.5-0.7,1.6c-0.2,0-0.7-0.6-0.7-1c0-0.4,0.3-1.1,0.6-1.3
		C162.1,382.4,161.9,383.3,162.1,383.6z"/>
	<path class="st74" d="M289,278c2.1-0.4,4.2-0.9,6,1c-1.8,4.2-6.2,4.3-9.5,5.8c-1.3,0.6-2.8,0.6-3.5,2.1c-0.4,0.3-0.9,0.4-1.4,0.3
		c-1.8-0.6-3.1-1.7-3.5-3.6c-0.1-0.8,0-1.6,0.3-2.3C280.5,277.4,284.7,277.6,289,278z"/>
	<path class="st75" d="M281,287c0.3,0,0.7,0,1,0c3,0,6,0,9,0c-0.7,1.8-1.6,3.4-4,3c-2.5,2.1-5.3,0.1-8,0.5c-1.4-0.3-2.4-1-2.2-2.7
		C278.1,286.6,279.4,286,281,287z"/>
	<path class="st76" d="M245,272c1.9-0.8,3.9-1.8,6-1.8c0,2.3-4,12.6-5.3,14c-1.1,1.2-2.4,0.7-3.7,0.8c-1.5-1.8-2.5-3.7-1.8-6
		c0.5-1.4,1.6-2,2.7-2.8c1.1-0.7,1.5-1.8,1.5-3.1C244.5,272.6,244.7,272.3,245,272z"/>
	<path class="st77" d="M267,270c0.3,0,0.7,0,1,0c-3,3.8-6.5,7-11.3,8.7c-1.4,0.4-2.6,0.3-3.7-0.7c0.1-0.1,0.2-0.3,0.2-0.4
		C255.2,270.1,261.1,270.1,267,270z"/>
	<path class="st78" d="M253,278c1.3,0,2.7,0,4,0c0.1,0.2,0.3,0.4,0.4,0.6c0.3,3-0.4,5.7-2.8,7.7c-0.4,0.3-0.8,0.5-1.2,0.6
		c-1.5,0.5-2.9,1.1-4.4,1.7c-0.7,0.2-1.3,0.3-2,0.3c-0.5,0-0.9-0.1-1.4-0.3c-1-0.5-2.3-0.6-2.7-1.9C247.8,285.4,252.2,283.7,253,278
		z"/>
	<path class="st79" d="M243,286.6c1.1,0.3,2.5-0.2,3.1,1.3c-5.6,3-11.2,5.5-17.7,2.7c-0.5-0.3-0.8-0.8-0.8-1.4
		c1.1-3.2,3.6-4.4,6.7-4.5c2.3,0.1,4.7-0.5,6.6,1.4C241.4,287,242.2,287,243,286.6z"/>
	<path class="st80" d="M241,286c-2.3,0-4.6-0.1-6.9-0.1c-0.9-1-2.5,0.1-3.2-1.2c0.1-0.8,0.6-1.3,1.3-1.6c4,0.8,5.6-3.5,8.9-4.2
		c-1,2.2,1.9,3.8,1,6C241.7,285.3,241.3,285.7,241,286z"/>
	<path class="st81" d="M186.1,434.9c-2.9-0.7-0.1-2.8-1-4c-1.5-4.4,1.8-4.2,4.4-4.7c0.9,0.1,1.5,0.4,2,1.2c0.1,0.6,0,1-0.4,1.5
		c-0.7,1.7-1.3,3.3-2,5C188,433.9,186.8,433.7,186.1,434.9z"/>
	<path class="st82" d="M197.1,434.9c-1.3-0.7-2.7-1.3-4-2c0-1,0-2,0-3c1.2-1.1,2.5-1.2,3.9-0.5c1.3,1.3,2.3,2.6,1.1,4.5
		C197.7,434.2,197.4,434.6,197.1,434.9z"/>
	<path class="st83" d="M197.1,429.9c-1.3,0-2.7,0-4,0c-0.4-0.8-1.2-1-2-1c0-0.3,0-0.7,0-1c1.3-1.3,2.9-1.3,4.5-1
		c0.8,0.2,1.4,0.7,1.8,1.5C197.5,429,197.4,429.5,197.1,429.9z"/>
	<path class="st84" d="M294,291c1.7-1,3.3-2.1,5-3c0.7-0.4,1.5-0.5,2.3-0.7c1.4,5.5,5.8,1.8,8.6,2.7c-1.8,3.1-4.6,4.2-8,4
		c-1.5-1.2-3.3-0.8-5-1C295.7,292.8,293.9,293.2,294,291z"/>
	<path class="st85" d="M294,291c1.5,1.6,3.2,1.1,4.9,0.5c2.3-0.7,2.8,0.7,3.1,2.5c-1,0.6-1.4,2.2-3,2c-3.5-0.5-7.1-0.4-10.6-1.3
		c-0.5-0.3-0.8-0.7-0.9-1.2c0-0.5,0.1-1,0.5-1.4C290.1,292.3,292,291.3,294,291z"/>
	<path class="st86" d="M288,294c3.7,0.5,7.8-1.3,11,2c0,0.3,0,0.7,0,1c-0.8,1-1.8,1.6-3.1,1.6c-2.1-0.4-4-1.5-6-2
		C289,296,287.7,295.6,288,294z"/>
	<path class="st87" d="M296,298c1-0.3,2-0.7,3-1c0.4,0.8,1.2,1,2,1c0.3,0.7,0.7,1.3,1,2c0.2,2.2-1.7,2-2.9,2.6
		c-2,0.3-3.2-0.9-4.2-2.3C294.5,299.1,295.1,298.4,296,298z"/>
	<path class="st88" d="M180.1,313.9c1.4-2.3,5.8-3.3,3.2-7.6c-0.6-1,1.7-1,2.6-1.5c1.3-0.8,3.4-0.4,3.2-2.8c0.4-1.7,1.8-2.2,3.2-2.8
		c0.5-0.2,1-0.2,1.5-0.3c2.8,0.3,3.5,1.6,2.2,4.1c-1.4,1.7-2.1,3.8-3.2,5.6c-1.9,3.1-3.2,6.3-2.8,10.1c0.2,1.4,0.1,3-1.7,3.6
		c-3.6-0.6-1.5-4.2-3.2-5.8c-2.5-0.4-3.4,3.8-6.4,2.2C178,316.8,178.7,315.3,180.1,313.9z"/>
	<path class="st89" d="M171.1,312.9c0.4-0.9,0.8-1.9,1.2-2.8c0.6,0.3,1.2,0.6,1.8,0.8c2.3,1.3,1.2,3.5,1.2,5.3
		c0.1,2,0.5,3.4,2.8,3.5c0.2,4.4-2.5,6.5-6.2,7.8c-0.5-0.1-0.9-0.3-1.3-0.6c-0.7-1-1.1-2.1-1.4-3.3
		C168.5,319.8,172.2,316.8,171.1,312.9z"/>
	<path class="st90" d="M178.1,319.9c-2.9,0.9-3.7-0.6-4-3.2c-0.2-2,1.1-3.9,0-5.8c0.7-0.2,2.1-0.9,2.1-0.1c0.1,2.9,2.4,2.4,3.9,3.1
		c-0.3,1.7-0.7,3.3-1,5C179.3,319.9,179,320.2,178.1,319.9z"/>
	<path class="st91" d="M192.2,300c-1,0.7-2.1,1.3-3.1,2c-2,0.6-4,1.3-6,1.9c0.8-2.5,2.5-4.1,5-5c0.3,0,0.6,0,1,0
		C190.2,299,191.4,298.8,192.2,300z"/>
	<path class="st92" d="M212.1,443.9c-3.3,2.9,1.7,4.5,1,7c-5.7-3.1-9.5-7.6-11-14c0.5-0.6,1.2-0.7,1.9-0.6c2.5,0.7,4.2,2.7,6.4,4
		C211.4,441.3,212.6,442.2,212.1,443.9z"/>
	<path class="st93" d="M204.1,436.9c-0.7,0-1.3,0-2,0c-1.3-1-2.7-2-4-3c-0.3-1.3-0.7-2.7-1-4c0-0.3,0-0.7,0-1c1-0.6,1.7,0,2.5,0.5
		c1.8,2,4.3,3.4,5,6.2C204.6,436.2,204.4,436.6,204.1,436.9z"/>
	<path class="st94" d="M288,292c0,0.3,0,0.7,0,1c-3.5,2.4-7.3,2.2-11.2,1.5c-2,0-4.1,0.4-5.1-2c1.5-3.4,5.1-0.9,7.3-2.4
		c2.7-2.6,5.3,1,8,0C287.4,290.6,287.7,291.3,288,292z"/>
	<path class="st95" d="M299,302c1-0.7,2-1.3,3-2c2,0.3,3.9,1.3,6,1c-0.7,0.7-1.3,1.3-2,2c-0.5,0.6-1.1,0.8-1.9,0.9
		c-0.5,0-1,0-1.4-0.1C301.4,303.4,300,303.2,299,302z"/>
	<path class="st96" d="M276.1,427.8c1,0,2,0.1,3,0.1c-6.9,3.4-14.3,4.5-22,4c-1.7-0.4-3.5,0.4-5.2-0.2c-0.9-0.3-2.5-0.3-1.6-2.1
		c4-2,8.3-0.7,12.5-1c2.1-0.2,4.2,0.1,6.3-0.4c1.3-0.4,2.7-0.7,4-1C274.1,426.9,275.2,427,276.1,427.8z"/>
	<path class="st97" d="M250.1,429.9c1.9,2.3,5.1-0.2,7,2c-1.2,0.7-2.6,1.2-4,1c-2.3-0.1-4.6-2.3-6.9-0.1c-0.4,0.3-0.8,0.4-1.2,0.3
		c-1.4-0.6-2.5-1.9-3.9-2.5c-1.4-1.1-3.8-1.5-2.7-4.1c1.7-1,3.4,0,5.2,0.1C245.9,427.2,248.7,427.1,250.1,429.9z"/>
	<path class="st98" d="M271.9,423.7c-1.4,0.2-3-0.4-4,1.1c-1.5,1.6-3.4,1.3-5.2,1.1c-1.9-0.8-4.3-0.4-6.4-3.3
		c6.6,0.7,7-6.9,12.3-7.8c0.7,0,1.4,0,2.1,0.2c3.8,0.8,1.6,4.7,3.4,6.6c0.2,0.4,0.2,0.9,0.2,1.3
		C273.7,423.7,272.9,423.8,271.9,423.7z"/>
	<path class="st99" d="M262,424.6c2,0.1,4,0.2,6,0.3c1.1,0.1,2.4-0.1,3.1,1c-0.4,1.6-1.4,2.4-2.9,2.9c-5.1,0.3-10.3,0.1-15.4,0.1
		c-2.5,0.2-4.8-0.8-7.1-1.5c-1.4-0.8-2.9-1.5-2.4-3.6c1-1,2.3-1.1,3.6-0.9c1.2,0.1,2.4,0.6,3.6,0.7c1.4,0.1,2.8,0.1,4.2,0.4
		c1.7,0.5,3.4,1.3,5.3,0.6C260.6,424.4,261.3,424.4,262,424.6z"/>
	<path class="st100" d="M301,415.9c-1.3,1-2.6,2-4,3c-2.7-1.9-4.4,2.8-7,1.1c-0.3-0.4-0.4-0.8-0.3-1.3c1.6-2.1,2.8-4.6,5.6-5.4
		C297.5,413.5,299.3,414.5,301,415.9z"/>
	<path class="st101" d="M271.9,423.7c0.7-0.3,1.4-0.6,2.1-0.9c2-1.4,4.3-2,6.7-1.7c1.5,0.4,3.1,0.5,4.2,1.8
		C280.7,424.2,276.5,426,271.9,423.7z"/>
	<path class="st102" d="M285,422.9c-1.4-0.2-3,0.5-4-1c-0.3-1.4,0.9-1.7,1.8-2.1c2.4-0.3,4.6-2.4,7.3-0.8c0,0.3,0,0.7,0,1
		C288.9,421.9,286.3,421.2,285,422.9z"/>
	<path class="st103" d="M269.1,427.8c0.7-0.6,1.3-1.3,2-1.9c2.3,0,4.6,0,6.9,0c0.1,1.5-1.7,0.9-1.9,1.9c-1,0.1-2,0.1-2.9,0.2
		C271.8,428.5,270.4,428.8,269.1,427.8z"/>
	<path class="st104" d="M190.1,426.9c-1.6,1.5-5.5,0-5,4c-0.8-0.4-1-1.2-1-2c-1-0.8-2.2-1.5-1-3c0-0.7,0-1.3,0-2
		c-0.1-3.5,2.9-2,4.6-2.8c1.7,0.2,2.8,1.2,3.3,2.8C191.1,425.1,190.9,426.1,190.1,426.9z"/>
	<path class="st105" d="M171.1,421.9c0-1.1,0.2-2.3-1-3c-2.4-1.5-2.6-3.2-0.7-5.3c4.7-0.6,7.3,4,11.5,4.7c0.4,0.3,0.7,0.7,0.8,1.2
		c0,0.5-0.2,1-0.5,1.4c-2.2,0.9-3.8-1.9-6-1c-0.7-0.1-1.3-2.4-2,0C173,421.2,172.4,421.9,171.1,421.9z"/>
	<path class="st106" d="M179.1,427.9c-1,3.9-3.1,1.7-4.9,0.9c-0.8-1-0.9-2.9-0.4-3.1c1.8-0.7,3.6,0.5,5.3,1.2
		c0.2,0.2,0.3,0.4,0.2,0.7C179.2,427.8,179.2,427.9,179.1,427.9z"/>
	<path class="st107" d="M181,420.9c0-0.3,0-0.7,0-1c0.7-0.7,0.3-2.5,2.1-2.2c1.4,0.8,3.1,1.1,4.2,2.3c0.3,0.7,0.2,1.4-0.3,1.9
		c-1.2,1-3.5-0.2-4,2C181.8,423.4,181.1,422.3,181,420.9z"/>
	<path class="st108" d="M179.1,427.9c0-0.3,0-0.7,0-1c1.1-1.4,2.4-1.9,4-1c0.3,1,0.7,2,1,3c-0.3,0-0.7,0-1,0
		C181.5,429.4,180.1,429.4,179.1,427.9z"/>
	<path class="st53" d="M173.1,419.9c-1.1-0.8-1.5-1.9-2-3.8c2,1.3,3.8,1.6,4,3.8C174.4,419.9,173.7,419.9,173.1,419.9z"/>
	<path class="st109" d="M317.9,400.8c-0.8,0.1-1.5,0.3-1.9,1.1c-1.6,1.1-2.2,0.1-2.8-1.2c-0.8-2.6,1.1-4.8,1.1-7.3
		c0.4-1.6,1.4-3.1,1-4.9c0-0.7,0.1-1.3,0.6-1.9c0.4-0.2,0.9-0.3,1.3-0.3c0.5,0.1,0.9,0.3,1.2,0.7c1.2,2.4,0.1,5,0.6,7.4
		c0.1,1.6-1.1,2.9-1,4.5C318,399.6,317.9,400.2,317.9,400.8z"/>
	<path class="st110" d="M318,398.9c-1.8-1.3,0.3-2.7,0-4c1.4-1.6,1-4.4,3.6-5.2c0.2,0.1,0.4,0.2,0.6,0.4
		C321.7,393.5,320.1,396.3,318,398.9z"/>
	<path class="st111" d="M325,382.9c-0.4,1.6-0.7,3.3-1.1,4.9c-0.6,0.7-1.2,1.5-1.8,2.2c0,0-0.1-0.2-0.1-0.2c-1.7-2.8-0.4-5,1.5-7.1
		C324,382.6,324.5,382.6,325,382.9z"/>
	<path class="st112" d="M320,317.9c0-1,0-2,0-3c1.3,0.7,1.5,3.6,4,2c0.1,2.7,2.8,3.3,4,5c0.3,1,0.7,2,1,3c-0.1,0.9,0.3,2.1-0.9,2.5
		c-1,0.3-1.4-0.6-1.9-1.2C324.1,323.5,322.1,320.7,320,317.9z"/>
	<path class="st113" d="M158.1,350.9c0.3-1,0.7-2,1-3c1.8-3.2,4.1-6.4,1.4-10.2c-0.3-1-0.3-1.9,0.3-2.8c1.1-0.9,2.2-0.6,3.4-0.3
		c1.1,0.2,2.1,0.7,2.5-1c0.3-1.3,0.2-2.9,1.5-3.8c0.7,0.2,1,0.1,0.6-0.7c0.4-1.1,0.5-2.6,2.3-2.2l0,0c1.9,1,3.3,2.4,2.9,4.8
		c-0.7,3.6-4.5,5.5-4.8,9.2c-0.4,3.6-4.8,5.8-3.3,10c-0.4,2.2-1.6,4-3.3,5.4c-4.4,1.9-3.9-2-4.9-4.2
		C157.6,351.8,157.7,351.3,158.1,350.9z"/>
	<path class="st114" d="M158.1,350.9c0,0.3,0,0.7,0,1c0.8,3.1,1.6,6.3,1.4,9.5c0,2.4-0.7,5.1,2.9,5.6c0.2,0.7,0.2,1.3-0.3,1.9
		c-0.3,2-0.7,3.9-1,5.9c-2.4-0.4-3.5-2.3-5-3.9c0-6.3-0.8-12.7,0-19c0.2-0.7,0.3-1.4,0.5-2.2C157.1,350.2,157.6,350.6,158.1,350.9z"
		/>
	<path class="st115" d="M161.1,334.9c0,1,0,2,0,3c0.7,1.2,0.7,2-1,2c-2.2-1.6-2.5-3.6-1.1-5.8c1-1.6,1.1-3.3,1.2-5.1
		c1.5-0.3,1.5-3.5,3.9-2.1C164.9,330.3,164.1,333,161.1,334.9z"/>
	<path class="st116" d="M160.1,339.9c0.8-0.4,1-1.2,1-2c3.2,3,2.5,6.8-2,10C159.2,345.2,158.5,342.5,160.1,339.9z"/>
	<path class="st117" d="M304,303c0.7,0,1.3,0,2,0c4.6,0.3,8,2.8,11,6c-0.7,0.3-1.3,0.7-2,1c-1-0.3-2-0.7-3-1
		c-1.7-1.3-3.4-2.3-5.4-3.1C305.4,305.3,303.7,305,304,303z"/>
	<path class="st118" d="M231.1,284.8c1,0.4,2.3-0.1,3,1.1c-2.8-0.5-4,2-6,3c-4,2-8.4,1.6-12.6,2.3c-4.2,0.7-8.6,1-11.1,5.2
		c-0.8,1.5-2.3,1.9-3.8,2.4c-1.3,0.3-2.6,0.4-3.9,0.2c-1.1-0.2-2.5-0.3-2.7-1.6c-0.2-1.3,1.1-1.8,2.1-2.5c1.3-0.7,2.7-1.3,4-2
		c2.1-0.9,4.2-1.6,6-3c0,0,0,0,0,0c2.7-0.7,5.2-1.7,7.1-4c0.3,0,0.6,0,0.9,0c3.5-1.3,7.3-1.3,10.9-1.6c0.5-0.2,1-0.3,1.6-0.4
		C228.1,283.8,229.7,283.5,231.1,284.8z"/>
	<path class="st119" d="M196.1,295c-0.8,1.4-2.7,3.3,1.1,3c1.3-0.1,2.6,0,3.9,0c-0.4,3-1.5,4.8-4.5,2.3c-1.2-1-2.2-1.2-3.5-0.3
		c-0.3,0-0.6,0-0.9,0c-1.1-0.1-2.4,0.1-3.1-1.1C191.2,297.3,193.4,295.7,196.1,295z"/>
	<path class="st48" d="M206.1,290c-1.4,2.2-3.6,2.9-6,3C201.7,291.3,203.8,290.3,206.1,290z"/>
	<path class="st120" d="M226,452.9c-1.7-0.3-3.3-0.7-5-1c-3.4-4.4-7-8.7-9.3-13.8c0.4-1,1.1-1.6,2.2-1.9c1.3-0.2,2.4,0.2,3.4,0.9
		c2.6,1.5,3.8,4.4,6,6.3C225.1,446.4,227,449.2,226,452.9z"/>
	<path class="st121" d="M212.1,437.9c3.4,4.4,7.3,8.5,9,14c-3.6-2-8.5-2.5-9-8c-0.7-1-1.3-2-2-3c-1.3-1.1-3.1-2.1-1.8-4.3
		C209.9,435.8,211.3,436.1,212.1,437.9z"/>
	<path class="st122" d="M226,452.9c-1-3-2-6-3-9c0.9-0.7,2.1-0.7,2.6,0.1c1.9,2.9,4.7,5.2,5.4,8.8c-1.3,0.3-2.6,0.6-4,0.9
		C226.7,453.4,226.4,453.2,226,452.9z"/>
	<path class="st123" d="M331,362.9c0.3,0,0.7,0,1,0c-0.9,1.5-1.1,3.2-1,4.9c0,0-0.4,0-0.4,0l-0.4,0c-1.6-1.3-1.4-2.9-0.6-4.6
		C329.9,362.7,330.4,362.6,331,362.9z"/>
	<path class="st124" d="M161.1,334.9c1-2.7,2-5.3,3-8c0.2-3.5,1.6-6.5,4-9c2.1,0.2,1.5,1.5,1.3,2.8c-0.4,2.1-0.6,4.2-1.3,6.2
		c-1.8,2.8-0.6,6.9-3.9,9C163.1,335.6,162.1,335.3,161.1,334.9z"/>
	<path class="st125" d="M167.1,326.9c-0.4-3.1,2.6-5.8,1-9c1.8-1.2,0.6-4.1,3-5c2.7,0.4,1.9,2,1.2,3.6c-1.1,2.4-2.2,4.7-2.2,7.4
		C169.8,325.7,169.4,327.3,167.1,326.9z"/>
	<path class="st126" d="M168,400.9c2.7,3,5.4,6,8,9c-2.5-1.1-5.5-1.7-7.4-3.4c-2.3-2.2-4.2-1.6-6.5-0.7c0-0.7-0.2-1.3-0.1-2
		c0.3-1.8-1.1-4.1,1-5.3C165.3,397.4,166.3,400.3,168,400.9z"/>
	<path class="st127" d="M167.1,416.9c-2-1.9-2.3-4.5-3-6.9c5.2-4.7,7.6,1,11,3c0.2,0.2,0.3,0.5,0.3,0.8c0,0.3-0.1,0.4-0.2,0.4
		c-2.1,1.6-3.6-1.2-5.5-0.7C167.8,413.8,168.4,416.1,167.1,416.9z"/>
	<path class="st128" d="M175.1,413.9c0-0.3,0-0.7,0-1c1.2-0.7,2.5-1.1,3.9-1c1.2,0.7,1.6,1.8,1.3,3.2c-0.4,0.7-0.9,1.2-1.7,1.5
		C176.7,416.7,174.9,416.6,175.1,413.9z"/>
	<path class="st129" d="M180.1,414.9c-0.4-1-0.7-2-1.1-3c-0.3-0.7-0.7-1.3-1-2c0-0.4,0.1-0.7,0.1-1.1c1.7,1.4,3.3,2.7,5,4.1
		c0.2,0.3,0.3,0.5,0.3,0.8c0,0.3-0.1,0.5-0.1,0.5C182.3,415.3,181.4,415.9,180.1,414.9z"/>
	<path class="st130" d="M254,440.9c1,0.3,2,0.7,3,1c1.3,2.9-2.3,4.3-2,6.9c-2.7,0.9-3.8-1-5-2.9c-4,1.7-5.7-0.9-7.2-3.8
		c0.9-1.5,2.5-1.7,3.9-2.4C249.4,438.9,251.6,440.4,254,440.9z"/>
	<path class="st56" d="M329,369c0,0.3,0,0.6,0,0.9c-1.9,2,1.3,5.4-1.9,7c-1.9-1.6-1.3-3.8-1.5-5.8c0.2-2.3-0.4-4.7,1.1-6.8
		C330.5,364.3,329.5,366.8,329,369z"/>
	<path class="st131" d="M327,370.9c0,2,0.1,4,0.1,6c-0.7,2-1.4,4-2.1,6c-0.3,0-0.7,0-1,0c-3.3-2.2-0.7-4.3,0-6.5
		c1-1.7,0.5-3.9,1.7-5.5C326.1,370.6,326.6,370.6,327,370.9z"/>
	<path class="st132" d="M305,413.9c-0.3,0-0.7,0-1,0c-2.5-3.2-1-6.6-0.4-10c1.6-4.3,1.1-8.6,0.4-13c0.2-1.2,0.6-2.2,2.1-2.2
		c4.4,2.9,3,7.4,3.2,11.5c-0.2,2.5-1.2,4.8-2.1,7.1c-0.5,1.5-1.7,3-0.2,4.6C306.3,412.6,305.7,413.2,305,413.9z"/>
	<path class="st133" d="M307,411.9c-2.8-0.6-2-2.4-1.4-4.1c0.8-2.3,1.6-4.6,2.4-6.9c1.6-1.9-1-4.9,1.8-6.4c0.6-0.1,1.1,0.1,1.5,0.4
		c1.3,2.6-0.2,5.2-0.2,7.8c-1.1,2.9-2.4,5.6-4,8.2C307,411.2,307,411.6,307,411.9z"/>
	<path class="st134" d="M307,410.9c0-3,1.3-5.6,3-8c0.4-0.3,0.7-0.4,1.2-0.2c0.4,0.5,0.6,1.1,0.6,1.8c0,0.9-0.5,1.6-0.8,2.4
		C311,409.5,308.7,409.9,307,410.9z"/>
	<path class="st135" d="M311,406.9c-1.1-0.7-0.1-1.3,0-2c1.1-1.5-0.2-3.9,1.7-5.1c0.5-0.3,0.9-0.2,1.3,0.1c0.1,1.3,0.7,2,2,2
		c0,0.3,0,0.7,0,1C314.3,404.2,313.8,407,311,406.9z"/>
	<path class="st136" d="M231.1,284.8c-1.7,0-3.4,0-5.1,0c-3.3-2.8-0.6-4.7,1-6.8c0.7-0.6,1.4-1.3,2.1-1.9c2.9,0.2,5-2.4,7.9-2.1
		c0.3,0,0.7,0,1,0c-0.9,2.8-4.3,4.7-2.8,8.5c0.5,1.3-2.3,0.4-3.2,1.5C231.7,284.2,231.4,284.5,231.1,284.8z"/>
	<path class="st37" d="M227,278c0.4,2.4-3.2,4.2-1,6.8c0,0,0.1,0.3,0.1,0.3c-1.4,0.7-3,0.3-4.5,0.3c-1.3-0.4-2.2-1.2-2.6-2.5
		C220.9,279.9,223.9,278.8,227,278z"/>
	<path class="st48" d="M221.1,284.8c1.7,0.1,3.3,0.2,5,0.3c-3.9,1.8-8,0.5-12.1,0.9c0-0.3,0-0.6,0-0.9c1-0.1,2-0.1,3-0.2
		C218.4,283.9,219.7,283.9,221.1,284.8z"/>
	<path class="st50" d="M221.1,284.8c-1.3,0-2.7,0.1-4,0.1c0-1.3,0.7-1.9,2-2C220.3,283,221,283.6,221.1,284.8z"/>
	<path class="st137" d="M289,278c-2.4,1.8-5.3,0.9-7.9,1.9c-1.3,0.5-2.5,0.8-3.1,2.1c-2.6,1.9-5.3,3.4-8.7,2.4
		c0.2-4,2.7-6.7,5.9-8.3c2-1,4.1-1.9,6.3-2.5c0.5-0.1,1,0,1.4,0.4c2.8-1.8,3.3,3.3,6,2C289,276.6,289,277.3,289,278z"/>
	<path class="st138" d="M232.1,284c0.6-1.2,3.6-0.7,1.7-3.7c-2.5-4.1,2.8-4.2,4.2-6.3c2.1-1.6,4.5-2.1,7-2c0,0.3,0,0.7,0,1
		c0.3,1.5-0.5,2.7-1,4c-1,0.7-2,1.3-3,2C239.2,282.8,236.6,285,232.1,284z"/>
	<path class="st139" d="M235,452.8c-1,0-2,0-3,0c-0.3-4.9-4.3-6.9-7.4-9.7c-1.8-1.7-4.2-2.8-4.1-5.8c0.2-0.5,0.5-0.8,1-1
		c3.6-0.1,6.4,2.4,9.8,2.9c4,1.6,5.6,5.5,7.9,8.7c1.3,1.7,0.8,3.9-2.2,4C236.2,451.9,235.5,452.1,235,452.8z"/>
	<path class="st140" d="M237.1,451.9c1.7-0.9,2.9-2.7,1.3-3.8c-3.2-2.2-3.7-6.5-7.3-8.2c0.3-0.4,0.8-0.7,1.3-0.8
		c8.1,0.4,10.3,2.4,12.7,11.8c0,0,0,0,0,0C242.4,451.7,240,453.5,237.1,451.9z"/>
	<path class="st43" d="M283,274c-0.3,0-0.7,0-1,0c-0.9,0.6-1.9,0.6-2.9,0.6c-1.9-0.8-1.5-1.7-0.1-2.6c0,0,0,0,0,0
		C280.6,272.2,282.7,271.3,283,274z"/>
	<path class="st141" d="M245,450.9c-0.8-0.1-1.7-0.3-1.8-1.3c-0.6-6.8-4.9-9.3-11.1-9.7c-2.9-1.8-7.2-1.8-7.8-6.3
		c1.3-0.8,2.5-0.5,3.8,0c4.3,1.9,8.5,4.3,13,5.8c1.1,0.4,1.9,1.3,2.1,2.5c2.2,1.5,3.7,4.3,7,4C250.6,449.8,246.1,448.7,245,450.9z"
		/>
	<path class="st142" d="M221,436.9c1.2,5,6,7.3,9.4,9.7c3.4,2.3,2.7,3.7,1.6,6.2c-0.3,0-0.7,0-1,0c-3.7-2.1-3.8-7.3-8-9
		c-3.7-0.3-3.3-4.7-6-6C218.1,436.5,219.4,435.8,221,436.9z"/>
	<path class="st143" d="M305,403.9c-1.2,3.2-1,6.6-1,10c-0.4,0.8-1.2,1-2,1c0,0-0.4-0.3-0.4-0.3c-0.8-0.3-0.6,1.1-1.4,0.8
		c-4.5-2-2.8-4.9-1.3-7.8C300.5,405.6,302,403.5,305,403.9z"/>
	<path class="st144" d="M300,407.9c-1,2.5-3.9,5.3,1,7c0.3-0.5,0.7-0.5,1,0l0,0c-0.3,0.3-0.7,0.7-1,1c-2.5,0.8-3.9-1.5-6-2
		c-0.9-2,0.7-3.5,0.9-5.3c0.3-1.2,0.8-2.3,1.9-2.9C299.6,405.4,299.5,407,300,407.9z"/>
	<path class="st145" d="M279,272c-0.1,0.7-1.1,1.3,0,2c-0.1,2.5-2.3,1.9-3.6,2.4c-3.9,1.3-7.8,2.6-11.9,3.1
		c-0.8-0.2-1.4-0.7-1.7-1.4c1.2-5.6,6.7-4.9,10.3-7C274.4,271.3,276.7,271.6,279,272z"/>
	<path class="st146" d="M272,271c-0.7,1.4-1.3,3.1-3.3,3c-3.2-0.2-4.9,1.9-6.7,4c-1.7,1.5-3.3,1.3-5,0c0,0,0,0,0,0
		c3.8-2.4,6.6-6.3,11-8C269.4,270.1,271,269.5,272,271z"/>
	<path class="st147" d="M167.1,416.9c-0.1-2.2,0.4-3.8,3-4c0.3,0.2,0.3,0.4,0.3,0.7c-0.1,0.2-0.2,0.3-0.3,0.3c-1.9,1.7-0.7,3.3,0,5
		c-0.6,0.3-1.3,0.6-1.9,0.9C167.8,418.9,167.5,417.9,167.1,416.9z"/>
	<path class="st148" d="M329,369c0.1-2-0.5-3.7-1.9-5.1c-0.2-0.1-0.5-0.2-0.7-0.3c-0.6-0.6-0.8-1.2-0.3-2c0.9-0.6,1.9-0.7,2.9-0.4
		c0.7,0.4,1.3,0.8,1,1.7c0,1.6,0.1,3.3,0.1,4.9C329.8,368.2,329.4,368.6,329,369z"/>
	<path class="st149" d="M330,362.9c-0.3-0.3-0.6-0.7-1-1c-1.8-1.9-1.8-4.5-2.8-6.7c-1.1-4.2-2.8-8.2-5.1-11.8
		c-0.9-2-2.4-3.9-1.4-6.3c0.7,0.3,1.5,0.6,2.2,0.9c0,0,0,0,0,0c1.3,0.6,1.5,1.9,2,3c3.2,7,5.8,14.3,7,22
		C330.7,362.9,330.4,362.9,330,362.9z"/>
	<path class="st23" d="M324,340.9c-0.7-1-1.3-2-2-3C324.5,337.8,325.4,338.6,324,340.9z"/>
	<path class="st150" d="M303,310c0.3,0.3,0.7,0.7,1,1c0.8,4.2,6.5,4.6,7,9c-0.3,0.3-0.7,0.7-1,1c-3.7-2.6-8-4.7-9.4-9.5
		c0.1-0.8,0.5-1.3,1.1-1.7C302.2,309.5,302.6,309.6,303,310z"/>
	<path class="st151" d="M319.8,337.1c0.8,1.9,1.6,3.8,2.4,5.6c0.2,2.5-1.4,1.2-2.5,1.2c-1.2-0.5-2-1.4-2.6-2.6c-1.7-4.1-5-7-8-10.1
		c-1.7-1.8-3.8-3.3-3.3-6.3c2.9-2.1,4.6,1.1,6.9,1.6c3.3,2.4,4.8,5.9,6.3,9.5C319.3,336.3,319.5,336.7,319.8,337.1z"/>
	<path class="st152" d="M319,335.9c-2.4-3-3.9-6.6-6.9-9.1c-2.7-1.8-5.3-3.7-7.2-6.4c-1.3-1.9-3.1-3.3-4.6-5.1
		c-1.1-1.3-2.7-2.6-1.3-4.7c0.7-0.3,1.4-0.3,2,0.3c1.7,4.5,6.9,5.8,9,10C313.7,325.5,318.6,329.4,319,335.9z"/>
	<path class="st153" d="M304,303c2.4,2.4,6.6,2.3,8,6c-1.3-0.3-2.7-0.7-4-1c-1-0.3-2-0.7-3-1c-1.3-0.6-3.2-0.5-3.3-2.6
		c0.1-0.8,0.8-1,1.3-1.4C303.4,303,303.7,303,304,303z"/>
	<path class="st154" d="M302,304c1,1,2,2,3,3c-0.3,0.3-0.7,0.7-1,1c-0.3,0-0.7,0-1,0c-3.1,0.2-5.3-0.6-4.8-4.4
		C299.6,302.8,300.9,302.9,302,304z"/>
	<path class="st155" d="M298,304c1,2.2,3,3,5,4c0,0.7,0,1.3,0,2c-0.3,0-0.7,0-1,0c-1.8,0.5-3-0.7-4.3-1.6c-1.1-1.4-3.2-1.9-3.9-3.7
		c0.3-1.2,1.2-1.5,2.2-1.6C296.8,303.1,297.5,303.3,298,304z"/>
	<path class="st156" d="M252,437.9c-4-1.3-8-2.7-12-4c-1.6,1.2-3,0.8-4.1-0.7c1.3-3.9,4.2-0.8,6.3-1.4c0.5,0.1,0.9,0.2,1.3,0.4
		c1.4,0.8,2.6,2.3,4.6,1.7C249.8,434.9,252,435.3,252,437.9z"/>
	<path class="st157" d="M248.1,433.9c-1.8,1.7-2.9,0-4.1-1c0.3-0.5,0.7-0.5,1.1,0c0.3,0,0.7,0,1-0.1
		C246.8,433.2,247.4,433.6,248.1,433.9z"/>
	<path class="st158" d="M236.1,432.9c1.2,0.7,2.5,1.2,4,1c3.7,4.3,9.6,4.1,14,7c-2.3,0.6-4.7-1.6-7,0c-8.9-3.3-17.8-6.9-27.2-9.1
		c-0.4-0.2-0.8-0.6-1.1-1c0.6-2.3,2.6-1.9,4.2-2.4c1-0.1,2,0.2,3,0.4C229.2,430.5,233.5,429.5,236.1,432.9z"/>
	<path class="st159" d="M174.1,355.9c0.2-0.4,0.4-0.7,0.7-1.1c1.6-0.8,1.3-4.2,4.1-3.3c2.7,0.9,3.9,3.1,3.9,6
		c-2.1,5.2-6.6,9.1-8.4,14.5c-0.5,0.2-0.9,0.2-1.4,0c-1.5-3.3,0.2-6.4,0.6-9.5C173.9,360.4,175.1,358.2,174.1,355.9z"/>
	<path class="st160" d="M182.1,357.9c-2.1-6.3-2.6-6.6-7.3-3.1c0-2.9,1.8-4.8,3.4-6.8c-0.1-1.6,0.6-2.5,2.2-2.5
		c6.3,2.5,4.4,7.8,4.3,12.5c-0.5,1-1.1,2.2-2.4,1.8C181.5,359.6,181.5,358.7,182.1,357.9z"/>
	<path class="st161" d="M174.1,355.9c4,1.3,1.4,4.7,0.9,6c-1.1,3.3-1.1,6.7-1.9,10c2.3,4.3,2,8.6,0.2,13c-3.3-0.3-2.5-3-2.6-4.9
		c-0.3-4.4-0.1-8.9,0.2-13.4c0.5-2.6,1.6-5.1,2.2-7.7C173.4,357.9,173.8,356.9,174.1,355.9z"/>
	<path class="st162" d="M171,353.9c-1.6,2.7-3.3,5.3-4.9,8c-0.9,0.3-1.3-0.2-1.7-0.9c-0.2-0.5-0.2-0.9-0.3-1.4
		c0.6-4.4,3.5-7.6,6.1-10.8c1.2-1.7,2-3.7,4.3-4.4c0.5,0,0.9,0,1.4,0.2c0.1,0.2,0.3,0.4,0.4,0.6c-0.1,0.2-0.2,0.4-0.3,0.6
		c-1.9,0.7-1.9,2.7-2.9,4C172.4,351.2,172.2,352.8,171,353.9z"/>
	<path class="st163" d="M173.1,358.9c-0.3,2.3-0.7,4.6-1,6.9c-1.6,3.2-0.6,7.5-4,10c-0.7,0-1.3,0-2,0
		C165.6,369.1,171.1,364.7,173.1,358.9z"/>
	<path class="st164" d="M180.1,345.9c-0.6,0.7-1.2,1.4-1.8,2.1c-1.4-0.1-2.1-0.8-2.3-2.2c0,0,0,0,0,0c1.6-1.1,1.8-2.7,2.1-4.4
		c0.4-2,1.7-3.4,3.3-4.5c1.6-0.6,3.5-3,4.4,0.7c0,1.2-0.5,2.3-1,3.4C183.7,343.2,181.9,344.6,180.1,345.9z"/>
	<path class="st165" d="M165.1,360.9c0.3,0.3,0.7,0.7,1,1c0,1,0,1.9-0.1,2.9c-0.8,0.6,0.1,2.5-1.8,2.2c-0.7,0.7-1.4,1.3-2.1,2
		c0-0.7,0-1.3,0-2C162.1,364.5,162,361.9,165.1,360.9z"/>
	<path class="st2" d="M164.2,367c0.6-0.7,1.2-1.4,1.8-2.2c-0.2,1.9,0.6,4.2-2.1,5C164,368.9,164.1,367.9,164.2,367z"/>
	<path class="st166" d="M171,353.9c0.3-1.6,0.9-2.9,2-4.1C173.2,351.6,172.9,353.2,171,353.9z"/>
	<path class="st167" d="M168.1,375.9c1.2-3.4,1.5-7.2,4-10c0.5,6.3-1,12.8,0.9,19c1.9,2.4,2.9,5,1.2,7.9
		C171,387.6,168.7,382.1,168.1,375.9z"/>
	<path class="st168" d="M174.2,392.9c-0.4-2.6-0.8-5.3-1.2-7.9c0-4.3,0.1-8.7,0.1-13c0.3,0,0.6,0,1,0c0.6-0.7,1-1.6,2.2-1.1
		c1.3,1.9,4.7,2.8,2.8,6.2c-2,3.2-2.3,6.8-2.6,10.5c-0.1,1.9,0.3,4-1.4,5.6C174.7,393,174.4,392.9,174.2,392.9z"/>
	<path class="st169" d="M175,393.1c0.1-4.3,0.1-8.5,0.9-12.7c0.4-2.2,1.1-3.6,3.1-4.4c0.4-0.3,0.8-0.4,1.2-0.3
		c1.1,0.8,2.5,1.2,3.1,2.6c-2.5,4-5.4,7.8-6,12.7c0,0.7-0.1,1.5-0.2,2.2c-0.2,0.8-0.5,1.4-1.2,1.9c-0.3-0.1-0.6-0.1-0.8-0.2
		C175.1,394.3,175.1,393.7,175,393.1z"/>
	<path class="st170" d="M186,414.2c0.2-1.8-2.9-2.2-1.8-4.3c2.8-0.6,4.8,1.5,7.2,2.3c3.5,2.3,7.2,4,11.1,5.4c1.3,0.5,2.6,0.9,4,1.4
		c1.4,0.5,2.8,0.8,4.1,1.6c2.6,2.5,2.1,4-1.5,4.5c-3.4,0.2-6.5-1.3-9.7-2.2c-3.2-1.1-6.3-2.5-9.3-4.1
		C188.3,417.6,185.9,416.9,186,414.2z"/>
	<path class="st171" d="M175.1,401.8c0.7-1.2,3.1-0.7,2.9-2.8c0.7-0.5,1.2-0.1,1.8,0.3c1.1,1.1,2.4,1.9,3.4,3.1
		c0.3,0.4,0.5,0.8,0.6,1.2c0.4,1,0.7,2.1,0.8,3.2c-0.1,1-0.7,1.6-1.6,1.9C180.4,406.5,177.8,404.1,175.1,401.8z"/>
	<path class="st172" d="M183.1,408.8c0.3-0.6,0.7-1.2,1-1.9c2.6-0.9,4.4,1.9,6.9,1.5c1.1,0.4,2,0.9,2.3,2.1c-1.1,0.5,0.8,4-2.4,2.4
		c-2.3-1-4.5-2-6.8-3.1C183.8,409.5,183.5,409.2,183.1,408.8z"/>
	<path class="st173" d="M186,414.2c1.4,1.2,2.8,2.4,4.2,3.7c-0.3,0.4-0.6,0.6-1.1,0.8c-0.7,0.1-1.3,0.1-2-0.1
		c-1.4-0.7-2.4-1.9-3.6-2.8c-0.5-0.5-0.8-1-0.5-1.7c0-0.3,0-0.6,0-1C184,413.4,185,413.8,186,414.2z"/>
	<path class="st174" d="M179.3,399.9c-0.4-0.3-0.8-0.6-1.2-0.9c-0.3-0.7-0.7-1.4-1-2.1c-1.1-1.1,0.4-2.9-1-4c0-0.7,0-1.3,0-2
		c2.1-1.3,1.8-5.8,5.9-4.5c0.7,0.3,1.1,0.8,1.4,1.5c0.3,2.1-0.4,4.1-1.2,6c-0.8,1.6,0.7,3,0.4,4.5
		C181.9,399.8,181.2,401.1,179.3,399.9z"/>
	<path class="st175" d="M176.1,392.9c2.4,0.8,1,2.6,1,4c-0.4-0.6-0.7-1.2-1.1-1.8C176,394.4,176.1,393.6,176.1,392.9z"/>
	<path class="st176" d="M269,284c3-0.7,6-1.3,9-2c0,0.7,0,1.3,0,2c-1.5,2-3.9,2.4-6.1,3c-1.1,0.2-2.1,0.3-3.2,0.3
		c-1.4,0-2.8-0.1-3.9-1.1c-0.7-1.8,0.2-2.7,1.8-3C267.6,283.1,268.4,283.3,269,284z"/>
	<path class="st177" d="M272,286c2-0.7,4-1.3,6-2c1,1,2,2,3,3c-1.3,0.3-2.7,0.7-4,1C274.5,289.4,272.6,289.5,272,286z"/>
	<path class="st178" d="M272,286c1,2.3,3.1,2,5,2c0.4,0.9,1,1.6,2,2c-1.5,3.7-4.8,0.7-6.9,2c-2.3,0.5-4.5,0.5-5.5-2.2
		c0.3-1.6,1.4-2.7,2.5-3.8C270,286,271,286,272,286z"/>
	<path class="st80" d="M244,277c-0.2-1.5,0.3-2.7,1-4C246.7,274.8,245,275.8,244,277z"/>
	<path class="st179" d="M228.1,290c2.3,0.1,4.6,0.1,6.8,0.5c1.9,0.3,3.2,0.8,4.5-1.3c1.6-2.4,4.5-0.7,6.8-1.2c0.3,0,0.6,0.1,0.8,0.2
		c-0.3,1.1-0.4,2,1,2.5c2.7,0.8,4.9,2.5,7.5,3.5c2.3,1.3,4.9,2.1,7.1,3.6c0.8,1,2.8,1.5,2.2,3.2c-0.6,1.5-2.3,1.3-3.7,1.4
		c-1.3,0-2.6-0.1-3.8-0.4c-2.6-1-5-2.5-7.7-3c-4.7-1.5-9.6-2-14.4-2.7c-1.3-0.3-2.6-0.8-3.9-1.2c-3.9-0.5-7.8-1.4-11.8-1.3
		c-1.2,0-2.5,0.1-2.7-1.5c-0.1-1.8,1.4-1.5,2.5-1.6C222.2,290,225.1,288.7,228.1,290z"/>
	<path class="st180" d="M269,286c0.4,1.9-0.9,2.9-2,4c-1.3,1.4-3.2,1.2-4.8,1.7c-1.3,0.2-2.5-0.1-3.7-0.3c-3-1.5-7.1-0.1-9.4-3.5
		c1-1.2,2.4-1.8,4-1.9c2.5,0.6,4.6-1.2,7-1.3c1.8,0,3.6-0.1,5,1.2C266.4,286,267.7,286,269,286z"/>
	<path class="st181" d="M249.1,287.9c3.3,0.8,6.6,1.5,9.9,2.3c-0.2,2.5-3,2.8-3.9,4.8c-3.1-1.2-6.2-2.2-9-4.3
		c-3.2-2.3,1.3-1.5,0.9-2.5C247.7,288,248.4,288,249.1,287.9z"/>
	<path class="st182" d="M257,278c1.7,0,3.3,0,5,0c0.3,0.3,0.7,0.7,1,1c1.3,0.8,3,1.3,1.8,3.4c-3.8,0.6-6.3,5-10.8,3.6
		C256.1,283.7,256.3,280.7,257,278z"/>
	<path class="st183" d="M254,285.9c1.7,0.1,3.6-0.2,4.5-1.6c1.7-2.6,4-2.5,6.5-2.4c1.6-0.3,2.3,0.4,2,2c-1.3,0-2,0.7-2,2
		c-4-1.2-8,2.4-12,0C253.4,286,253.7,286,254,285.9z"/>
	<path class="st184" d="M228.1,290c-3.5,0.4-7,0.9-10.5,1.3c5,0.9,9.8,1,14.5,2.7c-2.3,2.1-5.1,1.2-7.7,1.4
		c-5.4-0.1-10.8-0.4-16.1,1.5c-1.5,0.3-2.9,0.4-4.1-0.8c-1.2-1.9-1.1-1.9,1.3-3.1c7.1-3.6,14.9-3.8,22.6-4
		C228.1,289.3,228.1,289.6,228.1,290z"/>
	<path class="st185" d="M190.1,426.9c0-1,0-2,0-3c0.6-1.3,1.6-1.8,3-1.3c1.7,1.4,3.8,2.5,3,5.3c-1.7,0-3.3,0-5,0
		C190.7,427.6,190.4,427.2,190.1,426.9z"/>
	<path class="st186" d="M196.1,427.9c-1-1.7-2-3.3-3-5c0.2-0.1,0.4-0.2,0.6-0.3c1.9,0.1,3.5,1,5,2c1.3,1.6,3.1,3,2.4,5.5
		c-0.7,0.4-1.4,0.3-2-0.2c-0.7-0.3-1.3-0.7-2-1C196.7,428.6,196.4,428.2,196.1,427.9z"/>
	<path class="st187" d="M276,293c4,1.4,8,0,12,0c0,0.3,0,0.7,0,1c0.7,0.7,1.3,1.3,2,2c-1.6,2.3-3.9,2.2-6.3,2.1
		c-0.5,0-1-0.2-1.5-0.3c-1.5-0.6-3.1-1-4.6-1.6C276.3,295.7,274.8,295,276,293z"/>
	<path class="st188" d="M283.1,297c2.4,0.3,4.7-0.4,7-1c2.4-0.4,4.2,0.7,6,2c-0.3,0.7-0.7,1.3-1,2c-0.9,1.1-2.2,1.2-3.5,1.2
		C288.3,300.5,284.5,301.2,283.1,297z"/>
	<path class="st189" d="M291,300c1.3,0,2.7,0,4,0c1.3,0.7,2.7,1.3,4,2c1.5-0.1,2.8,0.3,4,1c-0.3,0.3-0.7,0.7-1,1c-1.3,0-2.7,0-4,0
		c-0.7,0-1.3,0-2,0C294.5,302.5,291.3,303.1,291,300z"/>
	<path class="st190" d="M173.1,331.9c0.4-2.1-1.1-3.4-2-5c3.7-0.9,5.5-3.9,7-7c0.3-0.3,0.7-0.7,1-1c0.1-0.1,0.3-0.1,0.4-0.2
		c6.2-5.2,6.2-5.2,7.9,2.5c0.1,0.3,0.4,0.5,0.6,0.7c0.3,0.4,0.4,0.8,0.3,1.3c-1.3,1.5-0.4,4.5-3.4,4.8c-1.4-2-1.4-4.1-0.4-6
		c-4.8,1.7-6.6,6.8-10.2,10.1C173.9,332.3,173.5,332.3,173.1,331.9z"/>
	<path class="st191" d="M204.2,296c1.3-0.1,2.6-0.1,3.9-0.2c0.3,0.4,0.4,0.8,0.3,1.3c-0.5,0.9-1.3,1.4-2.1,1.8
		c-2.5,0.9-3.7,3.2-5.3,5.1c-1.3,1.5-2.2,3.4-4.5,3.7c-4.4-0.5-2.5-2.8-1.3-4.9c1.4-2.3,0.4-3.1-2-3c1-1.2,2.4-1.4,3.4-0.5
		c2.6,2.5,3.4,0.1,4.6-1.5C202.1,297.3,203.1,296.7,204.2,296z"/>
	<path class="st192" d="M195.1,302.9c-0.1,1.7-2,4.4,2,4c0.6,4.2-2.5,7.2-3.6,10.8c-0.4,0.4-0.8,0.6-1.4,0.5
		c-0.8-0.2-1.4-0.6-1.9-1.3c-1.7-3.5,1.5-6,1.8-9.1C193.2,306.4,192.8,303.8,195.1,302.9z"/>
	<path class="st193" d="M192.1,307.9c1.3,3.2-2.3,5.8-1,9c1.4,2.3,0.4,4.5-0.4,6.7c-0.3,0.4-0.8,0.7-1.3,0.8
		c-0.9-0.1-1.5-0.4-1.3-1.5c0-0.3,0-0.7,0-1c2.5-1.9-0.2-4.3,0.6-6.5C189.6,312.8,190,310,192.1,307.9z"/>
	<path class="st194" d="M167.1,326.9c1-1,2-2,3-3c1.2,0.7,1,1.9,1,3c-0.7,1-1.3,2-2,3c0,0,0,0,0,0c-1.4,1.1-0.9,2.6-1,4
		c-0.3,2.7-1.7,3.2-4,2C165.7,333.2,164.6,329.5,167.1,326.9z"/>
	<path class="st22" d="M208.1,436.9c0.7,1.3,1.3,2.7,2,4c-2.7-0.3-4-2.6-6-4c0-0.3,0-0.7,0-1c0.8-1.7,2.1-1.5,3.4-0.7
		C208,435.7,208.5,436.1,208.1,436.9z"/>
	<path class="st195" d="M207.1,435.9c-1-0.6-2-0.6-3,0c-1.7-2-3.3-4-5-6c0.7,0,1.3,0,2,0c2-1.5,3.8-0.5,5.5,0.6
		C208.1,432.2,208.6,433.9,207.1,435.9z"/>
	<path class="st196" d="M276,293c0.3,3.8,4.9,1.3,6,4c0,1-0.3,1.9-1.4,2.3c-5.5-1.5-10.4-4.6-15.9-6.2c-1.1-0.6-2.2-1.1-2.7-2.3
		c1.5-1.4,3.4-0.6,5-0.8c1.7,0.7,3.4,1.3,5,2C273.1,293.4,274.4,293.8,276,293z"/>
	<path class="st197" d="M245.1,426.8c2.3,0.1,4.4,1.6,6.9,1.2c6,1.3,12.1-0.5,18.1,1c-6.6,2.2-13.3,0.4-20,1c-2.3-0.9-4.5-2-7-2
		c-0.4-0.8,0.1-1.2,0.8-1.5C244.3,426.4,244.7,426.5,245.1,426.8z"/>
	<path class="st198" d="M270,428.9c-6-0.6-12.1,1.1-18.1-1c5.7-0.1,11.4-0.1,17.1-0.2c1.4,0.1,2.7,0.1,4.1,0.2
		C272.3,428.9,271.1,428.8,270,428.9z"/>
	<path class="st199" d="M238.1,426.9c0.7,1.8,2.6,2.1,4,3c0.3,0.9-0.3,1.4-1,1.7c-2.4,0.3-4.4-0.4-6.2-1.9c-0.2-0.5-0.3-0.9-0.2-1.4
		c0.4-1,1.2-1.4,2.2-1.7C237.2,426.5,237.7,426.6,238.1,426.9z"/>
	<path class="st200" d="M238.1,426.9c-0.3,0-0.7,0-1,0c0.2-2.6,2.3-2,3.9-2.2c1.2,0.5,3,0.1,3,2.2c-0.3,0.3-0.7,0.7-1,1
		C241.4,427.6,239.7,427.3,238.1,426.9z"/>
	<path class="st201" d="M241,430.9c0.3-0.3,0.7-0.7,1-1c1.4,0.6,2.4,1.7,3,3c-0.4,0-0.7,0-1.1,0c-0.3,0-0.6,0-1,0
		C242.6,432,240.5,432.8,241,430.9z"/>
	<path class="st202" d="M274.1,421.9c-1.9-0.4-3.1-1.4-2-3.4c0.9-1.5,0.1-2.1-1-2.6c-1-1.2-0.4-2.2,0.3-3.3c1.6-1.6,3.4-3.1,4.7-4.9
		c0.8-0.6,1.7-0.7,2.6-0.7c5.4-0.8,6.4,0.4,4.9,6c-2.5,3.3-6.3,5.2-8.2,9C274.8,422.3,274.4,422.3,274.1,421.9z"/>
	<path class="st203" d="M274.1,421.9c0.3,0,0.6,0,1-0.1c5.2-4.4,10.4-9,16-12.8c2.8-1.9,4.1-5.7,7.9-6.1c1,1.3,0.4,2.2-0.7,3
		c-0.4,1-0.9,1.9-1.3,2.9c-3.4,5.4-7.6,10-13.9,11.9c-0.7,0.4-1.3,0.7-2,1.1c-2.4-0.2-4.5,1.5-7,0.9
		C274,422.5,274.1,422.2,274.1,421.9z"/>
	<path class="st204" d="M262,424.6c-0.6,0.1-1.3,0.3-1.9,0.4c-1.2,0.7-2.5,0.3-3.8,0.3c-1.2-1.2-2.9-0.6-4.3-1.2
		c-1.2-2.7,0.8-3.6,2.6-4.7c3.1-0.8,6-2.2,8.5-4.2c0.8-0.7,1.7-1.5,2.5-2.3c1.7-1.3,3.3-2.7,5.6-2.2c0.5,0.6,0.6,1.2,0.4,1.9
		c-0.8,1.1-1.5,2.3-2.4,3.3c-2.3-0.4-3.5,1.2-4.1,2.8c-1.3,3.3-3.5,4.6-6.9,4.6C259.3,423.8,260.6,424.2,262,424.6z"/>
	<path class="st205" d="M269,415.9c0-1.4,0.7-2.4,2-3c0.3-0.4,0.7-0.3,1,0c-0.3,1-0.7,2-1,3C270.4,415.9,269.7,415.9,269,415.9z"/>
	<path class="st206" d="M247.1,423.7c-1.3,0-2.7,0-4,0.1c-0.2,0-0.5,0.1-0.7,0.1c-1.6-0.2-3.8,0.4-3.1-2.6c3-2,6.2-2.8,9.7-2.3
		c0.8,0.3,1.4,0.8,1.7,1.6C251,423.5,249.1,423.7,247.1,423.7z"/>
	<path class="st207" d="M247.1,423.7c0.8-1.1,3.1-0.7,2.9-2.8c1.2-1.4,2.6-2.2,4.5-1.5c0.2,0.2,0.4,0.3,0.5,0.5
		c-0.9,1.3-3.2,1.6-2.9,3.9c-0.4,0.9-1.4,0.4-2,0.8C248.8,425.2,248,424.3,247.1,423.7z"/>
	<path class="st208" d="M244,426.9c-0.7-1.2-1.9-0.9-3-1.1c-1.9-1.4-4.4,0.8-6.2-1c-0.1-0.6,0.1-1.1,0.6-1.5c2.6-1,5.1,0.3,7.7,0.4
		c0,0,0,0,0,0c0.4,1.2,2.1,1.5,1.9,3C244.7,426.8,244.4,426.9,244,426.9z"/>
	<path class="st209" d="M250.1,424.6c0.7-0.3,1.3-0.5,2-0.8c1.3,0.2,2.8-0.2,4,0.9c-0.2,0.6-0.6,0.6-1.1,0.3
		C253.4,424.9,251.8,424.7,250.1,424.6z"/>
	<path class="st198" d="M255,425c0.4-0.1,0.7-0.2,1.1-0.3c1.3,0.1,2.6,0.2,3.9,0.3C258.4,426.4,256.7,426.3,255,425z"/>
	<path class="st210" d="M283,420.8c5.7-2.7,9.3-8,13.9-11.9c0.1,2-1.4,3.3-2,5c-1.7,1.7-3.3,3.4-5,5.1
		C287.7,419.6,285.4,420.2,283,420.8z"/>
	<path class="st211" d="M193,422.9c-1,0.3-2,0.6-3,1c-0.6-1.3-1.6-2-3-2c0-0.7,0-1.3,0-2c-0.1-0.7-0.5-1.4,0-2
		c0.6,0,1.3,0.1,1.9,0.1C190.8,419.2,193.5,419.8,193,422.9L193,422.9z"/>
	<path class="st212" d="M170.1,413.9c0-0.3,0-0.7,0-1c1.9-0.8,3.1,1.9,5,1c0.8,1.8,2.3,2.1,4,2c2.3,0,2.3,1.4,1.9,3
		C176.3,419.5,173.9,415.2,170.1,413.9z"/>
	<path class="st213" d="M181,418.9c-0.6-1-1.3-2-1.9-3c0.3-0.3,0.7-0.7,1-1c1-0.3,2-0.7,2.9-1c0.3,0.3,0.7,0.7,1,1
		c1,1.4,0.4,2.3-1,2.9c-0.7,0.7-1.3,1.3-2,2C181.1,419.6,181,419.2,181,418.9z"/>
	<path class="st214" d="M183.1,417.9c0.3-1,0.7-2,1-2.9c1.4,0.6,2.4,1.6,3,2.9c0.1,0.7,1.1,1.4,0,2
		C185.5,419.7,183.4,420.6,183.1,417.9z"/>
	<path class="st215" d="M325,376.9c-0.8,1.9-2.7,3.7-1,6c-0.9,2.2-2,4.5-2,7c-1.9,1.2-1.7,4.2-4,5c-0.9-2.7,0.3-5.3,0-8
		c-2.1-3-1.6-6,0-8.9c1.5-1.4,2-3.3,2.5-5.2c0.5-1.7,0.7-3.6,2.9-4.1C326,371,325.4,374,325,376.9z"/>
	<path class="st216" d="M319,377.9c-1.7,2.8-0.8,6-1,9c0,0-0.5,0-0.5,0l-0.5,0c-1.7-2.2-2-4.9-2-7.5c-0.1-3.9-1.8-4.6-5-3.3
		c-1.4,0.5-2.6,1.5-4.2,0.9c-1.7-1.2-2-2.7-1.3-4.6c1-1.3,2.7-0.9,3.9-1.7c7.2-3.3,8.9-2.5,10.8,4.9
		C319.3,376.4,319.1,377.2,319,377.9z"/>
	<path class="st217" d="M306,376.9c1-0.5,2-1.1,3-1.6c5.8-2.9,6.5-2.5,7,3.8c0.2,2.6,1.4,5.1,1,7.8c-0.3,0-0.7,0-1,0
		c-1.7,0.4-1.9-1.1-2.1-2.1c-0.8-4-3.2-5.9-7.2-6.2c-0.4-0.2-0.8-0.6-1-1.1C305.9,377.4,305.9,377.2,306,376.9z"/>
	<path class="st218" d="M306,377.9c7.6-1.7,8.2,4.3,10,9c0,0.7,0,1.3,0,2c0.3,1.5-0.6,2.7-1,4c1.4,2.6-1.4,4.6-1,7c-0.3,0-0.7,0-1,0
		c-1.6-1.5-0.5-3.3-0.6-5.1c-0.1-4.1,1.9-8.5-1.9-12.1C308.8,381.4,305.8,381.2,306,377.9z"/>
	<path class="st216" d="M315,392.9c-0.2-1.5,0.3-2.7,1-4C317.7,390.7,316,391.7,315,392.9z"/>
	<path class="st219" d="M175,344.8c-1.9,0.8-2.5,2.9-4,4.1c-1.7,1.4-3.3,3.5-6,2c-0.8-2.3-2.1-4.5,1.3-6.1c1-0.5,1.2-2.5,1.7-3.8
		c2.1-0.6,2.9,2.5,5.1,1.7C174.1,343,175.4,343.3,175,344.8z"/>
	<path class="st220" d="M165.1,350.9c2-0.7,4-1.3,6-2c-1.7,3.8-5.5,6.5-6,11c-1.8,0.3-1.5,4.3-4.5,2.6c-1.3-2.6,0.2-4.6,1.5-6.6
		C163.1,354.3,164.1,352.6,165.1,350.9z"/>
	<path class="st221" d="M173.1,342.9c-3.1,2.9-3.2-1.6-5-2c-0.1-4,3.5-5.9,5-9c0.3,0,0.7,0,1,0c0.4,0.3,0.7,0.6,0.9,1.1
		c0.5,2.3,3.1,5.1-1.3,6.5c-0.4,0.1,0.3,1.5,0.1,2.3C173.7,342.3,173.4,342.6,173.1,342.9z"/>
	<path class="st222" d="M162.1,355.9c-0.3,2.3-0.7,4.7-1,7c-1,2.5-2,1.5-3,0c0-3.7,0-7.3,0-11C160,352.7,158.3,357,162.1,355.9z"/>
	<path class="st190" d="M169.1,329.9c1,0.1,1.9,0.3,1.8,1.7c0,0.2-0.4,0.6-0.5,0.6C169.2,331.9,169.2,330.9,169.1,329.9
		C169.1,330,169.1,329.9,169.1,329.9z"/>
	<path class="st223" d="M158.1,362.9c1,0.3,2,1.6,3,0c1.7-0.4,1.8-3.1,4-3c0,0.3,0,0.7,0,1c-1,2-2,4-3,6
		C159,368.6,158.4,368.1,158.1,362.9z"/>
	<path class="st224" d="M221,436.9c-1.3,0.3-2.7,0.7-4,1c-1-0.3-2-0.7-3-1c-3.3-0.9-4.9-3.6-6.5-6.2c-0.2-0.8,0-1.5,0.5-2.1
		c0.9-0.6,1.8-0.8,2.9-0.6c1.7,0.3,3.2,1.2,4.6,2.2C217.5,432.3,220.6,433.5,221,436.9L221,436.9z"/>
	<path class="st225" d="M208.1,430.9c2.6,1.3,3.8,4.1,6,6c-0.7,0.3-1.3,0.7-2,1c-1.2-0.7-2.5-1.2-4-1c-0.3-0.3-0.7-0.7-1-1
		c0.1-1.7,0-3.4-1-5C206.7,430.4,207.4,430.3,208.1,430.9z"/>
	<path class="st226" d="M219.1,431c9.6,2.4,19.7,3.6,27.9,9.9c-1.2,0.7-2.5,1.2-4,1c-6.5-2.3-12.1-6.5-19-8
		C221.6,434.3,219.6,433.9,219.1,431z"/>
	<path class="st227" d="M327,370.9c-0.3,0-0.7,0-1,0c-1.3-2.5-2.8-5,0.9-6.9c0,0,0.2-0.1,0.2-0.1C327.1,366.2,327.1,368.6,327,370.9
		z"/>
	<path class="st228" d="M326.9,364c-1.8,2.1-0.5,4.6-0.9,6.9c-0.3,2,0.8,4.2-1,6c-0.5-2.7-0.5-5.5-2-8c-0.6-0.5-0.9-1.2-1-2
		c-0.1-1,0-2,0.5-3c1.4-1.2,1-4,3.7-4c0.4,0.7,0.5,1.4-0.1,2C326.4,362.6,326.6,363.3,326.9,364z"/>
	<path class="st229" d="M298.3,406c0-1.1,1.3-1.9,0.7-3.1c0.2-0.1,0.4-0.2,0.6-0.3c2.8-0.6,2.9-2.9,3.2-5c0.3-2-0.2-4,0.6-5.9
		c0.4-0.6,0.8-1.1,1.7-0.8c1.4,4.3,1.4,8.7,0,13c-1.6,1.4-3.9,1.9-5,4C299.4,407.3,298.8,406.6,298.3,406z"/>
	<path class="st230" d="M305,390.9c-0.3,0.3-0.7,0.7-1,1c-0.4,0.3-0.8,0.5-1.2,0.5c-0.7-0.2-1.2-0.7-1.4-1.4c-0.2-0.7-0.2-1.3,0-2
		c0.5-1.4,1.3-2.8,1.7-4.3c0.2-0.4,0.4-0.8,0.6-1.2c0.5-0.5,1.1-0.9,1.8-0.9c1.3,0.6,1.5,1.8,1.6,3c0,0.5,0,1-0.1,1.5
		c-0.1,0.7-0.4,1.4-1,1.9C305.2,389.4,305,390.1,305,390.9z"/>
	<path class="st231" d="M306,388.9c0-0.7,0-1.3,0-2c5.2,0.7,4.3,4.5,4,8c-2.1,1.5,0.1,4.5-2,6C308,396.8,308.7,392.6,306,388.9z"/>
	<path class="st232" d="M311,402.9l-0.5,0c0,0-0.5,0-0.5,0c-0.5-2.8,1-5.3,1-8c-1.7-2.1-0.3-4.9-1.8-7c-0.4-1.4-0.4-2.8,0.5-4.1
		c0.5-0.3,1.1-0.4,1.6-0.3c1.5,0.8,2,2.2,2,3.7C313.7,392.6,313.1,397.9,311,402.9z"/>
	<path class="st233" d="M310,387.9c1.9,2.1,0.6,4.7,1,7c-0.3,0-0.7,0-1,0c-1.6-2.5-0.1-6.6-4-8c0-0.3,0-0.7,0-1
		C308.6,384.2,309.2,386.2,310,387.9z"/>
	<path class="st234" d="M311,402.9c0.6-3.4,1.4-6.8,1.8-10.2c0.3-3.1,1-6.3-1.8-8.8c-0.6-0.7-0.6-1.3,0-2c3.2,0.3,2.7,2.9,3,4.9
		c0.6,4.4-0.5,8.8-1,13.1c-0.4,1.8-0.7,3.6-2,5C311,404.3,311,403.6,311,402.9z"/>
	<path class="st235" d="M267,284c-0.4-1-1.1-1.6-2-2c-0.7-1-1.3-2-2-3c3.4-2.1,7.3-2.3,11.1-3.1c1.7-0.3,3.5-0.6,4.9-1.9
		c1,0,2,0,3,0c-4.9,2.6-9.7,5.3-13,10C268.4,284,267.7,284,267,284z"/>
	<path class="st236" d="M219.1,431c1.3,1.6,3.3,1.9,4.9,3c2.7,2,5.3,4,8,6c-0.3,0-0.7,0-1,0c-3.8,0.7-6.5-2.5-10-3c-2-2-4-4-6-5.9
		C216.4,429.7,217.7,429.8,219.1,431L219.1,431z"/>
	<path class="st132" d="M302,414.9c-0.3,0-0.7,0-1,0c-0.3-0.9-0.9-1.7,0.2-2.5c0.2-0.2,0.6-0.1,0.9-0.2
		C302.1,413.1,302,414,302,414.9z"/>
	<path class="st237" d="M326.1,361.9c0-0.7-0.1-1.3-0.1-2c-0.8-0.8-0.9-1.8-0.7-2.8c0.3-1,0.8-1.9,1.8-2.3c1.5,2.1,1.9,4.6,2,7.1
		C328.1,361.9,327.1,361.9,326.1,361.9z"/>
	<path class="st238" d="M327.1,354.8c-0.1,0.9-0.3,1.8-1.2,2.2c-0.8,0.1-1.3-0.4-1.6-1c-0.5-1.3-0.8-2.6-1.3-3.9
		c-0.5-2.3-2.4-3.7-3.2-5.8c-0.3-1.1-0.8-2.3,0.1-3.3c0.8,0.2,1.6,1,2.2-0.3C324.7,346.4,326.4,350.4,327.1,354.8z"/>
	<path class="st239" d="M298,307.9c1.7-0.1,2.6,1.4,4,2c-0.3,0.3-0.7,0.7-1,1c-0.7,0-1.3,0-2,0c-1.5,0.3-1.6-0.7-1.7-1.8
		C297.4,308.7,297.7,308.3,298,307.9z"/>
	<path class="st240" d="M306,324.9c1.7,4.2,5.5,6.5,8.2,9.8c1.6,1.9,3.3,3.7,3.8,6.2c-1.7,0.7-2.4-0.6-3.4-1.5
		c-1.1-1.8-2.4-3.5-4.3-4.6c-1.9-1.2-2.8-3.3-4.4-4.8c-0.3-0.3-0.6-0.6-0.9-0.9c-1.2-1.3-2.4-2.5-4-3.2c-0.9-1.1-1.6-1.2-2.1,0.3
		c-1,0.1-1.8-0.4-2.5-1c-0.8-1-1.2-2.1-1-3.3c0.4-1.4,0.7-2.9,2.5-3.2C300.9,320.3,304.2,321.7,306,324.9z"/>
	<path class="st241" d="M306,324.9c-2.9-1.7-6-3-8-6c-1-0.8-1.7-1.8-1.9-3.1c-0.1-1,0-2,0.6-2.8c3-0.7,3.6,2.2,5.3,3.5
		c1.4,1.1,2.7,2.3,3.9,3.6c2,2.2,4.1,4.4,6.1,6.6C309.6,327.7,308.6,323.8,306,324.9z"/>
	<path class="st242" d="M315,338.9c1,0.7,2,1.3,3,2c0.6,0.7,1.3,1.4,1.9,2c0.3,1,0.7,2,1,3c-0.7,1.3-1.6,1.5-2.7,0.4
		c-1-1.4-1.9-3-3.7-3.6c-1.1-0.6-1.9-1.4-2.2-2.6c-0.1-0.7,0-1.4,0.4-2.1C313.9,337.2,314.4,338.2,315,338.9z"/>
	<path class="st243" d="M305.9,320.2c-3.7-1.5-5.6-5.2-8.9-7.2c-1.2-0.1-2-0.8-3-1.4c-1.9-1.6-4.4-2.6-5.6-5c-0.1-0.8,0-1.5,0.6-2
		c4.2-1,6.3,2.1,8.9,4.4c0,0.8,0.2,1.6,1,2C299.8,315.2,304.6,316.4,305.9,320.2z"/>
	<path class="st244" d="M281,299.1c0.1-0.8,0.2-1.6,1-2.1c0.3,0,0.7,0,1,0c2.4,1.8,4.9,3.1,8,3c1.6,1.4,4.2,1.6,5,4
		c-0.8,0-1.6,0.2-2,1c-2.2,0.1-4.2-1.3-6.4-0.4C285.1,303.1,281.5,302.9,281,299.1z"/>
	<path class="st245" d="M288.1,303.9c2.2-1,4,0.3,6,1c1.8,0.4,3.7,0.6,4,3c0,0.3,0,0.7,0,1c-3.4-0.4-5.2-4.3-8.9-4
		C288.1,305.2,287.8,304.9,288.1,303.9z"/>
	<path class="st246" d="M241,430.9c0.7,0.7,1.4,1.3,2,2c-2.3,0.7-4.6-1.3-7,0c-3.7-1-7.3-2-11-3c-0.1-2.3,1.9-2.2,3.2-2.8
		c2.5-0.3,4.7,0.2,6.7,1.8C236.8,430.4,238.8,430.8,241,430.9z"/>
	<path class="st247" d="M219.1,430.9c-1.3,0-2.7,0-4,0.1c-1.3-0.7-2.7-1.4-4-2.1c-1-1.2-1.2-2.4-0.5-3.8c1.7-1.3,3.4-0.7,5.1,0.1
		c1.4,3.3,5.4,1.6,7.4,3.7C222.2,430.5,219.9,429.3,219.1,430.9z"/>
	<path class="st248" d="M223,428.9c-2.3-0.9-6.2,2.2-7-2.8c1.2-1.7,2.9-1.4,4.6-1.2c2.5,1,5.6,0.3,7.4,3c-1,0.7-2,1.3-3,2
		C224.4,429.6,223.7,429.2,223,428.9z"/>
	<path class="st249" d="M176.1,370.9c-0.7,0.3-1.3,0.6-2,1c0.4-6,4.6-9.7,8-14c0.7,3.4,1.3-0.7,2,0c0.5-0.3,0.9-0.2,1.3,0.2
		c0.4,3.5,3.1,6.8,1.2,10.6C182.2,365.7,179.3,369.1,176.1,370.9z"/>
	<path class="st250" d="M184.9,357.9c-0.3,0-0.6,0-0.9,0c-0.5-4.3,1.1-9.2-4-12c0.2-2.6,3-3.1,4-5.1c3.4,1,1.9,4.1,2.5,6.3
		C186.2,350.8,187.6,354.7,184.9,357.9z"/>
	<path class="st251" d="M173.1,342.9c0-0.3,0-0.7,0-1c1.3-1.6,3-2.9,4.3-4.5c1.2-1.6,2.8-2.7,5-1.5c0.4,0.8,0.4,1.5-0.4,2
		c-1.1,1.2-2.9,1.9-2.9,3.9c-1,1-0.5,3.6-3.1,3.1c-0.3,0-0.6,0-0.9,0C174.4,344.2,173.7,343.6,173.1,342.9z"/>
	<path class="st166" d="M175.9,344.9c1-1,2-2.1,3.1-3.1c0.2,2.3-0.2,4.1-3,4.1C176,345.5,176,345.2,175.9,344.9z"/>
	<path class="st252" d="M181.9,337.8c0.1-0.6,0.3-1.2,0.4-1.8c0.1-1.6,1.3-2.3,2.4-3.1c1.5-0.7,2.5-3,4.7-1.8
		c0.8,2.1-0.5,3.6-1.5,5.2c-0.8,0.8-1.3,2.1-2.8,1.7C184.1,334.6,182.9,338.6,181.9,337.8z"/>
	<path class="st253" d="M185.1,337.9c0.6-0.7,1.3-1.4,1.9-2c1.7,4.4,1,8.5-1.9,11.1c-0.5-2,0.7-4.3-1.1-6.1
		C184.4,339.9,184.8,338.9,185.1,337.9z"/>
	<path class="st254" d="M176.1,370.9c1.2-1.5,1.9-3.2,3.9-4.1c3-1.3,4.9-1.1,6.1,2c1.4-0.1,1.5,0.9,1.4,1.9
		c-1.5,3.1-4.3,4.5-7.5,5.1c-0.3,0-0.7,0-1,0C179.7,373.3,175.1,373.8,176.1,370.9z"/>
	<path class="st255" d="M180.1,375.9c1.5-2.6,5.1-2.4,6.7-5c3.1,2.4,3.6,5.9,3.9,9.4c-1.6,3.2-3.6,1.4-5.5,0.4
		c-1.1-0.7-1.6-1.7-2.1-2.8C181.6,377.9,180.2,377.9,180.1,375.9z"/>
	<path class="st175" d="M183.1,377.9c1,0.4,1.6,1,2,2c1.3,3.3-1.2,5-3,7c-1.9-0.3-2.9,0.7-3.3,2.5c-0.3,1.3-1,2.5-2.7,1.5
		C177.1,385.9,178.7,381.2,183.1,377.9z"/>
	<path class="st256" d="M210,420.8c-1.5,0.2-2.8-0.3-4-1.1c-1-1.4-3.9-2.5-0.8-4.6c1.3-0.4,2.5-0.3,3.8,0.1c2.1,0.9,4.2,1.6,6.4,2
		c2.2,1.1,5.4-0.6,6.8,2.6c-1.6,2.1-4.4,1.2-6.3,2.7C213.8,422.6,211.8,422.1,210,420.8z"/>
	<path class="st257" d="M191,412.9c2.2,0.8,0-2.9,2.2-2.1c1.2-1.1,2.5-0.3,3.7-0.1c0.4,0.1,0.8,0.3,1.2,0.4c0.8,0.4,1.5,0.7,2.3,1.2
		c0.5,0.4,0.9,0.9,1.2,1.5c0.1,1.6,1.9,3,0.6,4.8C198.3,417,194,416.1,191,412.9z"/>
	<path class="st258" d="M210,420.8c2.1-0.2,4.1,0.1,6,0.9c2.1-1.2,4.3-1,6.6-0.4c0.5,0.3,0.7,0.7,0.7,1.3c-1.1,1.7-2.7,1.3-4.3,1.1
		c3.6,0.5,3.6,0.5,5.1,2.4c-1,0.4-2,0.4-3,0c-1.7,0-3.4,0-5.1,0c-1.7-0.4-3.3-0.7-5-1.1c-1.2,0.6-2,0.5-2.1-1.1
		C213,424.2,210.7,422.2,210,420.8z"/>
	<path class="st259" d="M209,423.9c0.7,0.4,1.4,0.7,2.1,1.1c0,1.3,0,2.6,0,3.8c-1,0-2,0-3,0c-3-0.9-5.7-2.5-8.2-4.4
		c-0.6-0.7-1.1-1.5-0.7-2.5C202.5,421.9,205.4,424.5,209,423.9z"/>
	<path class="st260" d="M199.1,422c0.3,0.6,0.7,1.3,1,1.9c-0.4,0.9-0.9,1.5-2,1c-1.7-0.7-3.3-1.4-5-2.1c-1.4-1.6-2.7-3.3-4.1-4.9
		c0.4,0,0.8-0.1,1.2-0.1C193.1,419.2,196.1,420.6,199.1,422z"/>
	<path class="st261" d="M202.1,418.7c0.3-1.7-2.5-2.8-1-4.7c0.5-0.6,1.2-0.7,1.9-0.6c1.1,0.5,2.3,0.9,2.1,2.5
		c-1.4,1.7,1.5,2.4,0.9,3.9C204.7,419.4,203.4,419.1,202.1,418.7z"/>
	<path class="st262" d="M190.8,409c-3.1,2-4.3-1.8-6.7-2c-0.3-1-0.6-2.1-1-3.1c1.1-0.9,2-0.3,3,0.3c0.5,0.4,1,0.8,1.5,1.2
		c0.7,0.5,1.4,0.9,2.1,1.3C190.3,407.2,191.9,407.5,190.8,409z"/>
	<path class="st263" d="M179.3,399.9c1.4-0.1,2.3-0.8,2.8-2c3.7,0.5,3.3,2.4,1.6,4.8c-0.2,0.1-0.5,0.2-0.7,0.3
		C181.6,402.2,180,401.6,179.3,399.9z"/>
	<path class="st264" d="M186,405.1c-0.9-0.4-1.9-0.9-2.8-1.3c-0.1-0.3-0.1-0.6-0.2-0.8c0,0,0.2-0.1,0.2-0.1c1.3-0.6,2.5-2,4.2-0.8
		C187.9,403.5,187.4,404.5,186,405.1z"/>
	<path class="st265" d="M190.8,409c-0.6-0.7-1.3-1.3-1.9-2c0.3-0.6,0.9-1.1,1.5-1.2c4.7-1,5.9-4.2,5.2-8.5c0.2-0.8,0.7-1.3,1.4-1.6
		c1.8-0.2,2.8,0.9,3.7,2.2c0.3,0.4,0.5,0.9,0.6,1.4c1.3,6.5,0.1,10-4.2,12.6c-1.3-0.3-2.6-0.6-4-0.9
		C192.4,410.2,191.6,409.6,190.8,409z"/>
	<path class="st266" d="M181.1,393.9c0.7-2,1.3-4,2-6c2.5-2.9,5.4-2.1,8.4-0.9c1,1.8,0.6,3.4-0.6,5
		C187.9,394.4,185.2,397.9,181.1,393.9z"/>
	<path class="st267" d="M191,386.9c-2.5,1.3-5.5-0.6-8,1c-0.3-0.3-0.7-0.7-1-1c-0.1-2.8,2.8-4.3,3-7c1.8-0.4,2.9,2.5,4.9,1
		c0.4,0.2,0.7,0.6,0.9,1c0.4,1.3,0.8,2.5,0.8,3.9C191.6,386.2,191.4,386.6,191,386.9z"/>
	<path class="st268" d="M181.1,393.9c3.5,1.7,6.2-0.6,9-2c0.9,2.1,0.1,3.8-1.2,5.5c-1.2,1.3-0.4,3.3-1.8,4.5
		c-1.2,0.6-2.5,1.2-3.9,0.9c1-1.9,1.4-3.8-1.1-4.9C182,396.5,179,395.9,181.1,393.9z"/>
	<path class="st269" d="M224.1,294.2c2.7-0.1,5.3-0.2,8-0.2c1,0.4,2.1,0.8,3.1,1.1c1.1,0.7,2.8,0.4,3.3,2.1c0,0.5-0.2,0.9-0.5,1.2
		c-1.6,1-3.4,1.5-4.9,2.5c-2,0.9-3.9,2-6.1,2.3c-1.7,0.1-3.4,0-4.7-1.4c-1.7-2.7,3-3.7,1.7-6.3C223.7,295,223.8,294.6,224.1,294.2z"
		/>
	<path class="st270" d="M262,290.8c1,0.5,2,0.9,2.9,1.4c-0.5,1.5-0.3,2.3,1.4,3.3c2.1,1.2,5.3,2.2,4.3,5.9c-3.6,0.8-5.9-1.9-8.7-3.4
		c-2.6-0.5-4.9-1.4-7-3c-1.6-4,3.1-2.8,3.9-4.8C260,290.4,261,290.6,262,290.8z"/>
	<path class="st271" d="M262,298c3,1,6,2,9,3c1.3-1,2.4-0.3,3.5,0.3c1.2,1.1,3.5,1.7,2.3,4.1c-2.1,1.1-4.1-0.1-6.1-0.5
		c-3.2-1.4-7.6,0.3-9.8-3.8C265.5,301.6,262.5,299.3,262,298z"/>
	<path class="st272" d="M260.9,301c3.1,2.1,7,1.1,10.2,2.9c0,1-0.3,1.9-1.1,2.5c-0.4,0.2-0.9,0.4-1.4,0.5c-2.1,0.3-3.9-0.3-5.7-1.2
		c-1.9-1.7-5.5-1.3-5.7-4.9C258.3,300.9,259.6,301,260.9,301z"/>
	<path class="st273" d="M257.1,300.8c1.4,2.2,4.4,2.1,6,4.1c0.6,1.1-0.1,1.7-0.9,2.3c-1,0.3-1.8-0.1-2.6-0.5c-1-0.5-2.1-0.8-2.9-1.5
		c-1.5-2.9-5.4-3.1-6.9-6c-0.1-0.5,0-0.9,0.3-1.3C252.8,298,255,299.2,257.1,300.8z"/>
	<path class="st274" d="M250.1,297.8c0,0.4,0,0.7,0,1.1c-0.8,2.5-2.6,0.9-4,1c-1.4-0.3-2.7-0.8-4.1-1.2c-1.3-0.4-2.7-0.7-3.8-1.7
		c-1-0.6-2-1.3-3-1.9C240.3,295.2,245.3,295.9,250.1,297.8z"/>
	<path class="st275" d="M224.1,294.2c0,0.3,0,0.5,0,0.8c-0.3,0.4-0.7,0.7-1.2,0.9c-3.3,0.7-6.9,0.1-10.1,1.7
		c-1.6,0.1-3.3,0.6-4.8-0.6c0-0.4,0-0.7,0-1.1C213.2,293.4,218.6,293.9,224.1,294.2z"/>
	<path class="st276" d="M198.1,424.9c0.7-0.3,1.3-0.6,2-1c2.7,1.6,6.1,2,8,4.9c0,0.7,0,1.4,0,2c-0.7,0-1.4,0-2,0
		c-1.7-0.4-3.3-0.7-5-1.1C200.1,428.2,199.1,426.6,198.1,424.9z"/>
	<path class="st277" d="M174.1,332.9c0-0.3,0-0.7,0-1c2.3-4.8,5.3-9,11-11.4c0,2.6,0,5,0,7.4c0.1,1.1-0.3,2-1.2,2.6
		c-1.3,0.7-2.6,1.2-3.6,2.4C178.2,335.4,176.1,335.1,174.1,332.9z"/>
	<path class="st88" d="M184.1,329.9c0-0.8,0.2-1.6,1-2c1.7-1.2,0.4-4.3,3-5c0.3,0.3,0.7,0.7,1,1c1.6,2.3-0.4,4-1,6
		c-0.4,0.6-0.8,1.2-1.6,1.4C185.4,331.3,184.6,330.8,184.1,329.9z"/>
	<path class="st278" d="M193.1,317.9c-0.2-4.2,2.7-7.3,4-11c3.3-2.7,4.1-7.9,9-9c0.6,0.6,0.7,1.2,0.6,2c-3.4,5.4-6.2,11.2-10,16.5
		C195.7,317.6,195,319.1,193.1,317.9z"/>
	<path class="st279" d="M206.1,299.9c0-0.7,0-1.3,0-2c0.7-0.4,1.3-0.7,2-1.1c1.3,0,2.7-0.9,4,0c0.3,0.4,0.4,0.9,0.1,1.4
		C210.5,300.2,208.5,300.7,206.1,299.9z"/>
	<path class="st280" d="M193.1,317.9c1.6,0.2,2-1.4,3-2c0.4-0.3,0.7-0.3,1.1-0.1c-0.6,1.7,1.5,2,1.7,3.3c0.1,0.5,0.1,1,0.1,1.4
		c-1,3.2-2.9,5.3-6.2,6.1c-0.8,0-1.6-0.3-2.1-1c-0.5-2.8,0.4-5.3,1.5-7.7C192.4,318,192.8,318,193.1,317.9z"/>
	<path class="st281" d="M192.1,318c-0.4,2.6-0.8,5.3-1.1,7.9c-0.4,0.2-0.9,0.2-1.2-0.1c-0.2-0.7-0.3-1.4,0.3-1.9
		c0.3-2.3,0.7-4.6,1-6.9C191.4,317.3,191.8,317.7,192.1,318z"/>
	<path class="st282" d="M190.1,323.9c0,0.7,0,1.4,0.1,2.2c0.5,0.6,0.6,1.2,0.4,2c-0.8,1.2-1.6,2.4-3.4,1.9c0.6-2,1.3-4,1.9-6
		C189.4,323.9,189.7,323.9,190.1,323.9z"/>
	<path class="st283" d="M274,301.9c-1-0.3-2-0.7-3-1c-2.3-1.8-3.8-4.7-7.3-5.1c-1.9-0.2-1.5-1.8,1.2-3.7c5.7,1.4,11,3.8,16,6.9
		c1.9,2.4,4.8,3.1,7.1,4.9c0.3,0.3,0.7,0.7,1,1c0,0.6,0.1,1.3,0.1,1.9C283.5,307.3,279,303.7,274,301.9z"/>
	<path class="st284" d="M221.1,426.1c1-0.1,1.9-0.2,2.9-0.3c1.5-1.5,3.4-1.2,5.2-0.9c1.7,0.5,3.3,1,4.9,1.9c0.4,0.3,0.7,0.7,1,1.1
		c0,0.3,0,0.7,0,1c-2.3-0.3-4.6-0.7-6.9-1C225.8,427.3,223.4,426.7,221.1,426.1z"/>
	<path class="st285" d="M235.1,427.9c-0.3-0.1-0.6-0.1-1-0.2c-0.6-0.4-0.7-1-0.5-1.7c0.3-0.6,0.8-1,1.5-1.1c2,0.3,4.2-0.7,6,0.9
		c-1.4,0.3-3-0.4-4,1.1C236.6,427.7,235.9,427.9,235.1,427.9z"/>
	<path class="st286" d="M283,412.9c0.4-3,1-6.2-4-5c-1.8-3.3,2.8-3.9,2.8-6.4c3.9-4.7,6.6-10.4,12-13.8c2.1,1.1,1.5,2.8,0.8,4.4
		c-0.1,0.3-0.3,0.6-0.5,0.8c-2.9,5.5-2.5,6.3,3.1,7.2C296.1,405.9,288.3,412.9,283,412.9z"/>
	<path class="st287" d="M283,412.9c5.7-3.2,11-6.8,14-13c0.2-1.5,0.9-2.6,2.2-3.3c0.5,0,0.9,0.2,1.2,0.6c0.5,0.9,0.6,1.8,0.6,2.8
		c-0.1,1.3-0.6,2.4-1.7,3.1c0,0-0.4-0.2-0.4-0.2c-7.4,7.1-14.6,14.3-23.9,18.9C275.3,416.8,279.9,415.5,283,412.9z"/>
	<path class="st288" d="M272,412.9c-0.3,0-0.7,0-1,0c0-0.6,0-1.3,0-1.9c0-3.1,2.5-2.9,4.5-3.4c0.2,0.1,0.4,0.3,0.6,0.4
		C276.3,410.9,273.8,411.6,272,412.9z"/>
	<path class="st288" d="M282.9,401.7c0.7,3.3-4.2,3.2-3.9,6.2c-1,0-1.9,0.1-2.9,0.2c0,0-0.2-0.2-0.2-0.2
		C276.7,404,279,402,282.9,401.7z"/>
	<path class="st289" d="M282.9,401.7c-2.5,1.8-4.9,3.7-6.9,6.2c-1.7,1-3.7,1.4-4.9,3.2c-1.9,0.6-3.6,1.4-5.1,2.8
		c-1.6,0.8-3,1.7-4.5,2.6c-0.4,0.2-0.8,0.4-1.3,0.5c-3.6,1.7-7.4,2.6-11.3,2.9c-3.3,0.7-6.7,1.4-10,2c-0.4,0.9-0.9,1.5-2,1.2
		c-1.9-1.1-4-1.5-6-2.2c-1-0.4-2-0.7-3.1-1.1c-1.6-0.6-3.2-1.4-4.8-2.2c-1.7-0.9-3.3-2-5-2.8c-0.6-0.3-1.1-0.7-1.5-1.1
		c-0.9-0.9-2-1.6-2.9-2.4c-1-0.9-1.8-1.8-2.8-2.6c-0.7-0.5-1.4-1-2.1-1.4c-1.5-1.2-2.7-2.6-4.4-3.6c-1.9-1.3-3.2-3-4.1-5.1
		c0.1-0.2,0.1-0.4-0.1-0.6c-0.9-1.7-2.5-2.7-3.7-3.9c-2.7-3.8-4.6-8-6.2-12.3c0.1-0.3,0-0.5-0.2-0.8c-1.1-3.3-2.1-6.7-3.2-10
		c0.2-0.8,0-1.5-0.6-2c0.9-3.8-2.8-7.1-1.2-10.9c0.1-3.7,0.1-7.3,0.2-11c1.4-3.6,1.5-7.3,1.9-11.1c0.7-1.6,1.9-3.1,2-5
		c-0.6-1,0.2-1.5,0.7-2.2c1-1.1,2-2.1,3.3-2.8c1.7-1.8,4.4-2.8,5-5.7c4.1-4.1,9.3-6.4,14.7-8.3c2.1-0.9,4.3-1.3,6.4-2
		c2.9-1,6-1.5,9-2.2c2.5-0.2,4.8-1.2,7.2-1.2c3.9,0,7.9,0,11.8,0c1.1,0,2.2,0,3.3,0.1c0.8,0,1.6,0.2,2.3,0.4
		c1.6,0.6,3.4,0.7,5.1,1.1c2.1,0.6,4.2,1,6.2,1.7c2,0.7,4,1.3,5.9,2.3c3.2,1.7,6,3.9,8.9,6c0.5,0.4,1.1,0.8,1.5,1.3
		c0.8,0.8,1.5,1.5,2.3,2.3c1.7,1.7,3.5,3.3,5,5.3c2.2,3.1,4.9,5.8,6.6,9.3c0.4,0.8,0.8,1.6,1.2,2.4c0.2,0.4,0.4,0.8,0.6,1.2
		c1.4,3.1,3.1,6.1,4.5,9.3c0.2,0.5,0.3,0.9,0.4,1.4c0.2,2,0.5,3.9,1,5.8c0.2,0.8,0.2,1.5,0.2,2.3c0,2.9,0.2,5.8-0.3,8.7
		c-1,3.6-1.3,7.4-2.7,10.9c-0.2,0.5-0.4,0.9-0.6,1.3c-1.5,2.8-1.8,6.4-5,8.3C290.2,392.4,286.5,397,282.9,401.7z"/>
	<path class="st207" d="M264,415.9c-2.8,1.9-5.2,4.4-9,4c0,0,0,0,0,0c0.8-3.1,4.1-2.5,6-4l0,0C262,415.3,263,415.1,264,415.9z"/>
	<path class="st290" d="M264,415.9c-1,0-2,0-3,0c1.5-1.2,3-2.1,5-2.1C265.3,414.5,264.7,415.2,264,415.9z"/>
	<path class="st198" d="M237.2,422.9c0.6-0.3,1.1-0.7,1.7-1c0.9,1.7,3.3,0.2,4.3,1.9c-2.7,0-5.4,0.1-8.1,0.1c-3.3,1.7-6.4,2-9.2-0.9
		c2-2.1,4.5-1.5,7-1.3C234.3,422,235.9,421.8,237.2,422.9z"/>
	<path class="st290" d="M261,415.9c-2,1.3-4,2.7-6,4c-1.7,0.3-3.3,0.7-5,1c-0.4-0.4-0.8-0.7-1.2-1.1
		C252.9,418.5,257,417.2,261,415.9z"/>
	<path class="st291" d="M226.1,422.9c2.8,2,6,0.5,9,1c0,0.3,0,0.7,0,1c-0.3,0.4-0.7,0.7-1,1.1c-1.3,0.7-2.7,0.6-4,0
		c-2,0-4-0.1-6-0.1c-1.9-2.1-5.2,0.3-8-2.9c2.9,0,5,0,7,0C224.1,422.1,225.1,422,226.1,422.9z"/>
	<path class="st292" d="M323,366.9c0,0.7,0,1.3,0,2c-2,2.7-0.2,7.1-4,9c-0.3-0.3-0.7-0.7-1-1c1.1-1.3,0.3-2.7,0.1-4.1
		c-0.1-1.8,0.5-3.4,1.5-4.9C320.6,366.9,321.6,366.3,323,366.9z"/>
	<path class="st293" d="M308,371.9c-1,0.6-2,0.7-2.9,0c-1.1-0.9-1.2-2.2-1.1-3.5c0.1-0.5,0.3-0.9,0.6-1.4c0.4-0.3,0.8-0.5,1.3-0.6
		c3.2-0.1,3.3-2.7,3.7-4.8c0.7-3.3-0.3-6.5-1-9.6c-0.4-4.9-3.3-9.1-4.1-13.9c0.5-1,1.3-1.5,2.5-1.4c1.6,0.8,2.6,2.2,3,3.8
		c1.5,5.3,4.3,10.1,5.8,15.3c-0.3,3.3-1.9,6.1-2.9,9.1C311.4,367.3,310.7,370.3,308,371.9z"/>
	<path class="st294" d="M308,371.9c1.4-2.3,2-5,4-7c4.5-0.7,5.7,0.1,6.5,4.2c0.3,1.3-0.6,2.7,0.5,3.8c-0.1,1.4,0.5,2.9-1,4
		C316.8,369.4,316.8,369.4,308,371.9z"/>
	<path class="st295" d="M305,368c0,1.3,0.1,2.6,0.1,3.9c-0.2,1.8,0,3.5,0.9,5c0,0,0,0,0,0c-1.2,1.6,0.7,3.2-0.1,4.8
		c-0.2,0.4-0.5,0.8-0.8,1.2c-0.3,0.3-0.6,0.7-0.9,1c-2.8-3.5-1-7.5-1.5-11.3c0-1.5,0-3,0.8-4.3C303.9,367.8,304.4,367.6,305,368z"/>
	<path class="st296" d="M305,381.9c0.2-1.7-0.7-3.6,0.9-5c0,0.3,0,0.7,0.1,1c1.1,2.1,3.3,2.6,5,4c0,0.7,0,1.3,0,2c-0.3,0-0.7,0-1,0
		C307.4,385.6,306.7,382.5,305,381.9z"/>
	<path class="st297" d="M184.1,329.9c0.8,0,1.6,0.2,2,1c0.6,1.3-0.5,2-1.1,2.9c-0.9,0.7-1.8,1.4-2.7,2.1c-2.1,0-3.7,0.9-4.6,2.8
		c-0.9,1.9-2.5,2.9-4.5,3.1c-0.1-1.5-2.6-3.4,1.5-4.1c2.2-0.4-1.7-3-0.5-4.9c2.2,0.5,4.5,1.9,5.7-1.8
		C180.3,329.4,182.5,330,184.1,329.9z"/>
	<path class="st293" d="M323,366.9c-1,0.3-2,0.7-3,1c-1.7-2.1-0.4-4.2-0.1-6.3c0.9-1.4,0.4-4.3,3.5-3.4c0.9,2,0.8,3.9-0.4,5.7
		C323,364.9,323,365.9,323,366.9z"/>
	<path class="st298" d="M323,363.9c0-2,0-4,0-6c-0.3-1.6,0.4-2.2,1.9-2c0.3,0.3,0.7,0.7,1,1c0,1,0.1,2,0.1,3
		C324.4,360.8,325.8,363.9,323,363.9z"/>
	<path class="st299" d="M299.4,403.1c0.2-1.1,0.4-2.1,0.7-3.2c1.3-2.2,0.7-4.8,2-7c0.2-0.4,0.5-0.7,0.9-1c0.4,0,0.7,0,1.1,0
		c-0.2,3.9,0.7,7.9-2.1,11.4C300.6,404.9,300.2,403.9,299.4,403.1z"/>
	<path class="st300" d="M302.9,391.9c0,0.3-0.1,0.7-0.1,1c-0.9,1.4-1.5,2.9-2.8,4c-0.3,0-0.7,0-1,0c-4,1.6-4.6-1.1-5-4
		c1.8-2,2.5-6.2,6.8-3.8c0.5,0.5,0.7,1.2,1.1,1.7C302.3,391.2,302.6,391.6,302.9,391.9z"/>
	<path class="st301" d="M301.9,390.9c-0.3-0.3-0.6-0.7-0.9-1c-3.5-3-3.8-6.9-3.1-11.1l0,0c2.1-1.1,0.8-4.7,3.7-5.2
		c1.8,1,1.3,2.7,1.3,4.3c-0.1,3.8,0.6,7.6-0.8,11.2C302.1,389.8,302,390.3,301.9,390.9z"/>
	<path class="st302" d="M302.1,389.2c0.3-3.8-0.9-7.5-0.1-11.3c0.5-0.4,0.9-0.3,1.3,0.1c0.5,2.2-0.3,4.6,0.5,6.8
		C303.9,386.5,303.3,388,302.1,389.2z"/>
	<path class="st303" d="M305,381.9c1.7,0.7,3.3,1.3,5,2c0,1.3,0,2.7,0,4c-1.1-1.1-2.1-2.4-4-2c-0.1-1.1,0.2-2.3-1-3
		C305,382.6,305,382.3,305,381.9z"/>
	<path class="st304" d="M303.8,384.8c-1.6-2.1-0.5-4.6-0.8-6.9c-0.7-1.8-0.6-3.7-0.5-5.6c0.3-0.6,0.8-0.7,1.3-0.4
		c0.1,4,0.2,8,0.3,12C304.1,384.2,304,384.5,303.8,384.8z"/>
	<path class="st305" d="M324.9,356c-0.6,0.7-1.3,1.3-1.9,2c-0.7,1.3-1.3,2.7-2,4c-4.2,1.2-5.2,0.7-5.3-3.3c0-1,0.1-2-0.7-2.7
		c-2.7-6.3-5.3-12.7-8-19c-0.3-0.4-0.5-0.8-0.5-1.3c0.1-0.5,0.4-0.8,0.9-1c1.7,0.1,2.5,1.5,3.2,2.8c3,6.2,7.1,11.3,13.4,14.5
		C324.7,353.2,325.2,354.5,324.9,356z"/>
	<path class="st306" d="M323.9,352c-7.6-0.4-9.8-6.9-13.3-11.8c-1.2-1.7-1.4-4.1-3.6-5.2c-0.5-0.6-0.6-1.2-0.3-1.9
		c0.4-0.3,0.8-0.4,1.3-0.3c2.6,1.7,4.2,4.2,5,7.2c0.4,1,1,1.6,2,2c1.8,0.9,2.2,3.2,4,4c0.6,1.1,1.3,0.1,1.9,0
		C321.4,348.2,324.2,349.3,323.9,352z"/>
	<path class="st307" d="M300.2,349.9c-0.1-0.3-0.2-0.6-0.2-1c-0.7-1-1-2.3-0.8-3.3c1.4-6.3-0.7-12-3-17.7c-0.1-1.2-0.1-2.3,0.9-3.1
		c0.6,0.3,1.3,0.7,1.9,1c2.5-0.1,2.1,2.2,2.9,3.5c0.3,0.9,0.6,1.8,0.9,2.8c0.4,1.9,0.8,3.8,1.1,5.8c0,0.8,0.1,1.5,0.2,2.3
		c0.2,2,0.3,4-0.3,6c-1,1.2,0.2,2.8-0.9,4C302,350.8,301.1,350.7,300.2,349.9z"/>
	<path class="st308" d="M297.1,324.9c0,1,0,2,0,3c0.7,1.8,0.7,3.7,1.3,5.5c0.8,2.5,1,5.8-3.4,5.6l0-0.2c-1.1-3.4,0.3-7-0.9-10.4
		c-0.6-1.6-1.2-3.3-1.6-4.9c-0.7-1.9-1.9-3.6-1.6-5.7c0.2-1.1,0.6-2,1.7-2.3c0.8-0.1,1.4,0.2,1.9,0.9c1,1.7,1.7,3.4,1.5,5.5
		C296.4,322.9,296.8,323.9,297.1,324.9z"/>
	<path class="st309" d="M301.1,330c-0.7-1.3-1.3-2.7-2-4c-0.1-1.8,0.9-1.5,2-1c1.7,1.3,3.1,2.9,5,4l0,0c0.5,1.3,2.3,2.2,1,4l0,0
		C304.4,333.3,303.3,330.4,301.1,330z"/>
	<path class="st310" d="M307,332.9c-0.3-1.3-0.7-2.7-1-4c2.5,0.8,2.7,4,5,5c0.5,1.4,2.6,2,2,4c0,0.7,0,1.3,0,2
		C310.6,337.9,310,334.4,307,332.9z"/>
	<path class="st311" d="M296.1,321.9c-0.8-1.6-1.8-3.1-2-5c0.8-0.9,1.6-1.7,2.9-0.9c0.3,1,0.7,2,1,2.9
		C297.4,320,296.7,320.9,296.1,321.9z"/>
	<path class="st310" d="M306,328.9c-2.6-0.2-4.1-1.7-5-4C303.6,325.2,304.8,327.1,306,328.9z"/>
	<path class="st312" d="M313,337.9c-0.6-1.4-2.1-2.3-2-4c1.9,1.2,3.7,2.5,4,5C314.4,338.6,313.7,338.3,313,337.9z"/>
	<path class="st313" d="M297,316c-1,0.3-1.9,0.6-2.9,0.9c-0.4-0.3-0.7-0.7-1.1-1c-0.3-0.3-0.4-0.7-0.3-1.2c0.8-1.3,1.1-2.8,2.3-3.8
		c1.1,0.2,1.6,1,2,2C297,314,297,315,297,316z"/>
	<path class="st310" d="M319,345.9c-2.6,0-3-2.3-4-4C317.7,342,318,344.2,319,345.9z"/>
	<path class="st314" d="M295,311c-0.1,1.6,0.6,3.7-2.1,4c-3.3-0.3-5.4-3-8.2-4.2c-2.3-1.7-5.2-2.5-7.5-4.2c-0.3-0.3-0.4-0.8-0.3-1.2
		c0-1.9-2.1-2.1-2.8-3.4c5.4,0.5,10.2,3,15.2,4.9C291.5,307.7,293.2,309.5,295,311z"/>
	<path class="st315" d="M185,333.9c0.4-1,0.7-2,1.1-2.9c0.4-0.3,0.7-0.7,1.1-1c1-0.7,1.9-1.3,2.9-2c0.5,0.4,0.5,0.8,0.1,1.2
		c-0.3,0.6-0.7,1.2-1,1.8C187.7,331.9,186.3,332.9,185,333.9z"/>
	<path class="st316" d="M223,422c-2.3-0.1-4.6-0.1-6.9-0.2c1.1-3.4,4.1-1.2,6-1.9c1.7-1.7,3.6-0.9,5.5-0.4c1.3,0.5,2.7,0.6,3.7,1.7
		c0.1,0.6-0.2,1.1-0.8,1.3C228,422.2,225.4,422.9,223,422z"/>
	<path class="st317" d="M228,420c-2-0.1-4-0.1-5.9-0.2c-2-2-5.1,0.1-7.1-1.9c0.2-0.2,0.4-0.4,0.5-0.6c2.5-1.2,5.1-1.5,7.8-0.5
		c1.6,0.7,3.1,1.4,4.7,2.1c0.2,0.2,0.3,0.5,0.2,0.7C228.2,419.9,228.1,420,228,420z"/>
	<path class="st318" d="M216.9,413c0.4,0.3,0.8,0.7,1.2,1c1.5,3.2-1.6,2.9-3,3.9c0,0,0,0.1,0,0.1c-2.3,0.1-4.5-0.2-6.2-2
		c0.4-0.6,1-0.9,1.7-1.1c0.4-0.1,0.9-0.2,1.4-0.2C213.9,414.9,214.9,412.5,216.9,413z"/>
	<path class="st319" d="M211.1,415.9c-0.7,0-1.5,0.1-2.2,0.1c-1.2-0.1-2.5-0.1-3.7-0.2c-0.8-0.6-1.5-1.2-2.3-1.8
		c0.7-1,1.7-1.1,2.8-1.1c0.5,0,1,0.1,1.5,0.2C208.6,413.9,210.9,413.3,211.1,415.9z"/>
	<path class="st320" d="M200.2,398.6c1.6,1.5,3.2,3,4.8,4.5c1,2.1,2.6,3.9,2.5,6.4c-0.2,0.5-0.4,0.9-0.8,1.2
		c-2.7,1.8-5.6,2.4-8.8,1.2c-0.3,0-0.6,0-0.8-0.2C200.6,408,201.3,403.5,200.2,398.6z"/>
	<path class="st321" d="M197.9,412c3.3,0.3,6.1-1.6,9.1-2.1c1,3.9-2.4,2.5-4,3.3c-1.1,0.1-2.1,0.3-3.1-0.3
		C199.3,412.7,198.6,412.3,197.9,412z"/>
	<path class="st322" d="M199.9,413c1,0,2.1,0,3.1-0.1c1.2-0.3,2.7-1.5,3,1c-1.1,0-2.1,0.1-3.2,0.1c-0.6,0-1.2,0-1.8,0
		C200.7,413.7,200.3,413.3,199.9,413z"/>
	<path class="st323" d="M223,422c2.7,0,5.4-0.1,8.1-0.1c1.1-0.6,2-0.7,2,1c-2.3,0-4.7,0.1-7,0.1c-1,0-2,0-3,0
		C223.1,422.6,223,422.3,223,422z"/>
	<path class="st324" d="M196.1,396.9c2.3,6.8,0.9,8.7-7.2,10.1c-0.6-0.4-1.2-0.7-1.8-1.1c1.8-1.8,3.9-3.4,3.3-6.6
		c-0.3-1.6,1-3.1,1.7-4.5c0.6-0.9,1.4-1.6,2.5-1.6C197,393.7,197,395.1,196.1,396.9z"/>
	<path class="st325" d="M193.1,395.9c-0.6,1.5-2.5,2.4-1.7,4.3c1.8,4.4-1.4,4.9-4.3,5.7c-0.4-0.3-0.7-0.5-1.1-0.8
		c0.4-1.1,0.7-2.1,1.1-3.2c0.6-1.6-1.8-3.8,1-5C189.6,396.1,191,394.2,193.1,395.9z"/>
	<path class="st326" d="M196.1,396.9c0-1.4,0-2.9-2-3c-2.2-2.2-1.9-5.4-3-8c-0.7-1.3-1.2-2.7-0.9-4.3c2.3,4,4.7,8,7,12
		c0.4,0.8,0.5,1.5-0.1,2.2C196.7,396.2,196.4,396.6,196.1,396.9z"/>
	<path class="st327" d="M197.1,395.9c0-0.7,0.1-1.5,0.1-2.2c1.3,1.2,2.7,2.3,2.9,4.3C199.1,397.3,198.1,396.6,197.1,395.9z"/>
	<path class="st264" d="M191.1,385.9c1.4,2.5,3.4,4.8,3,8c-0.8,0.4-1,1.2-1,2c-1.7,0.3-3.3,0.7-5,1c1.4-1.4,1.3-3.3,2-5
		c0.9-1.5,1.1-3.2,1-5C191.1,386.6,191.1,386.3,191.1,385.9z"/>
	<path class="st328" d="M212.9,313c-4.9,2.4-9.8,4.9-14.8,7.3c0-0.4,0-0.9,0-1.3c0.3-0.4,0.6-0.7,0.9-1.1c6.1-3.8,10.3-9.6,15-14.9
		c2.7-0.7,5.2-2.4,8.1-2c1.5,1,3.2,1.1,5,1c0,2.6-2.4,2.3-3.8,3C219.1,306.8,215.4,309.2,212.9,313z"/>
	<path class="st329" d="M212.9,313c-2.4-0.6-0.7-1.6-0.1-2.2c3.9-4.3,9.1-6.5,14.3-8.8c2-0.7,4-1.3,6-2c0.7-0.5,1.5-0.7,1.9,0.2
		c0.5,1-0.5,1.6-1.1,2.2c-0.9,0.7-1.6,1.6-2.3,2.5c-1.4,1.4-3.3,1.6-5,1.5c-4-0.4-6,3-9.1,4.2c-0.3,0.1,0.1-0.1,0.1,0
		c0.7-0.1,1.3,0,1.7,0.6C217.1,311.7,215,312.3,212.9,313z"/>
	<path class="st330" d="M222.1,301c-2.3,2-5.2,2.3-8,3c-0.6-2.1,0.9-3.6,1.3-5.4c1.8-2.8,4.8-2.9,7.6-3.5c0.4,0,0.8,0,1.1-0.1
		c2.6,0.6,2.3,2,0.8,3.4C224,299.3,222.5,299.6,222.1,301z"/>
	<path class="st331" d="M233,302c-0.5-0.7,3.3-1.4,0-2c1.3-1.5,3-2,5-2c2.8,0.4,2.9,2.1,2.1,4.2c-1.5,1.1-3.2,1.1-4.9,0.9
		C234.4,303,233.6,302.7,233,302z"/>
	<path class="st332" d="M240,302c-0.2-1.6-0.7-3-2-4c0-0.3,0-0.6,0.1-1c1.4,0.1,2.9-0.5,3.9,1c2,1.3,4,2.6,1.2,5.1
		C241.9,303.5,240.9,303.1,240,302z"/>
	<path class="st333" d="M276.9,305.3c0,0.2,0.1,0.4,0.2,0.6c1,0.7,2,1.5,1.2,3c-1.2,0.8-2.4,0.2-3.5,0c-1.7-0.7-3.9-0.8-4.7-3
		c0-0.8,0.2-1.6,1-2C273,304.4,274.9,304.8,276.9,305.3z"/>
	<path class="st334" d="M262,306.9c0.3-0.7,0.7-1.3,1-2c2,0.3,4,0.7,6,1c0.9,1.3,2.9,2.1,2,4.2c-2.2,0.9-4.4,0.5-6.7,0.1
		C263,309.6,262.2,308.5,262,306.9z"/>
	<path class="st335" d="M271,310c-0.6-1.4-2.1-2.3-2-4c0.3,0,0.7,0,1,0c1.7,0.7,3.3,1.3,5,2c1.1,1.2,1.8,2.4,1.2,4.1
		c-1.5,1-2.9,0.4-4.3-0.3C271.2,311.3,270.7,310.8,271,310z"/>
	<path class="st336" d="M246,299c1.3-0.5,2.7,1,4,0c2.1,2.3,6.6,1.7,7,6c-1.1,0.7-2.2,0.2-3.3-0.1c-1.1-0.3-2.1-0.8-3.1-1.4
		C249.2,301.9,246.1,301.9,246,299z"/>
	<path class="st337" d="M262,306.9c1.3,0.6,2,1.5,2,3c-0.2,0.1-0.4,0.2-0.6,0.2c-1.6-1.5-3.8-0.2-5.5-1.2c-1.7-0.2-3.5,0-5.1-1
		c1.9-2.3,4.6-2,7.2-2.1C260.7,306.3,261.4,306.6,262,306.9z"/>
	<path class="st338" d="M260,306c-2.2,1.4-4.7,1.7-7.2,2.1c-0.6-0.1-1.2-0.1-1.8-0.2c0.6-1.6,2.3-2.4,3-3.9c1,0.3,2,0.7,3,1
		C258.1,305,259.3,304.8,260,306z"/>
	<path class="st339" d="M246,299c1.3,1.8,4.1,1.7,5,4c0.4,0.5,0.3,0.9-0.1,1.4c-2.6,1.3-5,0.2-7.4-0.8c-0.2-0.2-0.3-0.4-0.5-0.6
		c1.7-2.1-0.1-3.4-1-5C243.5,297.8,244.8,298.3,246,299z"/>
	<path class="st340" d="M223,295c-2.3,1.3-4.6,2.6-6.9,3.9c-1.2,1.4-1.5,3.8-4.2,3c-0.5-0.6-0.7-1.3-0.6-2c0.2-0.7,0.4-1.4,0.9-2
		c0-0.3,0-0.7,0-1C215.3,294,219.3,295.2,223,295z"/>
	<path class="st341" d="M212,298c0,0.7,0,1.3,0,2c-3,5.2-8.1,8.7-11.1,13.9c-0.7,1.2-2.2,2-3.8,2.1c-0.3,0-0.6,0-1,0
		c3.2-5.4,5.5-11.4,10-16C208.1,299.3,210.1,298.6,212,298z"/>
	<path class="st342" d="M197.1,315.9c5.5-4.9,8.6-11.9,15-16c0,0.7,0,1.3,0,2c-3.7,6.1-8.1,11.7-13,17c-0.3,0-0.6,0-1,0
		C197.5,318.1,195.9,317.5,197.1,315.9z"/>
	<path class="st343" d="M190.1,329.2c0-0.4,0-0.8-0.1-1.2c0-0.6,0.1-1.2,0.1-1.9c0.3,0,0.6-0.1,0.9-0.1c0.7,0,1.4,0,2.1,0
		C192.1,327,191.1,328.1,190.1,329.2z"/>
	<path class="st323" d="M230,426c1.3,0,2.7,0,4,0c0,0.6,0,1.1,0,1.7C232.7,427.1,231.1,427.2,230,426z"/>
	<path class="st344" d="M297.9,378.8c1.2,3.7,1.2,7.6,3.1,11.1c-3.5-1.9-4.4,1.3-6,3c-0.4-0.3-0.9-0.4-1-1c0.1-1.4,1-2.9-0.2-4.2
		C295.2,384.8,296.5,381.8,297.9,378.8z"/>
	<path class="st345" d="M294,391.9c0.3,0.3,0.7,0.7,1,1c0.7,2,1,4.3,4,4c0,1.4-0.7,2.4-2,3c-2.3,1.6-5.3,0.8-5.9-1
		C290.3,396.5,291.6,393.7,294,391.9z"/>
	<path class="st286" d="M300,396.9c0-2,1.4-3,2.8-4c-0.5,2.5-0.6,5.2-2.8,7C300,398.9,300,397.9,300,396.9z"/>
	<path class="st346" d="M295,339.1c3.1-1,2.7-3.7,2.5-5.9c-0.2-1.8-0.5-3.5-0.3-5.2c4.8,6.5,4.1,13.7,2.9,21
		C297.7,346,296.1,342.7,295,339.1z"/>
	<path class="st347" d="M219.2,311c-0.4-0.6-3,0.7-1.6-1.2c2-2.6,4.2-5.3,8.4-4.8c1.6,0.2,3.7,0.7,5.1-1c1.5-1,2.8-1,3.3,1.1
		c0.3,1.2-0.1,2.1-1.6,2.5c-1.6,0.5-3.1,0.8-4.7,1.3C225.3,310.1,222.2,310.4,219.2,311z"/>
	<path class="st348" d="M286.7,327.1c-1.6-1.7-3.2-3.4-4.8-5.1c-0.3-1.1-1.1-1.7-2.2-1.9c-0.4-0.3-0.7-0.6-1.1-0.9
		c0.1-0.8,0.5-1.4,1-2c1.3-1.3,2.8-2.3,4.8-1.8c3.1,2,4.9,4.8,4.8,8.6c-0.1,1.1-0.3,2.2-1,3.1C287.8,327.4,287.3,327.4,286.7,327.1z
		"/>
	<path class="st349" d="M280,317.9c-0.4,0.4-0.9,0.8-1.3,1.2c-3-1.9-5.9-3.9-8.9-5.8c-0.7-2.1,1.2-1.8,2.2-2.4c1.3,0.3,2.7,0.7,4,1
		c0.4-0.4,0.9-0.5,1.4-0.4C279.5,313.2,281.2,315,280,317.9z"/>
	<path class="st350" d="M228.1,308.8c1.3-0.6,2.5-1.3,3.9-1.7c1.1-0.3,1.6-0.7,1.5-1.9c-0.1-2-1.6-1-2.4-1.3c0-1.3,0.7-2,2-2
		c0.7,0,1.3,0,2,0c1.7,1.8,5.3,0.7,6.3,3.8c-0.2,0.8-0.6,1.3-1.3,1.6c-1.6,0.4-3.3-0.2-4.9,0.5C232.8,308.1,230.4,308.5,228.1,308.8
		z"/>
	<path class="st351" d="M303,371.9c0,2,0,4,0,6c-0.3,0-0.7,0-1,0c-0.1-1.4,0.5-2.9-1-4c-0.8-2.1-0.6-4.1-0.1-6.2
		c0.1-3.3,0.2-6.5,0.3-9.8c0.8-0.2,1.2,0.3,1.6,0.9c0.5,1,0.8,2,0.8,3.1c-0.1,1.7,0.6,3.4,0,5.1C302.7,368.5,303.1,370.3,303,371.9z
		"/>
	<path class="st322" d="M211.1,415.9c-0.9-1.6-3.1-0.4-4-2c1.6-1.7,1-5,4-5.8c1,0.9,2.1,1.8,3.1,2.6c-1.4,1.4,0.1,4-2.1,5.1
		C211.7,415.9,211.4,415.9,211.1,415.9z"/>
	<path class="st352" d="M211,408.1c-2.4,1.2,0.4,5.9-4,5.8c-0.3,0-0.7,0-1,0c-0.7-1.2-1.9-1-3-1c0.8-1.7,4-0.2,4-3c0-0.3,0-0.7,0-1
		c0.4-1,1.1-1.8,2.1-2.2C209.8,407.2,210.4,407.6,211,408.1z"/>
	<path class="st353" d="M295,327.9c2.1,3.6,0.8,7.3,0,11c-0.8-0.3-1-1-1.1-1.7c-0.5-2-1.5-3.9-1.7-6
		C292.6,329.6,292.7,327.8,295,327.9z"/>
	<path class="st354" d="M293,331c1.2,1.9,1,4.1,0.9,6.2c-2.4-3.4-4.8-6.7-7.2-10.1c0.4,0,0.9-0.1,1.3-0.1
		C290.8,327,291.4,329.5,293,331z"/>
	<path class="st355" d="M272,311c-0.7,0.8-1.5,1.6-2.2,2.4c-1.9-0.9-3.9-1.7-5.8-2.6c-0.3-0.2-0.5-0.4-0.4-0.6
		c0.1-0.2,0.2-0.3,0.3-0.3c0,0,0,0,0,0c2.3,0,4.7,0,7,0C271.4,310.3,271.7,310.6,272,311z"/>
	<path class="st356" d="M215.1,417.9c1-1.3,3.1-1.7,3-3.9c2.3,0,3.6,1.8,5.3,2.8C220.6,416.9,218,418.5,215.1,417.9z"/>
	<path class="st321" d="M209.1,406.7c-0.1,1.3-0.6,2.2-2.1,2.2c-0.9-1.8-2.9-3.3-2.1-5.8C206.9,403.7,208,405.2,209.1,406.7z"/>
	<path class="st357" d="M300.2,349.9c0.9,0,1.8,0,2.8,0c0.6,0.4,0.9,1.1,1,1.8c0.1,0.7,0,1.4-0.3,2.1c-0.6,1-1,2.3-2.6,2
		C300,354.1,299.9,352,300.2,349.9z"/>
	<path class="st358" d="M251,304c0-0.3,0-0.7,0-1c1,0.3,2,0.7,3,1c0.8,2.7-1.3,3.1-3,3.9c-1,0-2,0-3,0c-0.2-0.4-0.3-0.8,0-1.2
		C248.9,305.5,250.2,305,251,304z"/>
	<path class="st302" d="M300.9,367.7c0,2.1,0.1,4.1,0.1,6.2c-1.2,1.6-0.6,4.2-3.1,5C298.9,375.2,299.9,371.5,300.9,367.7z"/>
	<path class="st319" d="M212.1,415.9c1.1-1.6,0.3-3.9,2.1-5.1c0.9,0.8,2.4,0.8,2.7,2.2C215.2,413.8,214.7,416.6,212.1,415.9z"/>
	<path class="st359" d="M248.1,306.9c0,0.3,0,0.6,0,0.8c-4.3,0-8.6,0-13,0c1.5-1.3,3.3-0.6,5-0.8
		C242.7,305.5,245.4,304.8,248.1,306.9z"/>
	<path class="st360" d="M233.1,422.8c-0.7-0.3-1.4-0.6-2-1c0-0.3-0.1-0.6-0.1-0.8c-0.5-0.4-0.5-0.7,0-1.1c2,1.2,5.1-0.1,6.1,3
		C235.8,422.9,234.5,422.9,233.1,422.8z"/>
	<path class="st361" d="M264,309.9c0,0.3,0,0.6,0,0.8c-2-0.6-4.3-0.5-6.1-1.8C260,308.9,262.2,308,264,309.9z"/>
	<path class="st362" d="M301.1,355.9c0.6-0.7,1.2-1.4,1.9-2c1.3,1.9,2.2,3.8-0.9,5c-0.3-0.3-0.6-0.6-0.9-0.9
		C301.2,357.3,301.1,356.6,301.1,355.9z"/>
	<path class="st363" d="M231,419.9c0,0.4,0,0.7,0,1.1c-1.1-0.1-2.2,0.1-3-1c0-0.4,0-0.7,0-1.1C229,419.3,230,419.6,231,419.9z"/>
	<path class="st364" d="M279.8,320.1c0.8-0.2,1.6-1.2,2.5-0.2c0.6,0.7-0.1,1.4-0.3,2.1C281.3,321.4,280.5,320.7,279.8,320.1z"/>
	<path class="st365" d="M315,355.9c1.4,0.1,2.3,0.9,1.9,2.2c-1.1,4.1,1.6,3.8,4.1,3.8c-0.3,2-0.7,4-1,6c-0.3,1.7-0.7,3.3-1,5
		c-0.4-0.8-1.2-1.7-1.2-2.6c-0.3-3.6-2.4-5.2-5.8-5.4C312.4,361.7,313.9,358.9,315,355.9z"/>
	<path class="st366" d="M303.1,351.9c0-0.7-0.1-1.3-0.1-2c0.5-1-1.1-2,0-3c0.9-2.3,0.8-4.6,0.1-7c0-0.7,0-1.3,0-2
		c0.7-0.6,1.3-0.5,2,0c2.6,4.3,4,9.1,5,14c-1.3,1.9,0.3,3.8,0,5.6c-0.4,2.1-0.5,4.6-3.6,2.4c-0.7-1.5-0.5-3.1-0.6-4.7
		C305.7,353.4,305,352.2,303.1,351.9z"/>
	<path class="st367" d="M307,358.9c1.7,0.7,1.7,0.7,1.9-0.5c0.5-2.2-0.8-4.6,1-6.5c0.9,5,2.3,10.1-0.9,14.8
		c-0.9,1.4-1.9,3.4-3.1,0.1c-1.2-1.3-1.3-2.9-1.5-4.6C304.6,360.7,303.4,358,307,358.9z"/>
	<path class="st368" d="M305,337.9c-0.7,0-1.3,0-2,0c-1.2-1.9-1-4-1.1-6c3.2-0.5,3.6,2.3,5,4c0,0.3,0,0.7,0,1
		C306.4,337.3,305.7,337.6,305,337.9z"/>
	<path class="st369" d="M303.1,366.9c0.8-1.7-1.9-3.3-0.1-5c0.5-0.3,0.9-0.3,1.4,0c0.9,1.6,0.9,3.3,0.7,5c0,0.4-0.1,0.7-0.1,1.1
		c-0.3,0-0.6,0-0.9,0C303.5,367.8,303.1,367.5,303.1,366.9z"/>
	<path class="st370" d="M305.1,366.9c-1-1.5-1.1-3.2-1.1-4.9c0.7-0.7,1.3-0.6,2,0c0,1.7,0,3.3,0,5
		C305.7,366.9,305.4,366.9,305.1,366.9z"/>
	<path class="st302" d="M303.1,366.9c0.3,0.3,0.7,0.7,1,1c-0.1,1.3-0.1,2.7-0.2,4c-0.3,0-0.6,0-0.8,0
		C301.5,370.2,301.5,368.6,303.1,366.9z"/>
	<path class="st371" d="M307,335.9c-1.7-1.3-3.4-2.7-5-4c-0.8-0.4-0.9-1.2-0.9-2c3.4-1.8,3.9,2.3,6,3c0,0.7,0,1.3,0,2
		C307,335.3,307,335.6,307,335.9z"/>
	<path class="st368" d="M303.1,339.9c1.5,2.3,1.6,4.7-0.1,7C303,344.6,303,342.3,303.1,339.9z"/>
	<path class="st372" d="M293,331c-2.7,0-3.4-2.6-5-4c0-1,0-2,0-3c0.9-1.5,2.1-2.2,3.9-1.9c0.8,0.2,1.5,0.5,2.1,1
		c0.3,1.7,0.7,3.3,1,5C294.4,328.9,293.7,330,293,331z"/>
	<path class="st373" d="M285,310c2.9,1.3,5.5,3.1,7.9,5c0.1,0.3,0.1,0.6,0.1,0.9c-0.8,0.4-1,1.2-1,2c-2.9,0-4.5-2.9-7.1-3.4
		c-1.3-0.9-3-1.5-3.1-3.5C282.6,309.9,283.7,309.6,285,310z"/>
	<path class="st353" d="M285.1,314c3.2-0.2,4.9,2.2,7,4c-0.4,2.1,1.1,3.4,2,5c-0.7,0-1.3,0-2,0c-2.5-2.7-5-5.4-7.2-8.4
		C284.9,314.4,285,314.2,285.1,314z"/>
	<path class="st374" d="M285,310c-1,0.3-2,0.7-3,1c-1.4,0.7-2.2-0.5-3.3-1.1c-0.3-0.3-0.6-0.6-0.7-1c-0.3-1-0.7-2-1-3
		C280,306.7,282.6,308,285,310z"/>
	<path class="st375" d="M199.1,318.9c3.6-6.2,7.4-12.3,13-17c1.3-1,2.7-2,4-3c0.4,2.1-1.1,3.4-2,5
		C210.1,310,205.5,315.4,199.1,318.9z"/>
	<path class="st376" d="M241,306c-1.5-2.1-5.3-0.7-6-4c1.7,0,3.3,0,5,0c1,0.3,2,0.7,3,1c0,0,0,0,0,0c0.9,0.8,2.8,1.3,1.8,2.8
		C244.1,307.1,242.4,306.6,241,306z"/>
	<path class="st377" d="M278,308.9c0.3,0,0.7,0.1,1,0.1c1.4,2.4-0.8,2.3-2,2.9c-0.3,0-0.7,0-1,0c-0.7-1.2-1.1-2.5-1-4
		C276,308.3,277,308.6,278,308.9z"/>
	<path class="st378" d="M241,306c2.4,0.2,4.5,0.1,2-3c2.7,0.3,5.3,0.7,8,1c-0.1,1.9-1.1,2.9-3,3c-2.7,0-5.3,0-8,0
		C240.4,306.6,240.7,306.3,241,306z"/>
	<path class="st364" d="M277,311.9c0.6-1,2.1-1.4,2-2.9c1,0.7,2,1.3,3,2c1,1,2,2,3,3c0,0,0,0,0,0c-0.6,0.5-0.2,1.6-1,2
		c-1.7-0.2-2.6,1.4-4,2C279,315.9,278,313.9,277,311.9z"/>
	<path class="st379" d="M284,316c0-0.8,0.2-1.6,1-2c2.7,2.7,6.4,4.6,7,9c-1.5-0.1-2.7,0.3-4,1C288.7,320.3,285.9,318.4,284,316z"/>
	<path class="st380" d="M306,361.9c-0.7,0-1.4,0-2,0c-0.3,0-0.7-0.1-1-0.1c-0.3-1-0.6-2-0.9-3c1.6-1.4,0.7-3.3,0.9-5
		c0-0.6,0.1-1.3,0.1-1.9c2.2-2.5,3.3-0.7,3.8,1.3c0.4,1.8,0.1,3.8,0.2,5.7C304.4,359.2,305.5,360.6,306,361.9z"/>
</g>
</svg>
