<?xml version="1.0" encoding="utf-8"?>
<!-- Generator: Adobe Illustrator 25.3.0, SVG Export Plug-In . SVG Version: 6.00 Build 0)  -->
<svg version="1.1" id="Calque_1" xmlns="http://www.w3.org/2000/svg" xmlns:xlink="http://www.w3.org/1999/xlink" x="0px" y="0px"
	 viewBox="0 0 595.3 841.9" style="enable-background:new 0 0 595.3 841.9;" xml:space="preserve">
<style type="text/css">
	.st0{fill:#F2F2F2;}
	.st1{fill:#DBDBDB;}
	.st2{fill:#131314;}
	.st3{fill:#ECA53E;}
</style>
<path class="st0" d="M68,299c0.7,0.2,2.1-0.5,1.9,0.7c-0.2,1,0.7,3.2-1.9,3C68,301.4,68,300.2,68,299z"/>
<path class="st1" d="M463.8,152.2c-0.2,0.7-0.8,1-1.3,1c-0.9,0-1.4-0.7-1.4-1.6c0-0.6,0.4-0.9,0.9-0.6
	C462.7,151.2,463.7,151,463.8,152.2z"/>
<path class="st1" d="M463,143.2c0,0.3-0.2,0.5-0.5,0.5c-0.3,0-0.6-0.2-0.5-0.5c0.1-0.2,0.3-0.5,0.5-0.5
	C462.8,142.6,463,142.9,463,143.2z"/>
<path class="st2" d="M287.8,544c-17.6,0.2-35-4.1-50.7-11.7c-8-3.9-15.6-8.7-22.6-14.2c-5.2-4.1-15.4-10.8-17.1-17.5
	c-0.6-2.3,0.2-5.1,2.4-6c2.8-1.2,5.7,1.4,7.8,3.6c17.2,18.4,40.6,30.8,65.5,34.8c5,0.8,2.8-11.7,2.8-14.9c0-7.3,0-14.6,0-21.9
	c0-24.2-1.5-48.8,0.2-73c0.1-1.4,0.2-2.8,0.9-4c2-3.5,6.3-2,7.8,1c0.9,1.9,1,4.2,1,6.3c0,34.5,0.1,68.9,0.1,103.4
	c0,1.2,0.1,2.6,1,3.4c0.7,0.5,1.6,0.6,2.4,0.6c53.5,1,104.8-35.1,116.5-88.5c5.2-23.6,3.2-47.2-5-69.9
	c-5.8-16.1-15.3-29.2-27.5-40.7c-44.2-41.7-119.5-45.1-162.5,0.4c-1.8,1.9-3.6,3.9-5.3,5.9c-1.9,2.1-4.2,2.3-6.3,0.9
	c-2.2-1.5-1.8-3.9-0.9-5.9c0.7-1.5,1.9-2.8,3.1-4.1c28.7-31.8,75.5-47,117.4-36.6C379.1,310.4,424,368,418,430.8
	c-6.3,65.2-63.2,110.1-126.3,113.1C290.4,543.9,289.1,544,287.8,544z"/>
<path class="st2" d="M242.7,440.9c0-11.3-0.2-22.6-0.7-33.8c0-0.8-0.5-0.9-1.1-0.7c-4.3,0-8.6,0-13,0c-12.5,0-25.1-0.1-37.6-0.1
	c-2.9-0.8-4.2-2.7-3.6-5.6c0.7-3.2,3.2-3.9,6.1-3.9c14.7,0,29.3-0.3,44,0.1c5.1,0.1,6-1.5,5.9-6.2c-0.4-10-0.2-20,0-29.9
	c0.4-19.5,14.7-36.5,33.5-41.4c15.9-4.1,32.6,1.1,43.9,12.9c12.6,13.2,14.5,29.2,12.8,46.5c-0.5,0.3-0.7,0.7-0.5,1.3l-0.1,0.3
	c-0.4,1-0.7,2.1-1.1,3.1c-0.3,0.6-0.6,1.2-0.9,1.9c-0.3,0.2-0.4,0.5-0.3,0.8c-0.3,0.6-0.7,1.2-1,1.8c-6.7,11-16.7,17.2-29.6,18.4
	c-14,1.3-28.9-0.1-43,0c-1.3,0-3.6-1.4-3.9,1.5c-1.5,14.6,0,30.2-0.1,44.9c0,8.2-0.5,16.4-0.6,24.5c-0.1,7.3,1.9,16.3,0.5,23.4
	c-0.7,3.2-4,7.2-7.5,5c-2.2-1.3-2.4-4.3-2.4-6.9C242.3,479.7,242.7,460.3,242.7,440.9z M278,397C278,397,278,397,278,397
	c6.7,0,13.4-0.2,20.1,0c10.2,0.3,17.2-4.6,22-13.2c10.2-18.4,1.8-43.9-17.3-52.6c-24.4-11.1-52,6-50.7,32c0.5,10,0.2,20,0,29.9
	c-0.1,3.1,0.9,3.9,3.9,3.8C263.3,396.9,270.7,397,278,397z"/>
<path class="st3" d="M475.2,514.7c-8.3-3.7-16.5-7.7-24.5-11.9c-8.1-4.3-2.9-9.6,4.3-6.6c15.4,6.6,30.6,13.7,45.6,21.3
	c2.3,1.2,4.9,3.3,4,5.6c-1,2.5-4.7,2-7.2,0.9C489.8,521.1,482.5,518,475.2,514.7z"/>
<path class="st3" d="M502.3,410c1.6,0.1,3.1,0.1,4.7,0.2c2.5,0.2,4.7,1.2,4.5,4.2c-0.2,2.8-2.2,3.3-4.7,3.3
	c-19.8-0.1-39.5-0.2-59.3-0.3c-0.8,0-1.5,0.1-2.3,0.2c-1.4-0.2-2.9-0.2-4.1-0.7c-1.4-0.6-2.6-1.8-2.2-3.6c0.4-1.8,1.1-3.2,3.3-3.1
	c1.5,0.1,3.1,0,4.7,0C465.3,410,483.8,410,502.3,410z"/>
<path class="st3" d="M445.6,279.3c1.6-0.8,3-1,4-0.5c5.8,3.2-26.6,32.6-29.7,35.7c-3.2,3.2-6.3,6.4-9.5,9.6
	c-1.8,1.7-3.3,4.7-6.4,1.7c-3-3-0.6-5,1.3-7c3.6-4,8.1-7,11-11.7c0.4-0.1,1-0.1,1.3-0.4C421.4,303,437,283.5,445.6,279.3z"/>
<path class="st3" d="M447.3,352.6c6.9-3,13.9-6,21.1-8.3c2.9-0.9,13.3-4.2,15.5-0.9c3.3,5.2-25.6,14.7-29.9,16.5
	c-4.5,1.9-20.6,11.6-25.1,8c-8.1-6.5,9.7-11.7,12.9-12.9C442.7,354.6,444.6,353.7,447.3,352.6z"/>
<path class="st3" d="M429.2,516.8c11.5,8.8,24.9,20.1,22.2,23.3c-4.2,5-24.6-14.9-28.2-17.8c-1.9-1.5-3.8-3-5.8-4.5
	c-2.8-2.2-13.9-8.1-11.2-12.8c2.3-3.9,6-1.2,8.5,0.9C416.6,507.4,422.6,511.7,429.2,516.8z"/>
<path class="st3" d="M418,346.4c-6.8-1.5,8.8-11.6,9.4-12c7.2-4.9,14.4-9.8,21.6-14.7c1.9-1.3,3.9-2.6,6.2-2.6
	c2.4,0,4.8,1.9,3.7,4.5c-0.5,1.3-1.7,2.2-2.8,3c-1.4,1-2.8,2-4.2,2.9c-4.4,3-8.9,6-13.3,9c-2,1.3-4,2.7-5.9,4
	C428.1,343.6,423.8,347.7,418,346.4z"/>
<path class="st3" d="M457.6,436.9c6.4,0.9,15.5,2.8,14.7,7.7c-1,5.9-12.6,1.2-15.9,0.5c-5.1-1.1-10.2-2.5-15.4-3.3
	c-2.6-0.4-6.8-3.3-4.4-6.5c2.2-3,12.9,0.4,16,1C453.5,436.4,455.4,436.6,457.6,436.9z"/>
<path class="st3" d="M447,465.5c3.9,2.1,8.3,4.3,11.4,4.3c0.2,0.2,0.6,0.1,0.9,0.3c5.2,2.3,4.3,9.1-1.9,6.8
	c-5.9-2.1-27.6-6.3-27.6-14.3c1.3-5.2,8.6-1.1,11.7,0.2C443,463.4,444.9,464.5,447,465.5z"/>
<path class="st3" d="M440.1,392.8c-2.9,0.4-4.6-1.2-4.6-3.5c0-2,0.6-4.2,3.5-4.7c6.9-1,13.6-2.4,20.3-4.3c3.4-1,5.9,0.3,6.7,3.6
	c0.7,3.1-2.3,3-4.1,3.8c-4.3,2-9,1.9-13.5,3C445.6,391.5,443,393.2,440.1,392.8z"/>
<path class="st3" d="M399.6,528.3c6.2,5.8,13.4,15.2,10.4,17.8c-4.7,4.1-16.5-11.7-19.8-14.9c-3.3-3.3-2.4-8.9,2.8-7.6
	C394.4,523.9,396.9,525.8,399.6,528.3z"/>
<path class="st3" d="M436.4,487.3c1.8,2.1,7.7,5.2,6,8.7c-1.5,3.3-16.2-3.4-18.8-5.4c-6-4.9,0.3-9.1,5.8-6.4
	C431.7,485.2,433.8,486.8,436.4,487.3C436.3,487.2,436.4,487.2,436.4,487.3z"/>
<path class="st3" d="M390.4,312.6c-1.2-0.2-2.3-1.2-2.9-2.4c-0.7-1.4-1-3.5,0.3-4.4c6.6-4.5,10.2-11.8,15.9-17
	c0.7-0.6,1.3-1.4,2.1-1.8c1.9-0.9,3.5-0.5,5,1.1c1.4,1.5,1.2,2.5,0,3.9c-5.7,6.2-11.4,12.4-17,18.7
	C392.9,311.7,391.8,312.2,390.4,312.6z"/>
<path class="st3" d="M151.5,318.9c-19.7-12.2-38.8-25.9-58.7-37.6c-2.7-1.6-3.1-4.2-1.7-6.5c1.4-2.2,3.8-1.4,5.8-0.2
	c19.7,12.1,39.4,24.2,58.7,37.2c7.3,4.9,14.9,9.3,22.4,13.9c8.1,5,0.9,8.6-5.5,5.3C165.4,327.2,158.4,323.1,151.5,318.9z"/>
<path class="st2" d="M172.3,429.7c2.5-0.3,3.8,0.7,4.1,3.5c1.4,10.9,3.8,21.5,7.8,31.7c1.1,2.8-0.6,4.5-3,5.3
	c-2.1,0.7-4.3,1.2-5.4-1.7c-4.3-10.9-7.4-22.1-8.1-33.8C167.6,431.6,168.5,429.4,172.3,429.7z"/>
<path class="st2" d="M221.4,418c3,0.3,5.1,1.9,4.7,4.9c-0.6,4.4-4.4,3.9-7.6,4.1c-8.5-1.1-17.5,0.2-26.1,0c-7.6-0.2-8.8-8.1-1.2-8.9
	C201.2,418.5,211.3,418.5,221.4,418z"/>
<path class="st2" d="M176.9,401.7c-0.1,3.7-2.7,6.1-6.1,5.8c-3.2-0.3-5.1-2-5-5.4c0.1-3.5,1.8-5.5,5.4-5.4
	C174.9,396.6,176.6,398.5,176.9,401.7z"/>
<path class="st3" d="M365.7,397.8c-3.3,1.3-8.7,2.3-6.5-3.1c1.9-4.6,10-6.6,14.1-8.2c2.6-1,15.4-3,9.9,3.5c-0.7,0.9-1.9,1.4-2.9,1.8
	c-4.5,1.9-9.1,3.8-13.6,5.7C366.4,397.5,366,397.7,365.7,397.8z"/>
<path class="st3" d="M387.2,406c1.5,0.7,1.8,1.8-0.8,3.7c-1.5,1.1-3.4,1.4-5.2,1.7c-3.2,0.5-16.1,4.4-17.8,1.3
	c-2.9-5.4,7.5-6.6,10.5-7.1C375.8,405.3,384.1,404.6,387.2,406z"/>
<path class="st3" d="M339,470.1c2.9,5,5.8,10,8.7,15.1c0.5,0.9,0.8,2,1.1,3c0.8,2.4-0.8,5.3-3.7,3.8c-0.9-0.5-1.6-1.3-2.2-2.2
	c-2.7-3.9-6.5-9-7.6-13.7c-0.3-1.3-1.5-2.7-0.8-4.1C335,471.3,338.6,469.4,339,470.1z"/>
<path class="st3" d="M369.1,455.1c0.9,0.6,1.6,1.1,2.2,1.4c1.7,0.8,3.6,1.6,4.6,3.1c3.8,5.6-3.9,4.9-6.5,3.7
	c-4.9-2.2-9.3-6-13.7-9.1c-1-0.7-0.7-1.8-0.1-2.9C357.8,446.6,365,452.2,369.1,455.1z"/>
<path class="st3" d="M330.6,492.8c0.2,0.6,0.3,1.3,0.4,1.9c0.1,0.9,1.3,3.1,0.8,3.9c-0.5,0.9-4.9,2.1-5.2,0.9
	c-1.1-4.9-3.2-9.6-4.5-14.5c-0.4-1.6-2.4-6.2-1.6-7.8c2.2-4.7,6.8,6.8,7.3,8.1C328.7,487.7,329.9,490.3,330.6,492.8z"/>
<path class="st3" d="M363.9,423.4c7.7-2.5,15.5,0.1,23.2-0.1c1.5,0,2.6,1.7,2.4,3.5c-0.3,2.3-2.1,2.6-3.9,2.4
	c-5.8-0.5-11.5-0.8-17.3-0.5C365.6,428,362.9,427.3,363.9,423.4z"/>
<path class="st3" d="M383.9,442.3c1.3,1.1,1.9,2.1,1.6,3c-0.6,1.6-2.5,2.4-4.2,2.2c-1.7-0.1-3.3-0.9-4.8-1.6
	c-1.4-0.6-14-3.1-14.3-4.2C359.9,432.7,378.2,437.5,383.9,442.3z"/>
<path class="st3" d="M348.8,460.8c5.7,3.7,9.5,9.5,14.5,14c1.3,1.2,1.9,3.2,0.2,5c-2,2-3.4,0.6-4.7-0.7c-3.5-3.7-6.8-7.5-10.3-11.2
	C346.1,465.3,346.4,463,348.8,460.8C348.8,460.8,348.8,460.8,348.8,460.8z"/>
</svg>
