<?xml version="1.0" encoding="utf-8"?>
<!-- Generator: Adobe Illustrator 25.3.0, SVG Export Plug-In . SVG Version: 6.00 Build 0)  -->
<svg version="1.1" id="Calque_1" xmlns="http://www.w3.org/2000/svg" xmlns:xlink="http://www.w3.org/1999/xlink" x="0px" y="0px"
	 viewBox="0 0 595.3 841.9" style="enable-background:new 0 0 595.3 841.9;" xml:space="preserve">
<style type="text/css">
	.st0{stroke:#FFFFFF;stroke-miterlimit:10;}
	.st1{fill:#FFFFFF;}
	.st2{fill:#ECA53E;}
</style>
<path class="st1" d="M297.9,526.7c-16.1,0.2-32-3.7-46.4-10.7c-7.3-3.6-14.3-8-20.7-13c-4.7-3.7-14.1-9.9-15.7-16
	c-0.5-2.1,0.2-4.6,2.2-5.4c2.6-1.1,5.2,1.3,7.1,3.3c15.7,16.8,37.2,28.2,59.9,31.9c4.5,0.7,2.6-10.7,2.6-13.6c0-6.7,0-13.4,0-20.1
	c0-22.1-1.3-44.7,0.2-66.8c0.1-1.3,0.2-2.5,0.8-3.6c1.8-3.2,5.8-1.8,7.1,1c0.9,1.8,0.9,3.8,0.9,5.8c0,31.5,0.1,63.1,0.1,94.6
	c0,1.1,0.1,2.4,1,3.1c0.6,0.5,1.5,0.5,2.2,0.5c49,0.9,95.9-32.1,106.6-81c4.7-21.6,2.9-43.2-4.5-63.9c-5.3-14.7-14-26.7-25.2-37.3
	c-40.5-38.1-109.4-41.3-148.7,0.3c-1.7,1.8-3.3,3.6-4.9,5.4c-1.7,1.9-3.8,2.1-5.8,0.8c-2-1.3-1.7-3.6-0.8-5.4
	c0.6-1.4,1.8-2.6,2.8-3.7c26.3-29.1,69.1-43,107.4-33.5c55.3,13.7,96.4,66.3,90.9,123.8c-5.7,59.7-57.8,100.7-115.6,103.5
	C300.3,526.7,299.1,526.7,297.9,526.7z"/>
<path class="st1" d="M256.7,432.4c0-10.3-0.2-20.6-0.6-30.9c0-0.7-0.4-0.8-1-0.6c-4,0-7.9,0-11.9,0c-11.5,0-23-0.1-34.4-0.1
	c-2.6-0.7-3.8-2.5-3.3-5.1c0.6-2.9,2.9-3.6,5.6-3.6c13.4,0,26.8-0.2,40.2,0.1c4.7,0.1,5.5-1.4,5.4-5.7c-0.3-9.1-0.2-18.3,0-27.4
	c0.4-17.8,13.4-33.4,30.6-37.9c14.6-3.8,29.8,1,40.2,11.8c11.5,12.1,13.2,26.7,11.7,42.6c-0.4,0.3-0.7,0.7-0.4,1.2l-0.1,0.3
	c-0.3,1-0.6,1.9-1,2.9c-0.3,0.6-0.5,1.1-0.8,1.7c-0.3,0.2-0.4,0.4-0.3,0.7c-0.3,0.6-0.6,1.1-0.9,1.7c-6.1,10.1-15.3,15.7-27.1,16.8
	c-12.8,1.2-26.4-0.1-39.3,0c-1.2,0-3.3-1.3-3.6,1.4c-1.4,13.4,0,27.6-0.1,41.1c0,7.5-0.4,15-0.5,22.5c-0.1,6.6,1.8,14.9,0.4,21.4
	c-0.6,2.9-3.6,6.6-6.9,4.6c-2-1.2-2.2-4-2.2-6.3C256.3,467.9,256.7,450.2,256.7,432.4z M289,392.2C289,392.2,289,392.2,289,392.2
	c6.1,0,12.3-0.2,18.4,0c9.4,0.3,15.7-4.2,20.1-12c9.4-16.8,1.6-40.2-15.9-48.1c-22.3-10.1-47.6,5.5-46.4,29.3
	c0.5,9.1,0.2,18.3,0,27.4c-0.1,2.9,0.9,3.6,3.6,3.5C275.6,392.1,282.3,392.2,289,392.2z"/>
<path class="st2" d="M469.4,499.9c-7.6-3.4-15.1-7-22.4-10.9c-7.4-3.9-2.7-8.8,3.9-6c14.1,6,28,12.5,41.7,19.5
	c2.1,1.1,4.5,3,3.6,5.2c-0.9,2.3-4.3,1.8-6.6,0.8C482.8,505.8,476.1,502.9,469.4,499.9z"/>
<path class="st2" d="M494.3,404.1c1.4,0.1,2.8,0.1,4.3,0.2c2.3,0.2,4.3,1.1,4.1,3.8c-0.2,2.6-2,3-4.3,3c-18.1-0.1-36.2-0.2-54.2-0.2
	c-0.7,0-1.4,0.1-2.1,0.1c-1.3-0.2-2.6-0.2-3.7-0.7c-1.3-0.6-2.4-1.6-2-3.3c0.4-1.6,1-2.9,3-2.8c1.4,0.1,2.8,0,4.3,0
	C460.4,404.2,477.3,404.2,494.3,404.1z"/>
<path class="st2" d="M442.3,284.6c1.5-0.7,2.8-1,3.6-0.5c5.3,2.9-24.3,29.9-27.1,32.7c-2.9,2.9-5.7,5.9-8.7,8.8
	c-1.6,1.6-3,4.3-5.8,1.5c-2.7-2.7-0.5-4.6,1.2-6.4c3.3-3.6,7.4-6.4,10.1-10.7c0.4-0.1,1-0.1,1.2-0.3
	C420.2,306.2,434.5,288.4,442.3,284.6z"/>
<path class="st2" d="M443.9,351.6c6.3-2.8,12.7-5.5,19.3-7.6c2.6-0.8,12.2-3.9,14.2-0.8c3,4.8-23.4,13.4-27.3,15.1
	c-4.1,1.8-18.8,10.6-22.9,7.3c-7.4-5.9,8.9-10.7,11.8-11.8C439.7,353.4,441.5,352.6,443.9,351.6z"/>
<path class="st2" d="M427.4,501.9c10.5,8.1,22.8,18.4,20.3,21.3c-3.8,4.5-22.5-13.6-25.8-16.2c-1.8-1.4-3.5-2.8-5.3-4.2
	c-2.6-2-12.7-7.4-10.2-11.7c2.1-3.5,5.5-1.1,7.8,0.8C415.8,493.3,421.3,497.2,427.4,501.9z"/>
<path class="st2" d="M417.1,346c-6.2-1.4,8-10.6,8.6-11c6.6-4.5,13.2-9,19.7-13.5c1.7-1.2,3.6-2.4,5.7-2.4c2.2,0,4.4,1.8,3.4,4.1
	c-0.5,1.2-1.5,2-2.6,2.7c-1.3,0.9-2.6,1.8-3.9,2.7c-4.1,2.7-8.1,5.5-12.2,8.2c-1.8,1.2-3.6,2.4-5.4,3.7
	C426.3,343.4,422.4,347.1,417.1,346z"/>
<path class="st2" d="M453.3,428.8c5.8,0.9,14.2,2.6,13.4,7c-0.9,5.4-11.5,1.1-14.6,0.5c-4.7-1-9.4-2.3-14.1-3c-2.4-0.4-6.2-3-4-6
	c2-2.8,11.8,0.4,14.6,0.9C449.6,428.3,451.3,428.5,453.3,428.8z"/>
<path class="st2" d="M443.6,455c3.6,1.9,7.6,3.9,10.5,3.9c0.2,0.1,0.5,0.1,0.8,0.2c4.8,2.1,4,8.3-1.8,6.3c-5.4-2-25.3-5.7-25.3-13.1
	c1.2-4.8,7.9-1,10.7,0.2C440,453,441.7,454,443.6,455z"/>
<path class="st2" d="M437.3,388.4c-2.7,0.3-4.2-1.1-4.3-3.2c0-1.8,0.6-3.9,3.2-4.3c6.3-0.9,12.5-2.2,18.6-3.9
	c3.1-0.9,5.4,0.3,6.1,3.3c0.7,2.8-2.1,2.7-3.8,3.5c-3.9,1.8-8.2,1.7-12.3,2.7C442.3,387.2,439.9,388.8,437.3,388.4z"/>
<path class="st2" d="M400.3,512.4c5.7,5.3,12.3,13.9,9.5,16.3c-4.3,3.8-15.1-10.7-18.1-13.7c-3-3-2.2-8.1,2.6-7
	C395.5,508.4,397.8,510.1,400.3,512.4z"/>
<path class="st2" d="M433.9,474.8c1.6,1.9,7,4.8,5.5,8c-1.4,3-14.8-3.1-17.2-5c-5.5-4.4,0.3-8.4,5.3-5.9
	C429.6,473,431.6,474.4,433.9,474.8C433.9,474.8,433.9,474.8,433.9,474.8z"/>
<path class="st2" d="M391.8,315c-1.1-0.2-2.1-1.1-2.7-2.2c-0.6-1.3-0.9-3.2,0.3-4c6.1-4.1,9.3-10.8,14.6-15.6
	c0.6-0.6,1.2-1.3,1.9-1.6c1.7-0.8,3.2-0.4,4.5,1c1.3,1.4,1.1,2.3,0,3.6c-5.2,5.7-10.4,11.4-15.5,17.1
	C394.1,314.2,393.2,314.7,391.8,315z"/>
<path class="st2" d="M173.3,320.8c-18-11.2-35.5-23.7-53.7-34.4c-2.4-1.4-2.8-3.9-1.5-5.9c1.3-2.1,3.5-1.3,5.3-0.1
	c18,11.1,36.1,22.2,53.7,34c6.7,4.5,13.6,8.5,20.5,12.8c7.4,4.6,0.8,7.9-5,4.8C186,328.4,179.6,324.7,173.3,320.8z"/>
<path class="st1" d="M192.3,422.1c2.2-0.3,3.5,0.7,3.8,3.2c1.3,9.9,3.4,19.7,7.2,29c1,2.6-0.5,4.1-2.8,4.9c-1.9,0.6-3.9,1.1-5-1.5
	c-3.9-10-6.8-20.2-7.4-30.9C188,423.9,188.8,421.9,192.3,422.1z"/>
<path class="st1" d="M237.2,411.5c2.7,0.3,4.7,1.7,4.3,4.5c-0.5,4-4,3.6-6.9,3.7c-7.7-1-16.1,0.2-23.9,0c-6.9-0.2-8-7.4-1.1-8.2
	C218.8,411.9,228,411.9,237.2,411.5z"/>
<path class="st1" d="M196.5,396.5c-0.1,3.4-2.4,5.6-5.6,5.3c-2.9-0.3-4.6-1.9-4.5-5c0.1-3.2,1.7-5,5-5
	C194.6,391.9,196.3,393.7,196.5,396.5z"/>
<path class="st2" d="M369.2,393c-3,1.2-7.9,2.1-5.9-2.9c1.7-4.2,9.1-6.1,12.9-7.5c2.3-0.9,14.1-2.8,9.1,3.2
	c-0.7,0.8-1.7,1.3-2.7,1.7c-4.1,1.7-8.3,3.5-12.4,5.2C369.9,392.7,369.6,392.9,369.2,393z"/>
<path class="st2" d="M388.9,400.4c1.4,0.6,1.6,1.6-0.7,3.4c-1.3,1-3.1,1.3-4.7,1.6c-2.9,0.5-14.7,4-16.3,1.1
	c-2.7-4.9,6.9-6.1,9.6-6.5C378.5,399.9,386.1,399.2,388.9,400.4z"/>
<path class="st2" d="M344.8,459.1c2.6,4.6,5.3,9.2,7.9,13.8c0.5,0.8,0.7,1.8,1,2.7c0.7,2.2-0.8,4.8-3.3,3.5c-0.8-0.4-1.4-1.2-2-2
	c-2.5-3.6-5.9-8.2-7-12.5c-0.3-1.2-1.4-2.4-0.7-3.7C341.1,460.3,344.4,458.5,344.8,459.1z"/>
<path class="st2" d="M372.4,445.4c0.8,0.6,1.5,1,2,1.2c1.6,0.7,3.3,1.4,4.2,2.9c3.4,5.2-3.5,4.5-5.9,3.4c-4.5-2-8.5-5.5-12.5-8.3
	c-0.9-0.6-0.6-1.6-0.1-2.7C362,437.7,368.6,442.7,372.4,445.4z"/>
<path class="st2" d="M337.1,479.9c0.2,0.6,0.3,1.2,0.4,1.7c0.1,0.8,1.2,2.8,0.7,3.6c-0.5,0.8-4.5,2-4.8,0.8c-1-4.5-2.9-8.8-4.1-13.3
	c-0.4-1.5-2.2-5.7-1.5-7.2c2-4.3,6.2,6.2,6.7,7.4C335.4,475.2,336.5,477.6,337.1,479.9z"/>
<path class="st2" d="M367.6,416.4c7.1-2.3,14.1,0.1,21.2-0.1c1.4,0,2.4,1.5,2.2,3.2c-0.3,2.1-1.9,2.4-3.5,2.2
	c-5.3-0.4-10.5-0.7-15.8-0.5C369.2,420.6,366.7,419.9,367.6,416.4z"/>
<path class="st2" d="M385.9,433.7c1.2,1,1.8,1.9,1.5,2.8c-0.5,1.5-2.3,2.2-3.9,2c-1.6-0.1-3-0.9-4.4-1.5c-1.3-0.6-12.8-2.9-13.1-3.9
	C363.9,424.9,380.6,429.3,385.9,433.7z"/>
<path class="st2" d="M353.8,450.6c5.2,3.4,8.7,8.7,13.3,12.8c1.2,1.1,1.8,2.9,0.2,4.5c-1.8,1.8-3.1,0.6-4.3-0.6
	c-3.2-3.4-6.2-6.9-9.4-10.2C351.3,454.7,351.6,452.7,353.8,450.6C353.8,450.6,353.8,450.6,353.8,450.6z"/>
</svg>
